SplineFontDB: 3.0
FontName: LeckerliOne
FullName: LeckerliOne
FamilyName: LeckerliOne
Weight: Book
Copyright: Copyright (c) 2011 Gesine Todt E^(www.gesine-todt.de), with Reserved Font Names "Leckerli" and "Leckerli One". This Font Software is licensed under the SIL Open Font License, Version 1.1. This license is available with a FAQ at: http://scripts.sil.org/OFL
Version: 1.000
ItalicAngle: 0
UnderlinePosition: -50
UnderlineWidth: 50
Ascent: 800
Descent: 200
sfntRevision: 0x00010000
LayerCount: 2
Layer: 0 1 "Back"  1
Layer: 1 1 "Fore"  0
NeedsXUIDChange: 1
XUID: [1021 288 713564382 1286329]
FSType: 0
OS2Version: 3
OS2_WeightWidthSlopeOnly: 0
OS2_UseTypoMetrics: 1
CreationTime: 1310638320
ModificationTime: 1310742844
PfmFamily: 17
TTFWeight: 400
TTFWidth: 5
LineGap: 0
VLineGap: 0
Panose: 2 0 5 3 0 0 0 2 0 3
OS2TypoAscent: 232
OS2TypoAOffset: 1
OS2TypoDescent: -113
OS2TypoDOffset: 1
OS2TypoLinegap: 0
OS2WinAscent: 0
OS2WinAOffset: 1
OS2WinDescent: 0
OS2WinDOffset: 1
HheadAscent: 0
HheadAOffset: 1
HheadDescent: 0
HheadDOffset: 1
OS2SubXSize: 700
OS2SubYSize: 650
OS2SubXOff: 0
OS2SubYOff: 140
OS2SupXSize: 700
OS2SupYSize: 650
OS2SupXOff: 0
OS2SupYOff: 477
OS2StrikeYSize: 50
OS2StrikeYPos: 250
OS2Vendor: '    '
OS2CodePages: 20000111.40000000
OS2UnicodeRanges: 80000027.00000043.00000000.00000000
Lookup: 258 0 0 "'kern' Horizontal Kerning in Latin lookup 0"  {"'kern' Horizontal Kerning in Latin lookup 0 subtable"  } ['kern' ('DFLT' <'dflt' > 'latn' <'dflt' > ) ]
DEI: 91125
TtTable: prep
PUSHW_1
 511
SCANCTRL
PUSHB_1
 4
SCANTYPE
EndTTInstrs
ShortTable: maxp 16
  1
  0
  217
  144
  4
  0
  0
  2
  0
  1
  1
  0
  64
  0
  0
  0
EndShort

StartChar: exclam
Encoding: 33 33 4
Width: 497
Flags: HW
LayerCount: 2
Fore
SplineSet
361 690 m 0,0,1
 378 707 378 707 397 707 c 0,2,3
 429 707 429 707 452.5 683.5 c 128,-1,4
 476 660 476 660 477 645 c 1,5,6
 476 618 476 618 457.5 587.5 c 128,-1,7
 439 557 439 557 417 523.5 c 128,-1,8
 395 490 395 490 377 453.5 c 128,-1,9
 359 417 359 417 359 387.5 c 128,-1,10
 359 358 359 358 364 331.5 c 128,-1,11
 369 305 369 305 369 287.5 c 0,12,13
 369 257.5 369 257.5 332 239.25 c 128,-1,14
 295 221 295 221 262 221 c 128,-1,15
 229 221 229 221 219.5 237.5 c 128,-1,16
 210 254 210 254 210 288.5 c 0,17,18
 210 370.947368421 210 370.947368421 251.5 497.473684211 c 128,-1,19
 293 624 293 624 361 690 c 0,0,1
294 4.5 m 128,-1,21
 254 -29 254 -29 207 -29 c 128,-1,22
 160 -29 160 -29 160 22.5 c 128,-1,23
 160 74 160 74 193.5 115 c 128,-1,24
 227 156 227 156 261 156 c 0,25,26
 321 156 321 156 354 89 c 1,27,20
 334 38 334 38 294 4.5 c 128,-1,21
EndSplineSet
EndChar

StartChar: quotedbl
Encoding: 34 34 5
Width: 282
Flags: HW
LayerCount: 2
Fore
SplineSet
50 615 m 1,0,-1
 112 615 l 1,1,-1
 112 423 l 1,2,-1
 60 423 l 1,3,-1
 50 615 l 1,0,-1
160 615 m 1,4,-1
 222 615 l 1,5,-1
 222 423 l 1,6,-1
 160 423 l 1,7,-1
 160 615 l 1,4,-1
EndSplineSet
EndChar

StartChar: numbersign
Encoding: 35 35 6
Width: 464
Flags: HW
LayerCount: 2
Fore
SplineSet
116 240 m 1,0,-1
 136 342 l 1,1,-1
 64 342 l 1,2,-1
 64 400 l 1,3,-1
 148 400 l 1,4,-1
 183 577 l 1,5,-1
 245 577 l 1,6,-1
 210 400 l 1,7,-1
 298 400 l 1,8,-1
 333 577 l 1,9,-1
 395 577 l 1,10,-1
 360 400 l 1,11,-1
 424 400 l 1,12,-1
 424 342 l 1,13,-1
 348 342 l 1,14,-1
 328 240 l 1,15,-1
 400 240 l 1,16,-1
 400 182 l 1,17,-1
 317 182 l 1,18,-1
 281 0 l 1,19,-1
 219 0 l 1,20,-1
 255 182 l 1,21,-1
 167 182 l 1,22,-1
 131 0 l 1,23,-1
 69 0 l 1,24,-1
 105 182 l 1,25,-1
 40 182 l 1,26,-1
 40 240 l 1,27,-1
 116 240 l 1,0,-1
178 240 m 1,28,-1
 266 240 l 1,29,-1
 286 342 l 1,30,-1
 198 342 l 1,31,-1
 178 240 l 1,28,-1
EndSplineSet
EndChar

StartChar: dollar
Encoding: 36 36 7
Width: 570
Flags: HW
LayerCount: 2
Fore
SplineSet
514 574 m 0,0,1
 514 515 514 515 488.5 515 c 0,2,3
 474 515 474 515 467 523.5 c 128,-1,4
 460 532 460 532 453 544.5 c 128,-1,5
 446 557 446 557 438.5 572 c 128,-1,6
 431 587 431 587 421 600 c 1,7,-1
 375 460 l 1,8,9
 403 447 403 447 432.5 433.5 c 0,10,11
 540 384.305084746 540 384.305084746 540 269 c 0,12,13
 540 167 540 167 452.5 98.5 c 128,-1,14
 365 30 365 30 256 23 c 1,15,16
 253 11 253 11 248.5 -11.5 c 0,17,18
 228 -114 228 -114 214 -114 c 0,19,20
 191 -114 191 -114 173.5 -90 c 128,-1,21
 156 -66 156 -66 156 -39 c 128,-1,22
 156 -12 156 -12 168 30 c 1,23,24
 109 45 109 45 69.5 90 c 128,-1,25
 30 135 30 135 30 207 c 128,-1,26
 30 279 30 279 68 337.5 c 128,-1,27
 106 396 106 396 153 396 c 0,28,29
 189 396 189 396 189 375 c 128,-1,30
 189 354 189 354 174.5 310.5 c 128,-1,31
 160 267 160 267 160 241 c 128,-1,32
 160 215 160 215 171.5 187.5 c 128,-1,33
 183 160 183 160 206 146 c 1,34,35
 222 193 222 193 241.5 244.5 c 128,-1,36
 261 296 261 296 279 350 c 2,37,-1
 288 377 l 1,38,39
 222 409 222 409 198 430 c 1,40,41
 150 475 150 475 150 538 c 0,42,43
 150 626 150 626 213 676 c 128,-1,44
 276 726 276 726 359 726 c 1,45,-1
 375 725 l 1,46,47
 382 751 382 751 389.5 779 c 128,-1,48
 397 807 397 807 406 838 c 0,49,50
 408 844 408 844 417 846 c 1,51,52
 440 846 440 846 457 819 c 128,-1,53
 474 792 474 792 474 773 c 128,-1,54
 474 754 474 754 456 698 c 1,55,56
 514 658 514 658 514 574 c 0,0,1
362.5 180.5 m 128,-1,58
 394 211 394 211 394 250.5 c 128,-1,59
 394 290 394 290 378.5 310.5 c 128,-1,60
 363 331 363 331 340 347 c 1,61,62
 315 263 315 263 284 141 c 1,63,57
 331 150 331 150 362.5 180.5 c 128,-1,58
276 571 m 256,64,65
 276 522 276 522 318 491 c 1,66,67
 326 523 326 523 334 558.5 c 128,-1,68
 342 594 342 594 352 635 c 1,69,70
 318 635 318 635 297 617.5 c 128,-1,71
 276 600 276 600 276 571 c 256,64,65
EndSplineSet
EndChar

StartChar: percent
Encoding: 37 37 8
Width: 681
Flags: HW
LayerCount: 2
Fore
SplineSet
288.5 700 m 1,0,-1
 227 705 l 1,1,2
 193.5 705 193.5 705 176 670 c 0,3,4
 160 640 160 640 159.5 600 c 128,-1,5
 159 560 159 560 173.5 543.5 c 128,-1,6
 188 527 188 527 204.5 527 c 0,7,8
 235.25 527 235.25 527 260.125 554.5 c 128,-1,9
 285 582 285 582 285 627 c 0,10,11
 285 640 285 640 281 652 c 128,-1,12
 277 664 277 664 277 674 c 0,13,14
 277 692 277 692 296 692 c 128,-1,15
 315 692 315 692 326 672.5 c 128,-1,16
 337 653 337 653 337 617 c 0,17,18
 337 543 337 543 294 500 c 1,19,20
 254 458 254 458 193 458 c 0,21,22
 118 458 118 458 90 526 c 0,23,24
 80 550 80 550 80 581.5 c 0,25,26
 80 648.631578947 80 648.631578947 121 704.815789474 c 128,-1,27
 162 761 162 761 227 761 c 0,28,29
 266 761 266 761 285.5 746.5 c 128,-1,30
 305 732 305 732 305 713 c 0,31,32
 305 700 305 700 288.5 700 c 1,0,-1
516 743 m 1,33,34
 519 751 519 751 526 751 c 256,35,36
 540 751 540 751 560 723 c 128,-1,37
 580 695 580 695 579.5 673 c 128,-1,38
 579 651 579 651 569.5 629.5 c 128,-1,39
 560 608 560 608 543.5 581.5 c 128,-1,40
 527 555 527 555 506 524 c 0,41,42
 407.391304348 378.434782609 407.391304348 378.434782609 306.195652174 201.217391304 c 128,-1,43
 205 24 205 24 180 -51 c 0,44,45
 178 -54 178 -54 170.5 -54 c 0,46,47
 153.666666667 -54 153.666666667 -54 135.833333333 -28 c 128,-1,48
 118 -2 118 -2 118 13 c 128,-1,49
 118 28 118 28 121 37 c 1,50,-1
 516 743 l 1,33,34
582.5 230 m 1,51,-1
 521 235 l 1,52,53
 487.5 235 487.5 235 470 200 c 0,54,55
 454 170 454 170 453.5 130 c 128,-1,56
 453 90 453 90 467.5 73.5 c 128,-1,57
 482 57 482 57 498.5 57 c 0,58,59
 529.25 57 529.25 57 554.125 84.5 c 128,-1,60
 579 112 579 112 579 157 c 0,61,62
 579 170 579 170 575 182 c 128,-1,63
 571 194 571 194 571 204 c 0,64,65
 571 222 571 222 590 222 c 128,-1,66
 609 222 609 222 620 202.5 c 128,-1,67
 631 183 631 183 631 147 c 0,68,69
 631 73 631 73 588 30 c 1,70,71
 548 -12 548 -12 487 -12 c 0,72,73
 412 -12 412 -12 384 56 c 0,74,75
 374 80 374 80 374 111.5 c 0,76,77
 374 178.631578947 374 178.631578947 415 234.815789474 c 128,-1,78
 456 291 456 291 521 291 c 0,79,80
 560 291 560 291 579.5 276.5 c 128,-1,81
 599 262 599 262 599 243 c 0,82,83
 599 230 599 230 582.5 230 c 1,51,-1
EndSplineSet
EndChar

StartChar: ampersand
Encoding: 38 38 9
Width: 580
Flags: HW
LayerCount: 2
Fore
SplineSet
0 180 m 0,0,1
 0 321.666666667 0 321.666666667 143 378 c 1,2,3
 70 429 70 429 70 536 c 0,4,5
 70 617 70 617 127 660.5 c 128,-1,6
 184 704 184 704 264 704 c 128,-1,7
 344 704 344 704 403 662 c 128,-1,8
 462 620 462 620 462 546 c 0,9,10
 462 529 462 529 457 518.5 c 128,-1,11
 452 508 452 508 445 508 c 0,12,13
 428 508 428 508 406 535.5 c 128,-1,14
 384 563 384 563 353.5 580 c 128,-1,15
 323 597 323 597 292.5 597 c 128,-1,16
 262 597 262 597 239 574 c 128,-1,17
 216 551 216 551 216 503.5 c 128,-1,18
 216 456 216 456 255 421 c 1,19,20
 263 422 263 422 271 422 c 2,21,-1
 288 422 l 2,22,23
 322 422 322 422 348.5 409 c 128,-1,24
 375 396 375 396 375 371 c 0,25,26
 376 336 376 336 308 326 c 0,27,28
 290 324 290 324 272.5 324 c 128,-1,29
 255 324 255 324 227 331 c 1,30,31
 167 296 167 296 167 215 c 1,32,33
 166 164 166 164 208 131 c 128,-1,34
 250 98 250 98 308 98 c 128,-1,35
 366 98 366 98 409 139.5 c 128,-1,36
 452 181 452 181 451 263 c 0,37,38
 451 288 451 288 442.5 320 c 128,-1,39
 434 352 434 352 434 371.5 c 128,-1,40
 434 391 434 391 450.5 397 c 128,-1,41
 467 403 467 403 512.5 403 c 128,-1,42
 558 403 558 403 592.5 407 c 128,-1,43
 627 411 627 411 644.5 416.5 c 128,-1,44
 662 422 662 422 668.5 426 c 128,-1,45
 675 430 675 430 683 430 c 0,46,47
 705 430 705 430 705.5 402.5 c 128,-1,48
 706 375 706 375 677.5 345.5 c 128,-1,49
 649 316 649 316 617.5 316 c 128,-1,50
 586 316 586 316 541 324 c 1,51,52
 547 289 547 289 547 257 c 0,53,54
 546 122 546 122 462 50 c 1,55,56
 388 -12 388 -12 276 -12 c 0,57,58
 90 -12 90 -12 24 96 c 0,59,60
 0 135 0 135 0 180 c 0,0,1
EndSplineSet
EndChar

StartChar: quotesingle
Encoding: 39 39 10
Width: 172
Flags: HW
LayerCount: 2
Fore
SplineSet
50 615 m 1,0,-1
 112 615 l 1,1,-1
 112 423 l 1,2,-1
 50 423 l 1,3,-1
 50 615 l 1,0,-1
EndSplineSet
EndChar

StartChar: parenleft
Encoding: 40 40 11
Width: 601
Flags: HW
LayerCount: 2
Fore
SplineSet
499 819 m 0,0,1
 506 822 506 822 517.5 822 c 128,-1,2
 529 822 529 822 545 814 c 128,-1,3
 561 806 561 806 561 788 c 0,4,5
 561 761 561 761 518 746 c 1,6,7
 414 705 414 705 324 607 c 0,8,9
 256 533 256 533 228 440 c 0,10,11
 214 392 214 392 214 324.5 c 128,-1,12
 214 257 214 257 234 183.5 c 128,-1,13
 254 110 254 110 290 46 c 0,14,15
 360 -80 360 -80 479 -161 c 0,16,17
 491 -170 491 -170 491 -182.5 c 0,18,19
 491 -204.666666667 491 -204.666666667 472 -217.333333333 c 128,-1,20
 453 -230 453 -230 433 -230 c 128,-1,21
 413 -230 413 -230 400 -221 c 0,22,23
 172 -61 172 -61 98 146 c 0,24,25
 70 222 70 222 70 316.5 c 128,-1,26
 70 411 70 411 106.5 493 c 0,27,28
 206.400950872 711.450079239 206.400950872 711.450079239 499 819 c 0,0,1
EndSplineSet
EndChar

StartChar: parenright
Encoding: 41 41 12
Width: 601
Flags: HW
LayerCount: 2
Fore
SplineSet
132 -227 m 0,0,1
 124 -230 124 -230 113 -230 c 128,-1,2
 102 -230 102 -230 86 -222 c 128,-1,3
 70 -214 70 -214 70 -196 c 0,4,5
 70 -169 70 -169 113 -154 c 1,6,7
 217 -113 217 -113 307 -15 c 0,8,9
 374 59 374 59 402 152 c 0,10,11
 416 200 416 200 416.5 267.5 c 128,-1,12
 417 335 417 335 397 408.5 c 0,13,14
 378 482 378 482 342 546 c 0,15,16
 272 672 272 672 152 753 c 0,17,18
 140 762 140 762 140 774.5 c 0,19,20
 140 796.666666667 140 796.666666667 159 809.333333333 c 128,-1,21
 178 822 178 822 197.5 822 c 128,-1,22
 217 822 217 822 231 813 c 0,23,24
 458 653 458 653 534 445 c 0,25,26
 562 369 562 369 561.5 275 c 128,-1,27
 561 181 561 181 524.5 98.5 c 128,-1,28
 488 16 488 16 428 -46 c 0,29,30
 320 -158 320 -158 132 -227 c 0,0,1
EndSplineSet
EndChar

StartChar: asterisk
Encoding: 42 42 13
Width: 534
Flags: HW
LayerCount: 2
Fore
SplineSet
401 668 m 1,0,-1
 477 679 l 1,1,2
 514 679 514 679 514 662 c 128,-1,3
 514 645 514 645 499.5 636 c 128,-1,4
 485 627 485 627 467 622.5 c 128,-1,5
 449 618 449 618 432 616.5 c 128,-1,6
 415 615 415 615 410 614 c 1,7,8
 448 531 448 531 457 505 c 1,9,10
 456 490 456 490 428 478 c 1,11,12
 390 465 390 465 383 466 c 1,13,-1
 382 466 l 2,14,15
 351 466 351 466 347 479 c 0,16,17
 339 503 339 503 314 555 c 1,18,19
 293 539 293 539 271.5 524 c 128,-1,20
 250 509 250 509 229 487 c 128,-1,21
 208 465 208 465 182 465 c 128,-1,22
 156 465 156 465 143 475.5 c 128,-1,23
 130 486 130 486 130 501.5 c 128,-1,24
 130 517 130 517 144.5 532.5 c 128,-1,25
 159 548 159 548 179 564 c 128,-1,26
 199 580 199 580 220.5 594.5 c 128,-1,27
 242 609 242 609 256 620 c 1,28,29
 238 633 238 633 210 642.5 c 128,-1,30
 182 652 182 652 173.5 658.5 c 128,-1,31
 165 665 165 665 165 676 c 0,32,33
 165 698.2 165 698.2 188 712 c 1,34,35
 208 726 208 726 232 725.5 c 128,-1,36
 256 725 256 725 309 701 c 1,37,38
 336 763 336 763 349.5 771.5 c 128,-1,39
 363 780 363 780 375 783.5 c 128,-1,40
 387 787 387 787 399.5 788.5 c 128,-1,41
 412 790 412 790 429.5 790 c 128,-1,42
 447 790 447 790 447 781 c 256,43,44
 447 774 447 774 424 736 c 128,-1,45
 401 698 401 698 401 668 c 1,0,-1
EndSplineSet
EndChar

StartChar: plus
Encoding: 43 43 14
Width: 472
Flags: HW
LayerCount: 2
Fore
SplineSet
205 234 m 1,0,-1
 50 234 l 1,1,-1
 50 292 l 1,2,-1
 205 292 l 1,3,-1
 205 449 l 1,4,-1
 267 449 l 1,5,-1
 267 292 l 1,6,-1
 422 292 l 1,7,-1
 422 234 l 1,8,-1
 267 234 l 1,9,-1
 267 77 l 1,10,-1
 205 77 l 1,11,-1
 205 234 l 1,0,-1
EndSplineSet
EndChar

StartChar: comma
Encoding: 44 44 15
Width: 346
Flags: HW
LayerCount: 2
Fore
SplineSet
143 -10 m 1,0,1
 109 12 109 12 109.5 58.5 c 0,2,3
 110 105 110 105 145 135 c 0,4,5
 180 165 180 165 228 165 c 0,6,7
 255 165 255 165 275.5 150 c 128,-1,8
 296 135 296 135 296 98.5 c 128,-1,9
 296 62 296 62 280.5 23.5 c 128,-1,10
 265 -15 265 -15 238.5 -47 c 128,-1,11
 212 -79 212 -79 177.5 -100 c 128,-1,12
 143 -121 143 -121 106 -121 c 0,13,14
 92 -121 92 -121 76 -115.5 c 128,-1,15
 60 -110 60 -110 60 -95 c 128,-1,16
 60 -80 60 -80 70.5 -72 c 128,-1,17
 81 -64 81 -64 95 -56.5 c 128,-1,18
 109 -49 109 -49 122.5 -39 c 128,-1,19
 136 -29 136 -29 143 -10 c 1,0,1
EndSplineSet
EndChar

StartChar: hyphen
Encoding: 45 45 16
Width: 392
Flags: HW
LayerCount: 2
Fore
SplineSet
46 280 m 0,0,1
 46 361 46 361 183 361 c 1,2,-1
 341 358 l 2,3,4
 353 358 353 358 353 345.5 c 0,5,6
 353 325 353 325 328 295.5 c 128,-1,7
 303 266 303 266 286 266 c 1,8,-1
 197 273 l 1,9,-1
 52 271 l 2,10,11
 46 271 46 271 46 280 c 0,0,1
EndSplineSet
EndChar

StartChar: period
Encoding: 46 46 17
Width: 414
Flags: HW
LayerCount: 2
Fore
SplineSet
170 122.5 m 128,-1,1
 210 156 210 156 257 156 c 128,-1,2
 304 156 304 156 304 104 c 0,3,4
 304 52 304 52 270.5 11 c 0,5,6
 237 -30 237 -30 203 -29 c 1,7,8
 143 -29 143 -29 110 38 c 1,9,0
 130 89 130 89 170 122.5 c 128,-1,1
EndSplineSet
EndChar

StartChar: slash
Encoding: 47 47 18
Width: 461
Flags: HW
LayerCount: 2
Fore
SplineSet
378 743 m 2,0,1
 381 751 381 751 388 751 c 256,2,3
 402 751 402 751 422 723 c 128,-1,4
 442 695 442 695 441.5 667.5 c 128,-1,5
 441 640 441 640 386 500.5 c 128,-1,6
 331 361 331 361 308 302 c 128,-1,7
 285 243 285 243 269.5 202 c 128,-1,8
 254 161 254 161 243.5 133 c 128,-1,9
 233 105 233 105 224.5 79 c 128,-1,10
 216 53 216 53 206 23 c 128,-1,11
 196 -7 196 -7 182 -51 c 0,12,13
 180 -54 180 -54 172.5 -54 c 0,14,15
 155.666666667 -54 155.666666667 -54 137.833333333 -28 c 128,-1,16
 120 -2 120 -2 120 13 c 128,-1,17
 120 28 120 28 123 37 c 2,18,-1
 378 743 l 2,0,1
EndSplineSet
EndChar

StartChar: zero
Encoding: 48 48 19
Width: 732
Flags: HW
LayerCount: 2
Fore
SplineSet
597 650 m 0,0,1
 597 639 597 639 572 639 c 128,-1,2
 547 639 547 639 531.5 642 c 128,-1,3
 516 645 516 645 481 651 c 128,-1,4
 446 657 446 657 402.5 657 c 128,-1,5
 359 657 359 657 321.5 627.5 c 128,-1,6
 284 598 284 598 258 552 c 0,7,8
 206 459 206 459 207 337 c 256,9,10
 208 233 208 233 252 179.5 c 128,-1,11
 296 126 296 126 363 126 c 0,12,13
 403 126 403 126 444.5 146 c 128,-1,14
 486 166 486 166 520 204 c 0,15,16
 596 290 596 290 595 419 c 1,17,18
 596 500 596 500 546 546 c 1,19,20
 528 564 528 564 512 576 c 128,-1,21
 496 588 496 588 496 607 c 0,22,23
 496 618 496 618 518 618 c 0,24,25
 574.5 618 574.5 618 620 576 c 0,26,27
 682 519 682 519 682 411.5 c 0,28,29
 682 211.551020408 682 211.551020408 579 102.275510204 c 128,-1,30
 476 -7 476 -7 322 -7 c 0,31,32
 206 -7 206 -7 132 68 c 0,33,34
 50 152 50 152 50 299 c 0,35,36
 50 406 50 406 94 508 c 0,37,38
 166 678 166 678 308 734 c 0,39,40
 358 754 358 754 409.5 753.5 c 0,41,42
 501.239658569 752.609323703 501.239658569 752.609323703 549.619829284 720.304661852 c 128,-1,43
 598 688 598 688 597 650 c 0,0,1
EndSplineSet
EndChar

StartChar: one
Encoding: 49 49 20
Width: 528
Flags: HW
LayerCount: 2
Fore
SplineSet
95 539 m 0,0,1
 86 539 86 539 86 563.5 c 0,2,3
 86 610.823529412 86 610.823529412 122 649.411764706 c 128,-1,4
 158 688 158 688 208 702 c 0,5,6
 227 708 227 708 252 716 c 128,-1,7
 277 724 277 724 320.5 737 c 128,-1,8
 364 750 364 750 396 749 c 0,9,10
 411 749 411 749 425 715 c 0,11,12
 429 705 429 705 429 683.5 c 128,-1,13
 429 662 429 662 414.5 597 c 128,-1,14
 400 532 400 532 382 450 c 0,15,16
 331 226 331 226 322 106 c 1,17,18
 380 106 380 106 438 106 c 1,19,20
 478 104 478 104 478 85 c 0,21,22
 478 79 478 79 472 64 c 128,-1,23
 466 49 466 49 461 33 c 0,24,25
 451 0 451 0 419 0 c 1,26,-1
 210 7 l 1,27,28
 146 7 146 7 94.5 -2 c 128,-1,29
 43 -11 43 -11 20.5 -15 c 128,-1,30
 -2 -19 -2 -19 -16 -19 c 128,-1,31
 -30 -19 -30 -19 -30 -9 c 0,32,33
 -30 28 -30 28 28 65 c 128,-1,34
 86 102 86 102 171 106 c 1,35,-1
 171 122 l 2,36,37
 171 224 171 224 235 452 c 0,38,39
 263 552 263 552 288 619 c 1,40,-1
 252 610 l 2,41,42
 216 600 216 600 176 577.5 c 128,-1,43
 136 555 136 555 121 547 c 128,-1,44
 106 539 106 539 95 539 c 0,0,1
EndSplineSet
EndChar

StartChar: two
Encoding: 50 50 21
Width: 684
Flags: HW
LayerCount: 2
Fore
SplineSet
133 562 m 0,0,1
 120 562 120 562 120 583 c 128,-1,2
 120 604 120 604 135 635 c 128,-1,3
 150 666 150 666 178 692 c 0,4,5
 244 754 244 754 348.5 753.5 c 128,-1,6
 453 753 453 753 512.5 707 c 128,-1,7
 572 661 572 661 572 573 c 0,8,9
 572 464 572 464 509.5 344.5 c 128,-1,10
 447 225 447 225 361 135 c 1,11,12
 425 102 425 102 471 102 c 128,-1,13
 517 102 517 102 550 118.5 c 128,-1,14
 583 135 583 135 606.5 165.5 c 128,-1,15
 630 196 630 196 644.5 196 c 128,-1,16
 659 196 659 196 659 162 c 0,17,18
 659 94.2 659 94.2 594 46.1 c 128,-1,19
 529 -2 529 -2 432 -3 c 0,20,21
 390 -3 390 -3 352 13 c 128,-1,22
 314 29 314 29 279 49 c 1,23,24
 218 -17 218 -17 120 -17 c 0,25,26
 58 -17 58 -17 29 14 c 128,-1,27
 0 45 0 45 0 96 c 128,-1,28
 0 147 0 147 37.5 172.5 c 128,-1,29
 75 198 75 198 140.5 198 c 128,-1,30
 206 198 206 198 254 182 c 1,31,-1
 274 207 l 1,32,33
 415 419 415 419 415 561 c 256,34,35
 415 607 415 607 389 632 c 128,-1,36
 363 657 363 657 324.5 657 c 128,-1,37
 286 657 286 657 262.5 650 c 0,38,39
 220.67704729 637.542099193 220.67704729 637.542099193 196 609.5 c 1,40,41
 160.814814815 562 160.814814815 562 133 562 c 0,0,1
191 102 m 1,42,43
 157 119 157 119 133 119 c 256,44,45
 119 119 119 119 108 111.5 c 128,-1,46
 97 104 97 104 97 89 c 256,47,48
 97 74 97 74 108.5 67.5 c 128,-1,49
 120 61 120 61 132 61 c 0,50,51
 154 61 154 61 191 102 c 1,42,43
EndSplineSet
EndChar

StartChar: three
Encoding: 51 51 22
Width: 597
Flags: HW
LayerCount: 2
Fore
SplineSet
285 351 m 0,0,1
 185.185185185 351 185.185185185 351 187 400 c 257,2,3
 187 446 187 446 280 446 c 0,4,5
 293 446 293 446 316 440 c 1,6,7
 358 492 358 492 358 561 c 0,8,9
 358 607 358 607 333 632 c 128,-1,10
 308 657 308 657 268.5 657 c 128,-1,11
 229 657 229 657 205.5 650 c 0,12,13
 163.67704729 637.542099193 163.67704729 637.542099193 139 609.5 c 1,14,15
 100.296296296 562 100.296296296 562 76 562 c 0,16,17
 63 562 63 562 63 583 c 128,-1,18
 63 604 63 604 78.5 635 c 128,-1,19
 94 666 94 666 122 692 c 0,20,21
 188 754 188 754 292 753.5 c 128,-1,22
 396 753 396 753 455.5 707 c 128,-1,23
 515 661 515 661 515 573 c 0,24,25
 515 524 515 524 489 476.5 c 128,-1,26
 463 429 463 429 418 396 c 1,27,28
 532 323 532 323 532 198 c 0,29,30
 532 96 532 96 434 32 c 0,31,32
 350 -22 350 -22 246 -22 c 128,-1,33
 142 -22 142 -22 70 32 c 0,34,35
 39 56 39 56 22 84 c 128,-1,36
 5 112 5 112 5 133.5 c 128,-1,37
 5 155 5 155 25 155 c 128,-1,38
 45 155 45 155 64.5 142.5 c 128,-1,39
 84 130 84 130 106 114 c 0,40,41
 162 74 162 74 208.5 74 c 0,42,43
 287.8 74 287.8 74 326.9 117.5 c 128,-1,44
 366 161 366 161 366 210 c 0,45,46
 366 294 366 294 324 355 c 1,47,48
 305 351 305 351 285 351 c 0,0,1
EndSplineSet
EndChar

StartChar: four
Encoding: 52 52 23
Width: 686
Flags: HW
LayerCount: 2
Fore
SplineSet
598 363 m 1,0,1
 676 363 676 363 676 342 c 0,2,3
 676 336 676 336 668 321 c 128,-1,4
 660 306 660 306 654 290 c 0,5,6
 641 257 641 257 602 257 c 128,-1,7
 563 257 563 257 499 261 c 1,8,9
 479 117 479 117 479 20 c 0,10,11
 479 -8 479 -8 439 -8 c 0,12,13
 376 -8 376 -8 353 16.5 c 128,-1,14
 330 41 330 41 330 99 c 128,-1,15
 330 157 330 157 353 262 c 1,16,17
 281 257 281 257 229 248.5 c 128,-1,18
 177 240 177 240 141 238 c 1,19,-1
 129 238 l 1,20,21
 91 256 91 256 69.5 278 c 128,-1,22
 48 300 48 300 35 332 c 1,23,24
 35 394 35 394 142 560 c 0,25,26
 161 590 161 590 178 616 c 128,-1,27
 195 642 195 642 205 660 c 0,28,29
 232 709 232 709 258 709 c 0,30,31
 266 709 266 709 272 697.5 c 128,-1,32
 278 686 278 686 278 669 c 128,-1,33
 278 652 278 652 266 617.5 c 128,-1,34
 254 583 254 583 223.5 499.5 c 128,-1,35
 193 416 193 416 179 345 c 1,36,37
 214 359 214 359 265 361.5 c 128,-1,38
 316 364 316 364 376 364 c 1,39,40
 431.154095702 575.161394972 431.154095702 575.161394972 478 679.5 c 0,41,42
 489 704 489 704 509 726.5 c 128,-1,43
 529 749 529 749 555 749 c 0,44,45
 568 749 568 749 568 726 c 128,-1,46
 568 703 568 703 563 666.5 c 128,-1,47
 558 630 558 630 550.5 582.5 c 128,-1,48
 543 535 543 535 533 479 c 128,-1,49
 523 423 523 423 514 363 c 1,50,51
 538 362 538 362 559 362 c 2,52,-1
 598 363 l 1,0,1
EndSplineSet
EndChar

StartChar: five
Encoding: 53 53 24
Width: 626
Flags: HW
LayerCount: 2
Fore
SplineSet
175 345 m 1,0,1
 131 359 131 359 122 389 c 1,2,3
 132 476 132 476 164 581 c 0,4,5
 174 615 174 615 188 644 c 1,6,7
 156 641 156 641 139 641 c 128,-1,8
 122 641 122 641 122 651 c 0,9,10
 122 669 122 669 142 689.5 c 128,-1,11
 162 710 162 710 198 728 c 0,12,13
 280 768 280 768 398 767 c 2,14,-1
 600 764 l 2,15,16
 616 764 616 764 616 745 c 0,17,18
 616 739 616 739 611 724 c 128,-1,19
 606 709 606 709 602 693 c 0,20,21
 594 660 594 660 568 660 c 1,22,-1
 416 667 l 1,23,24
 372 667 372 667 292 657 c 1,25,26
 282 615 282 615 267 565 c 128,-1,27
 252 515 252 515 236 452 c 1,28,29
 258 456 258 456 297.5 456 c 128,-1,30
 337 456 337 456 384.5 443.5 c 128,-1,31
 432 431 432 431 468 403 c 0,32,33
 547 342 547 342 547 221.5 c 0,34,35
 547 101 547 101 465 39.5 c 0,36,37
 383 -22 383 -22 250 -22 c 0,38,39
 157 -22 157 -22 85 32 c 0,40,41
 54 56 54 56 37 84 c 128,-1,42
 20 112 20 112 20 133.5 c 128,-1,43
 20 155 20 155 40 155 c 128,-1,44
 60 155 60 155 79 142.5 c 0,45,46
 98 130 98 130 120 114 c 0,47,48
 176 74 176 74 228 74 c 0,49,50
 306 74 306 74 343.5 112 c 128,-1,51
 381 150 381 150 381 209 c 0,52,53
 381 361 381 361 249 361 c 1,54,-1
 212 360 l 1,55,56
 201 345 201 345 175 345 c 1,0,1
EndSplineSet
EndChar

StartChar: six
Encoding: 54 54 25
Width: 714
Flags: HW
LayerCount: 2
Fore
SplineSet
40 252 m 0,0,1
 40 278 40 278 94 305 c 1,2,3
 95 382 95 382 120 462 c 128,-1,4
 145 542 145 542 192 606.5 c 128,-1,5
 239 671 239 671 306.5 712 c 128,-1,6
 374 753 374 753 459 753 c 0,7,8
 544 753 544 753 593 720.5 c 0,9,10
 642 688 642 688 641 650 c 0,11,12
 641 630 641 630 625 630 c 0,13,14
 616 630 616 630 564 644 c 0,15,16
 512 658 512 658 461.5 657.5 c 128,-1,17
 411 657 411 657 377.5 635.5 c 0,18,19
 344 614 344 614 319 580 c 0,20,21
 268 509 268 509 253 410 c 1,22,23
 342 450 342 450 444 450 c 0,24,25
 546 450 546 450 607.5 387 c 0,26,27
 669 324 669 324 669 238 c 0,28,29
 669 125 669 125 581 58 c 0,30,31
 493 -9 493 -9 358 -9 c 1,32,33
 258 -10 258 -10 184 53.5 c 0,34,35
 110 117 110 117 96 248 c 1,36,37
 74 238 74 238 57 238 c 128,-1,38
 40 238 40 238 40 252 c 0,0,1
502 324 m 128,-1,40
 469 358 469 358 396 358 c 128,-1,41
 323 358 323 358 247 320 c 1,42,43
 251 224 251 224 292.5 170.5 c 0,44,45
 334 117 334 117 396 116.5 c 0,46,47
 458 116 458 116 496.5 152.5 c 0,48,49
 535 189 535 189 535 239.5 c 128,-1,39
 535 290 535 290 502 324 c 128,-1,40
EndSplineSet
EndChar

StartChar: seven
Encoding: 55 55 26
Width: 599
Flags: HW
LayerCount: 2
Fore
SplineSet
527 446 m 1,0,1
 559 444 559 444 559 427.5 c 0,2,3
 559 419 559 419 554 404 c 128,-1,4
 549 389 549 389 545 373 c 0,5,6
 537 340 537 340 510 340 c 128,-1,7
 483 340 483 340 408 345 c 1,8,9
 341 120 341 120 341 23 c 0,10,11
 341 -5 341 -5 301 -5 c 0,12,13
 238 -5 238 -5 215 19.5 c 128,-1,14
 192 44 192 44 192 105.5 c 128,-1,15
 192 167 192 167 254 339 c 1,16,17
 203 334 203 334 155 327.5 c 128,-1,18
 107 321 107 321 78 321 c 0,19,20
 65 321 65 321 65 331 c 0,21,22
 66 368 66 368 132.5 399 c 128,-1,23
 199 430 199 430 294 443 c 1,24,25
 325 522 325 522 387 664 c 1,26,27
 357 667 357 667 324 667 c 0,28,29
 274.4 667 274.4 667 173.2 654 c 128,-1,30
 72 641 72 641 43 641 c 0,31,32
 30 641 30 641 30 651 c 0,33,34
 30 669 30 669 50 689.5 c 128,-1,35
 70 710 70 710 106 728 c 0,36,37
 188 768 188 768 306 767 c 2,38,-1
 508 764 l 2,39,40
 532 764 532 764 532 732 c 0,41,42
 532 713 532 713 524 692 c 128,-1,43
 516 671 516 671 505 664 c 1,44,-1
 438 446 l 1,45,46
 482.5 446 482.5 446 527 446 c 1,0,1
EndSplineSet
EndChar

StartChar: eight
Encoding: 56 56 27
Width: 603
Flags: HW
LayerCount: 2
Fore
SplineSet
442 394 m 1,0,1
 553 321.608695652 553 321.608695652 553 224.5 c 0,2,3
 553 121 553 121 482 50 c 1,4,5
 405 -24 405 -24 283 -25 c 0,6,7
 180 -26 180 -26 115 27 c 128,-1,8
 50 80 50 80 50 158 c 0,9,10
 50 292 50 292 168 358 c 0,11,12
 202 376 202 376 238 391 c 1,13,14
 173 430 173 430 152 454 c 0,15,16
 109 503 109 503 109 557 c 0,17,18
 109 654.428571429 109 654.428571429 166.5 703.714285714 c 128,-1,19
 224 753 224 753 323 753 c 1,20,21
 392 754 392 754 446 712 c 1,22,23
 500 672 500 672 499 625 c 0,24,25
 499 616 499 616 491 616 c 0,26,27
 468 616 468 616 416.5 636 c 128,-1,28
 365 656 365 656 320.5 656.5 c 128,-1,29
 276 657 276 657 251 636 c 128,-1,30
 226 615 226 615 226 585.5 c 0,31,32
 226 535.666666667 226 535.666666667 265 501 c 0,33,34
 291 478 291 478 356 443 c 1,35,36
 391 462 391 462 412.5 487 c 128,-1,37
 434 512 434 512 434 553 c 0,38,39
 434 565 434 565 427.5 576 c 128,-1,40
 421 587 421 587 421 597 c 128,-1,41
 421 607 421 607 428 607 c 0,42,43
 452 607 452 607 475 581 c 128,-1,44
 498 555 498 555 498 514 c 0,45,46
 498 434 498 434 442 394 c 1,0,1
364.5 129.5 m 128,-1,48
 393 156 393 156 393 203 c 0,49,50
 393 284 393 284 324 337 c 1,51,52
 267 311 267 311 246 287 c 0,53,54
 206 242 206 242 206 175 c 0,55,56
 206 144 206 144 228.5 123.5 c 128,-1,57
 251 103 251 103 293.5 103 c 128,-1,47
 336 103 336 103 364.5 129.5 c 128,-1,48
EndSplineSet
EndChar

StartChar: nine
Encoding: 57 57 28
Width: 692
Flags: HW
LayerCount: 2
Fore
SplineSet
589 526 m 1,0,1
 624.75 548 624.75 548 635 548 c 0,2,3
 652 548 652 548 652 530 c 0,4,5
 652 519 652 519 638 500 c 128,-1,6
 624 481 624 481 601 462 c 1,7,8
 605 422 605 422 605 377 c 128,-1,9
 605 332 605 332 600.5 282 c 0,10,11
 573.14 -22 573.14 -22 275 -22 c 0,12,13
 182 -22 182 -22 110 32 c 0,14,15
 79 56 79 56 62 84 c 128,-1,16
 45 112 45 112 45 133.5 c 128,-1,17
 45 155 45 155 65 155 c 128,-1,18
 85 155 85 155 104.5 142.5 c 128,-1,19
 124 130 124 130 146 114 c 0,20,21
 202 74 202 74 257.5 74 c 0,22,23
 364.051282051 74 364.051282051 74 412 159 c 1,24,25
 452 227 452 227 452 355 c 2,26,-1
 452 361 l 1,27,28
 378 324 378 324 285 324 c 128,-1,29
 192 324 192 324 131 377.5 c 128,-1,30
 70 431 70 431 70 526.5 c 128,-1,31
 70 622 70 622 149.5 687 c 128,-1,32
 229 752 229 752 336.5 752.5 c 0,33,34
 533.801533604 753.417681552 533.801533604 753.417681552 589 526 c 1,0,1
233.5 447.5 m 128,-1,36
 263 416 263 416 326 416 c 128,-1,37
 389 416 389 416 451 450 c 1,38,39
 446 540 446 540 421 587 c 0,40,41
 387 650 387 650 314 650 c 0,42,43
 273 650 273 650 238.5 612 c 128,-1,44
 204 574 204 574 204 526.5 c 128,-1,35
 204 479 204 479 233.5 447.5 c 128,-1,36
EndSplineSet
EndChar

StartChar: colon
Encoding: 58 58 29
Width: 469
Flags: HW
LayerCount: 2
Fore
SplineSet
212 492 m 128,-1,1
 259 492 259 492 299 458.5 c 128,-1,2
 339 425 339 425 359 374 c 1,3,4
 346 347 346 347 323.5 327 c 128,-1,5
 301 307 301 307 276 307 c 0,6,7
 232.166666667 307 232.166666667 307 198 348 c 0,8,9
 165 389 165 389 165 440.5 c 128,-1,0
 165 492 165 492 212 492 c 128,-1,1
210 122.5 m 128,-1,11
 250 156 250 156 297 156 c 128,-1,12
 344 156 344 156 344 104 c 128,-1,13
 344 52 344 52 310.5 11 c 128,-1,14
 277 -30 277 -30 243 -29 c 1,15,16
 183 -29 183 -29 150 38 c 1,17,10
 170 89 170 89 210 122.5 c 128,-1,11
EndSplineSet
EndChar

StartChar: semicolon
Encoding: 59 59 30
Width: 439
Flags: HW
LayerCount: 2
Fore
SplineSet
195 458.5 m 128,-1,1
 235 492 235 492 282 492 c 128,-1,2
 329 492 329 492 329 440 c 0,3,4
 329 388 329 388 295.5 347 c 0,5,6
 262 306 262 306 228 307 c 1,7,8
 168 307 168 307 135 374 c 1,9,0
 155 425 155 425 195 458.5 c 128,-1,1
173 -10 m 1,10,11
 139 12 139 12 139.5 58.5 c 0,12,13
 140 105 140 105 175 135 c 0,14,15
 210 165 210 165 258 165 c 0,16,17
 285 165 285 165 305.5 150 c 128,-1,18
 326 135 326 135 326 98.5 c 128,-1,19
 326 62 326 62 310.5 23.5 c 128,-1,20
 295 -15 295 -15 268.5 -47 c 128,-1,21
 242 -79 242 -79 207.5 -100 c 128,-1,22
 173 -121 173 -121 136 -121 c 0,23,24
 122 -121 122 -121 106 -115.5 c 128,-1,25
 90 -110 90 -110 90 -95 c 128,-1,26
 90 -80 90 -80 100.5 -72 c 128,-1,27
 111 -64 111 -64 125 -56.5 c 128,-1,28
 139 -49 139 -49 152.5 -39 c 128,-1,29
 166 -29 166 -29 173 -10 c 1,10,11
EndSplineSet
EndChar

StartChar: less
Encoding: 60 60 31
Width: 391
Flags: HW
LayerCount: 2
Fore
SplineSet
296 450 m 1,0,-1
 329 402 l 1,1,-1
 134 267 l 1,2,-1
 331 130 l 1,3,-1
 296 80 l 1,4,-1
 30 265 l 1,5,-1
 296 450 l 1,0,-1
EndSplineSet
EndChar

StartChar: equal
Encoding: 61 61 32
Width: 472
Flags: HW
LayerCount: 2
Fore
SplineSet
412 395 m 1,0,-1
 412 337 l 1,1,-1
 60 337 l 1,2,-1
 60 395 l 1,3,-1
 412 395 l 1,0,-1
412 235 m 1,4,-1
 412 177 l 1,5,-1
 60 177 l 1,6,-1
 60 235 l 1,7,-1
 412 235 l 1,4,-1
EndSplineSet
EndChar

StartChar: greater
Encoding: 62 62 33
Width: 391
Flags: HW
LayerCount: 2
Fore
SplineSet
95 80 m 1,0,-1
 62 128 l 1,1,-1
 256 263 l 1,2,-1
 60 400 l 1,3,-1
 95 450 l 1,4,-1
 361 265 l 1,5,-1
 95 80 l 1,0,-1
EndSplineSet
EndChar

StartChar: question
Encoding: 63 63 34
Width: 572
Flags: HW
LayerCount: 2
Fore
SplineSet
133 515 m 128,-1,1
 120 515 120 515 120 536 c 128,-1,2
 120 557 120 557 135 587.5 c 128,-1,3
 150 618 150 618 178 644 c 0,4,5
 244 706 244 706 348.5 706 c 128,-1,6
 453 706 453 706 512.5 660 c 128,-1,7
 572 614 572 614 572 533 c 128,-1,8
 572 452 572 452 553 407 c 128,-1,9
 534 362 534 362 505 335.5 c 128,-1,10
 476 309 476 309 443 294 c 128,-1,11
 410 279 410 279 381 264.5 c 128,-1,12
 352 250 352 250 333 229 c 128,-1,13
 314 208 314 208 314 170 c 0,14,15
 314 164 314 164 304.5 164 c 0,16,17
 285 164 285 164 263.5 177 c 128,-1,18
 242 190 242 190 242 211 c 0,19,20
 242 299 242 299 287 342 c 0,21,22
 306 360 306 360 328.5 372 c 128,-1,23
 351 384 351 384 370 400 c 0,24,25
 415 438 415 438 415 514 c 256,26,27
 415 560 415 560 389 585 c 128,-1,28
 363 610 363 610 324.5 610 c 128,-1,29
 286 610 286 610 262.5 603 c 128,-1,30
 239 596 239 596 223 585.5 c 128,-1,31
 207 575 207 575 196 562.5 c 128,-1,32
 185 550 185 550 175.5 539.5 c 128,-1,33
 166 529 166 529 156 522 c 128,-1,0
 146 515 146 515 133 515 c 128,-1,1
276.5 122 m 128,-1,35
 318 122 318 122 318 80 c 128,-1,36
 318 38 318 38 291.5 4 c 128,-1,37
 265 -30 265 -30 235.5 -29.5 c 128,-1,38
 206 -29 206 -29 185 -4.5 c 128,-1,39
 164 20 164 20 164.5 45 c 0,40,41
 165.353535354 87.6767676768 165.353535354 87.6767676768 200.176767677 104.838383838 c 128,-1,34
 235 122 235 122 276.5 122 c 128,-1,35
EndSplineSet
EndChar

StartChar: at
Encoding: 64 64 35
Width: 931
Flags: HW
LayerCount: 2
Fore
SplineSet
639 320 m 1,0,1
 639 199 639 199 659 199 c 0,2,3
 681 199 681 199 698.5 230 c 128,-1,4
 716 261 716 261 716 297 c 128,-1,5
 716 333 716 333 702 371 c 128,-1,6
 688 409 688 409 661 438 c 0,7,8
 601 502 601 502 502.5 502 c 128,-1,9
 404 502 404 502 323 428.5 c 128,-1,10
 242 355 242 355 242 245.5 c 128,-1,11
 242 136 242 136 328 61 c 128,-1,12
 414 -14 414 -14 523 -14 c 128,-1,13
 632 -14 632 -14 724 72 c 0,14,15
 748 94 748 94 766.5 113.5 c 0,16,17
 808.717948718 158 808.717948718 158 827.358974359 158 c 128,-1,18
 846 158 846 158 846 124 c 0,19,20
 846 73 846 73 816 33.5 c 128,-1,21
 786 -6 786 -6 738 -32 c 0,22,23
 638 -86 638 -86 502 -87 c 1,24,25
 334 -86 334 -86 225 4 c 1,26,27
 120 92.2 120 92.2 120 225 c 0,28,29
 120 296 120 296 156 360 c 128,-1,30
 192 424 192 424 251 468.5 c 128,-1,31
 310 513 310 513 387 536 c 128,-1,32
 464 559 464 559 527.5 559 c 0,33,34
 646.642857143 559 646.642857143 559 724 502 c 1,35,36
 810 437 810 437 809.5 338.5 c 128,-1,37
 809 240 809 240 748 167.5 c 128,-1,38
 687 95 687 95 609 95 c 0,39,40
 571 95 571 95 553 149 c 1,41,42
 514 82 514 82 433 82 c 0,43,44
 387 82 387 82 358 110 c 128,-1,45
 329 138 329 138 329 180.5 c 0,46,47
 329 266.304347826 329 266.304347826 379 333.652173913 c 128,-1,48
 429 401 429 401 511 401 c 0,49,50
 547 401 547 401 567 392 c 1,51,52
 585 422 585 422 606.5 422 c 128,-1,53
 628 422 628 422 645 404 c 128,-1,54
 662 386 662 386 662 369.5 c 128,-1,55
 662 353 662 353 653 340.5 c 128,-1,56
 644 328 644 328 639 320 c 1,0,1
434 168.5 m 0,57,58
 441 153 441 153 463 153 c 128,-1,59
 485 153 485 153 507 168.5 c 128,-1,60
 529 184 529 184 542 220 c 1,61,62
 540 238 540 238 540 254 c 2,63,-1
 540 287 l 2,64,65
 540 322 540 322 549 354 c 1,66,67
 468 332 468 332 438 260 c 1,68,69
 417.154302671 205.801186944 417.154302671 205.801186944 434 168.5 c 0,57,58
EndSplineSet
EndChar

StartChar: A
Encoding: 65 65 36
Width: 695
Flags: HW
LayerCount: 2
Fore
SplineSet
757.5 236 m 0,0,1
 775 236 775 236 775 190 c 0,2,3
 775 165 775 165 754 129.5 c 128,-1,4
 733 94 733 94 699.5 64.5 c 128,-1,5
 666 35 666 35 625 16 c 128,-1,6
 584 -3 584 -3 545 -3 c 0,7,8
 486 -3 486 -3 463.5 26.5 c 128,-1,9
 441 56 441 56 441 113.5 c 128,-1,10
 441 171 441 171 486 311 c 1,11,12
 348 317 348 317 285 317 c 2,13,-1
 271 317 l 1,14,15
 253 206 253 206 253 84 c 0,16,17
 253 30 253 30 212 10 c 0,18,19
 193 1 193 1 175.5 -7 c 128,-1,20
 158 -15 158 -15 138 -15 c 0,21,22
 88 -15 88 -15 88 75 c 128,-1,23
 88 165 88 165 129 306 c 1,24,25
 85 301 85 301 51.5 296 c 128,-1,26
 18 291 18 291 -1 291 c 128,-1,27
 -20 291 -20 291 -20 301 c 0,28,29
 -20 331 -20 331 29 362 c 0,30,31
 79 393 79 393 164 409 c 1,32,33
 258 648 258 648 394 728 c 0,34,35
 444 758 444 758 499.5 757.5 c 0,36,37
 600.113128492 756.593575419 600.113128492 756.593575419 644.556564246 703.796787709 c 128,-1,38
 689 651 689 651 689.5 563.5 c 128,-1,39
 690 476 690 476 636 336 c 0,40,41
 616 282 616 282 599 238 c 128,-1,42
 582 194 582 194 582 167 c 128,-1,43
 582 140 582 140 586 126 c 128,-1,44
 590 112 590 112 605 112 c 256,45,46
 632 112 632 112 732 216 c 0,47,48
 750 236 750 236 757.5 236 c 0,0,1
545 533.5 m 0,49,50
 545 621 545 621 480 621 c 0,51,52
 414.285714286 621 414.285714286 621 366.642857143 565.5 c 128,-1,53
 319 510 319 510 293 417 c 1,54,-1
 520 414 l 1,55,56
 545 494 545 494 545 533.5 c 0,49,50
EndSplineSet
EndChar

StartChar: B
Encoding: 66 66 37
Width: 708
Flags: HW
LayerCount: 2
Fore
SplineSet
407.5 351 m 0,0,1
 311.185185185 351 311.185185185 351 313 400 c 1,2,3
 313 446 313 446 406 446 c 0,4,5
 428 446 428 446 448 441 c 1,6,7
 481 474 481 474 481 541 c 0,8,9
 481 657 481 657 326 657 c 0,10,11
 245 657 245 657 172 622 c 0,12,13
 145 609 145 609 123.5 598 c 128,-1,14
 102 587 102 587 84 587 c 128,-1,15
 66 587 66 587 66 598 c 0,16,17
 66 611 66 611 86 636.5 c 128,-1,18
 106 662 106 662 142 688 c 0,19,20
 234 752 234 752 351 753 c 1,21,22
 504 753 504 753 576 692 c 1,23,24
 638 641 638 641 638 553 c 0,25,26
 638 451 638 451 538 397 c 1,27,28
 634 342 634 342 652 262 c 0,29,30
 658 234 658 234 658 188 c 128,-1,31
 658 142 658 142 633 101 c 128,-1,32
 608 60 608 60 566 32 c 0,33,34
 482 -22 482 -22 351 -22 c 0,35,36
 258 -22 258 -22 144 20 c 0,37,38
 68 48 68 48 32 87 c 0,39,40
 14 106 14 106 14.5 125 c 128,-1,41
 15 144 15 144 33.5 144 c 128,-1,42
 52 144 52 144 104 131 c 1,43,-1
 104 132 l 2,44,45
 104 210 104 210 122 292 c 0,46,47
 153.304347826 434.608695652 153.304347826 434.608695652 194 516 c 0,48,49
 238 606 238 606 285 606 c 0,50,51
 298 606 298 606 298 561 c 128,-1,52
 298 516 298 516 289.5 469 c 128,-1,53
 281 422 281 422 271.5 376.5 c 128,-1,54
 262 331 262 331 253.5 294 c 128,-1,55
 245 257 245 257 245 241 c 1,56,-1
 235 90 l 1,57,58
 294 74 294 74 335 74 c 128,-1,59
 376 74 376 74 409 88 c 0,60,61
 492 123.212121212 492 123.212121212 492 209.5 c 0,62,63
 492 262 492 262 482 296 c 128,-1,64
 472 330 472 330 446 356 c 1,65,66
 423 351 423 351 407.5 351 c 0,0,1
EndSplineSet
EndChar

StartChar: C
Encoding: 67 67 38
Width: 549
Flags: HW
LayerCount: 2
Fore
SplineSet
532 162 m 0,0,1
 558 181 558 181 579 208.5 c 128,-1,2
 600 236 600 236 614.5 236 c 128,-1,3
 629 236 629 236 629 192.5 c 128,-1,4
 629 149 629 149 604.5 110.5 c 0,5,6
 580 72 580 72 540 46 c 0,7,8
 458 -8 458 -8 346 -8 c 0,9,10
 210 -8 210 -8 135 60 c 128,-1,11
 60 128 60 128 60 249 c 0,12,13
 60 398 60 398 132 532 c 0,14,15
 156 576 156 576 186 613 c 1,16,17
 163 640 163 640 149.5 669.5 c 128,-1,18
 136 699 136 699 136 714 c 0,19,20
 136 741 136 741 156 741 c 1,21,22
 170 740 170 740 188 722 c 2,23,-1
 219 692 l 2,24,25
 231 680 231 680 244 672 c 1,26,27
 343 756 343 756 457.5 756 c 0,28,29
 572 756 572 756 606 692 c 0,30,31
 618 668 618 668 618 633 c 0,32,33
 618 580 618 580 572 544 c 128,-1,34
 526 508 526 508 448.5 508 c 128,-1,35
 371 508 371 508 288 540 c 1,36,37
 217 419 217 419 217 287 c 0,38,39
 217 104 217 104 363 104 c 0,40,41
 453 104 453 104 532 162 c 0,0,1
336 602 m 1,42,43
 387 585 387 585 447 585 c 128,-1,44
 507 585 507 585 507 618 c 0,45,46
 507 657 507 657 458 657 c 0,47,48
 391 657 391 657 336 602 c 1,42,43
EndSplineSet
EndChar

StartChar: D
Encoding: 68 68 39
Width: 770
Flags: HW
LayerCount: 2
Fore
SplineSet
31 185 m 128,-1,1
 47 185 47 185 130 163 c 1,2,3
 149 327 149 327 237 519 c 0,4,5
 268 589 268 589 311 589 c 0,6,7
 319 589 319 589 326.5 572 c 128,-1,8
 334 555 334 555 334 530 c 0,9,10
 334 500 334 500 302.5 365 c 128,-1,11
 271 230 271 230 261 130 c 1,12,13
 327 115 327 115 377.5 115 c 128,-1,14
 428 115 428 115 470 141.5 c 128,-1,15
 512 168 512 168 542 210 c 0,16,17
 604 299 604 299 603.5 424 c 0,18,19
 602.576 655 602.576 655 420 655 c 1,20,21
 355.305410122 653.823734729 355.305410122 653.823734729 190 597 c 0,22,23
 158 586 158 586 134 586 c 128,-1,24
 110 586 110 586 110 600 c 0,25,26
 110 619 110 619 138 645 c 128,-1,27
 166 671 166 671 210 695 c 0,28,29
 318 753 318 753 420 753 c 0,30,31
 560 753 560 753 650 678 c 0,32,33
 756 589 756 589 755 408 c 0,34,35
 755 331 755 331 731 256 c 128,-1,36
 707 181 707 181 658 122.5 c 128,-1,37
 609 64 609 64 534 28 c 128,-1,38
 459 -8 459 -8 357 -8 c 0,39,40
 316 -8 316 -8 253 10 c 1,41,42
 246 -9 246 -9 217.5 -9 c 0,43,44
 166 -9 166 -9 147.5 8.5 c 128,-1,45
 129 26 129 26 126 66 c 1,46,47
 78 93 78 93 46.5 122 c 128,-1,48
 15 151 15 151 15 173 c 0,49,0
 15 185 15 185 31 185 c 128,-1,1
EndSplineSet
EndChar

StartChar: E
Encoding: 69 69 40
Width: 529
Flags: HW
LayerCount: 2
Fore
SplineSet
328 446 m 0,0,1
 415 446 415 446 415 402 c 0,2,3
 415 351 415 351 315 351 c 0,4,5
 293 351 293 351 267 359 c 1,6,7
 238 339 238 339 222.5 309 c 128,-1,8
 207 279 207 279 207 222.5 c 128,-1,9
 207 166 207 166 251.5 139 c 128,-1,10
 296 112 296 112 356.5 112 c 128,-1,11
 417 112 417 112 454.5 131.5 c 128,-1,12
 492 151 492 151 520 174 c 128,-1,13
 548 197 548 197 565.5 216.5 c 128,-1,14
 583 236 583 236 591 236 c 256,15,16
 599 236 599 236 604 225.5 c 128,-1,17
 609 215 609 215 609 198 c 0,18,19
 609 118 609 118 520.5 57.5 c 128,-1,20
 432 -3 432 -3 309 -3 c 0,21,22
 117 -3 117 -3 60 108 c 0,23,24
 40 147 40 147 40 202 c 0,25,26
 40 345 40 345 183 402 c 1,27,28
 110 453 110 453 110 556 c 0,29,30
 110 605 110 605 137 647 c 1,31,32
 112 675 112 675 96.5 706 c 128,-1,33
 81 737 81 737 81 753 c 0,34,35
 81 781 81 781 101 781 c 0,36,37
 115 781 115 781 135.5 759.5 c 128,-1,38
 156 738 156 738 169 725 c 128,-1,39
 182 712 182 712 196 704 c 1,40,41
 281 756 281 756 396 756 c 128,-1,42
 511 756 511 756 549 692 c 0,43,44
 563 668 563 668 563 633 c 0,45,46
 563 580 563 580 517 544 c 128,-1,47
 471 508 471 508 396 508 c 128,-1,48
 321 508 321 508 256 556 c 1,49,50
 255 552 255 552 255 548 c 2,51,-1
 255 526 l 2,52,53
 255 508 255 508 266.5 483.5 c 128,-1,54
 278 459 278 459 295 443 c 1,55,56
 310 446 310 446 328 446 c 0,0,1
452 618 m 0,57,58
 452 657 452 657 388 657 c 128,-1,59
 324 657 324 657 285 618 c 1,60,61
 339 585 339 585 395.5 585 c 128,-1,62
 452 585 452 585 452 618 c 0,57,58
EndSplineSet
EndChar

StartChar: F
Encoding: 70 70 41
Width: 570
Flags: HW
LayerCount: 2
Fore
SplineSet
146 329 m 1,0,1
 88 321 88 321 50 321 c 0,2,3
 37 321 37 321 37 331 c 0,4,5
 37 354 37 354 68.5 379.5 c 128,-1,6
 100 405 100 405 171 424 c 1,7,8
 203 538 203 538 244 633 c 1,9,10
 144 628 144 628 80 567 c 0,11,12
 64 551 64 551 54 542 c 128,-1,13
 44 533 44 533 36.5 533 c 128,-1,14
 29 533 29 533 22 545 c 128,-1,15
 15 557 15 557 15 577 c 0,16,17
 16 654 16 654 119 702 c 0,18,19
 222 750 222 750 373 749 c 1,20,-1
 673 744 l 2,21,22
 700 744 700 744 700 723 c 0,23,24
 700 717 700 717 692 701.5 c 0,25,26
 684 686 684 686 678 668 c 0,27,28
 665 632 665 632 622 632 c 2,29,-1
 590 632 l 1,30,-1
 457 633 l 1,31,-1
 380 633 l 1,32,33
 372 576 372 576 332 447 c 1,34,-1
 515 444 l 2,35,36
 531 444 531 444 531 425 c 0,37,38
 531 419 531 419 526 404 c 128,-1,39
 521 389 521 389 517 373 c 0,40,41
 509 340 509 340 483 340 c 1,42,-1
 331 347 l 1,43,-1
 318 347 l 2,44,45
 312 347 312 347 304 346 c 1,46,47
 252 155 252 155 252 44 c 0,48,49
 252 -15 252 -15 137 -15 c 0,50,51
 112 -15 112 -15 107.5 10.5 c 128,-1,52
 103 36 103 36 103 78 c 0,53,54
 103 168 103 168 146 329 c 1,0,1
EndSplineSet
EndChar

StartChar: G
Encoding: 71 71 42
Width: 672
Flags: HW
LayerCount: 2
Fore
SplineSet
257 471 m 1,0,1
 217 373 217 373 217 288.5 c 128,-1,2
 217 204 217 204 251.5 164 c 128,-1,3
 286 124 286 124 363 124 c 0,4,5
 409 124 409 124 444 157 c 1,6,7
 455 239 455 239 462 266 c 0,8,9
 479 332 479 332 514 332 c 0,10,11
 542 332 542 332 567 293.5 c 128,-1,12
 592 255 592 255 591 228 c 1,13,14
 591 183 591 183 555 61 c 1,15,16
 625.447976879 114.106936416 625.447976879 114.106936416 715.5 217.5 c 0,17,18
 729 233 729 233 738 233 c 0,19,20
 752 233 752 233 752 200.5 c 0,21,22
 752 136.4 752 136.4 688 63.7 c 128,-1,23
 624 -9 624 -9 518 -52 c 1,24,25
 510 -71 510 -71 505 -88 c 128,-1,26
 500 -105 500 -105 492 -129 c 128,-1,27
 484 -153 484 -153 464 -181.5 c 128,-1,28
 444 -210 444 -210 414 -230 c 0,29,30
 350 -274 350 -274 267.5 -274 c 128,-1,31
 185 -274 185 -274 129.5 -237.5 c 128,-1,32
 74 -201 74 -201 74 -137 c 0,33,34
 74 -106 74 -106 104 -86 c 128,-1,35
 134 -66 134 -66 182 -51.5 c 128,-1,36
 230 -37 230 -37 290 -26 c 128,-1,37
 350 -15 350 -15 410 -1 c 1,38,39
 418 22 418 22 422 42 c 1,40,41
 383 12 383 12 326.5 12 c 0,42,43
 206.846153846 12 206.846153846 12 139 61 c 0,44,45
 60 118 60 118 60 239 c 0,46,47
 60 397 60 397 140 539 c 1,48,49
 116 567 116 567 101 597.5 c 128,-1,50
 86 628 86 628 86 644 c 0,51,52
 86 672 86 672 106 671 c 0,53,54
 119 671 119 671 136 655 c 128,-1,55
 153 639 153 639 163.5 628 c 128,-1,56
 174 617 174 617 186 608 c 1,57,58
 238 674 238 674 308 715 c 128,-1,59
 378 756 378 756 462 756 c 128,-1,60
 546 756 546 756 593 725 c 128,-1,61
 640 694 640 694 640 617 c 128,-1,62
 640 540 640 540 580.5 489 c 128,-1,63
 521 438 521 438 415 438 c 0,64,65
 342 438 342 438 257 471 c 1,0,1
290 539 m 1,66,67
 345 515 345 515 423 515 c 0,68,69
 471 515 471 515 500 541 c 128,-1,70
 529 567 529 567 529 597.5 c 128,-1,71
 529 628 529 628 509.5 642.5 c 128,-1,72
 490 657 490 657 458 657 c 0,73,74
 362 657 362 657 290 539 c 1,66,67
256 -197 m 1,75,76
 324 -197 324 -197 375 -95 c 1,77,78
 320 -109 320 -109 282 -117 c 128,-1,79
 244 -125 244 -125 220.5 -131 c 128,-1,80
 197 -137 197 -137 186.5 -143 c 128,-1,81
 176 -149 176 -149 176 -159.5 c 0,82,83
 176 -178.666666667 176 -178.666666667 201.5 -187.333333333 c 128,-1,84
 227 -196 227 -196 256 -197 c 1,75,76
EndSplineSet
EndChar

StartChar: H
Encoding: 72 72 43
Width: 716
Flags: HW
LayerCount: 2
Fore
SplineSet
326 417 m 1,0,1
 432 417 432 417 522 415 c 1,2,3
 569 605 569 605 614 679 c 1,4,5
 644 722 644 722 674 741 c 0,6,7
 686 749 686 749 698.5 749 c 128,-1,8
 711 749 711 749 711 710 c 128,-1,9
 711 671 711 671 704.5 628 c 128,-1,10
 698 585 698 585 688 529 c 0,11,12
 655.2 345.32 655.2 345.32 638.6 235.16 c 128,-1,13
 622 125 622 125 622 23 c 0,14,15
 622 -5 622 -5 582 -5 c 0,16,17
 519 -5 519 -5 496 19.5 c 128,-1,18
 473 44 473 44 473 108.5 c 128,-1,19
 473 173 473 173 499 312 c 1,20,21
 389 317 389 317 360 317 c 2,22,-1
 319 317 l 2,23,24
 308 317 308 317 297 316 c 1,25,26
 252 144 252 144 252 44 c 0,27,28
 252 -15 252 -15 137 -15 c 0,29,30
 112 -15 112 -15 107.5 10.5 c 128,-1,31
 103 36 103 36 103 93.5 c 128,-1,32
 103 151 103 151 139 300 c 1,33,34
 78 291 78 291 50 291 c 0,35,36
 37 291 37 291 37 301 c 0,37,38
 37 323 37 323 69.5 351 c 128,-1,39
 102 379 102 379 165 396 c 1,40,41
 202 524 202 524 239 606 c 1,42,43
 131 604 131 604 80 564 c 0,44,45
 64 552 64 552 54 542.5 c 128,-1,46
 44 533 44 533 36.5 533 c 128,-1,47
 29 533 29 533 22 545 c 128,-1,48
 15 557 15 557 15 577 c 0,49,50
 15 650 15 650 138 688 c 0,51,52
 236 718 236 718 366 719 c 1,53,-1
 368 719 l 2,54,55
 375 719 375 719 387.5 711 c 128,-1,56
 400 703 400 703 400 685 c 128,-1,57
 400 667 400 667 393.5 644.5 c 128,-1,58
 387 622 387 622 376 611 c 1,59,60
 370 564 370 564 326 417 c 1,0,1
EndSplineSet
EndChar

StartChar: I
Encoding: 73 73 44
Width: 328
Flags: HW
LayerCount: 2
Fore
SplineSet
214 23 m 0,0,1
 214 -5 214 -5 174 -5 c 0,2,3
 111 -5 111 -5 88 19.5 c 128,-1,4
 65 44 65 44 65 102 c 0,5,6
 66 192 66 192 114.5 390 c 128,-1,7
 163 588 163 588 206 684 c 0,8,9
 217 709 217 709 237 731.5 c 128,-1,10
 257 754 257 754 290 754 c 0,11,12
 304 754 304 754 313.5 737 c 128,-1,13
 323 720 323 720 323 698 c 128,-1,14
 323 676 323 676 315 632.5 c 128,-1,15
 307 589 307 589 295 533 c 128,-1,16
 283 477 283 477 268.5 411.5 c 0,17,18
 214 165.310344828 214 165.310344828 214 23 c 0,0,1
EndSplineSet
EndChar

StartChar: J
Encoding: 74 74 45
Width: 470
Flags: HW
LayerCount: 2
Fore
SplineSet
308 607 m 1,0,1
 267 632 267 632 228 632 c 0,2,3
 165 632 165 632 90 612 c 1,4,-1
 36 599 l 2,5,6
 12 593 12 593 -1 593 c 0,7,8
 -31 593 -31 593 -31 615 c 0,9,10
 -31 628 -31 628 -9.5 647.5 c 128,-1,11
 12 667 12 667 48 685 c 0,12,13
 137 729 137 729 241 729 c 0,14,15
 390 729 390 729 432 678 c 0,16,17
 444 664 444 664 443.5 639 c 0,18,19
 441.552176918 541.608845888 441.552176918 541.608845888 354 123 c 1,20,21
 472 171 472 171 498.5 202 c 128,-1,22
 525 233 525 233 540 233 c 128,-1,23
 555 233 555 233 555 202 c 128,-1,24
 555 171 555 171 536.5 148 c 128,-1,25
 518 125 518 125 478.5 96 c 128,-1,26
 439 67 439 67 334 22 c 1,27,28
 326 -18 326 -18 304 -67 c 1,29,30
 228.727272727 -274 228.727272727 -274 59 -274 c 0,31,32
 -24 -274 -24 -274 -82 -238 c 128,-1,33
 -140 -202 -140 -202 -140 -127 c 0,34,35
 -140 -100 -140 -100 -112.5 -76 c 128,-1,36
 -85 -52 -85 -52 -32.5 -25.5 c 128,-1,37
 20 1 20 1 172 55 c 1,38,39
 178 90 178 90 182 120.5 c 128,-1,40
 186 151 186 151 191 173 c 1,41,42
 212 316 212 316 274 510 c 0,43,44
 292 565 292 565 308 607 c 1,0,1
49 -196.5 m 128,-1,46
 76 -197 76 -197 90 -184.5 c 128,-1,47
 104 -172 104 -172 120.5 -144 c 128,-1,48
 137 -116 137 -116 153 -46 c 1,49,50
 101 -64 101 -64 64.5 -76 c 128,-1,51
 28 -88 28 -88 5.5 -98 c 128,-1,52
 -17 -108 -17 -108 -27.5 -117 c 128,-1,53
 -38 -126 -38 -126 -38 -139 c 256,54,55
 -38 -164 -38 -164 -8 -180 c 128,-1,45
 22 -196 22 -196 49 -196.5 c 128,-1,46
EndSplineSet
EndChar

StartChar: K
Encoding: 75 75 46
Width: 679
Flags: HW
LayerCount: 2
Fore
SplineSet
248 44 m 0,0,1
 248 -15 248 -15 133 -15 c 0,2,3
 108 -15 108 -15 103.5 10.5 c 128,-1,4
 99 36 99 36 99 79.5 c 0,5,6
 99 165.5 99 165.5 144 334.75 c 128,-1,7
 189 504 189 504 235 606 c 1,8,9
 128 604 128 604 75 564 c 0,10,11
 59 552 59 552 49 542.5 c 128,-1,12
 39 533 39 533 31.5 533 c 128,-1,13
 24 533 24 533 17 544.5 c 128,-1,14
 10 556 10 556 10 572 c 0,15,16
 10 627 10 627 59 657 c 0,17,18
 129 699 129 699 258 713 c 0,19,20
 315 719 315 719 362 719 c 2,21,-1
 364 719 l 2,22,23
 371 719 371 719 383.5 711 c 128,-1,24
 396 703 396 703 396 685 c 128,-1,25
 396 667 396 667 389.5 644.5 c 128,-1,26
 383 622 383 622 372 611 c 1,27,28
 366 563 366 563 346 496 c 128,-1,29
 326 429 326 429 304 353 c 0,30,31
 248 157 248 157 248 44 c 0,0,1
741.5 236 m 0,32,33
 759 236 759 236 759 190 c 0,34,35
 759 165 759 165 738 129.5 c 128,-1,36
 717 94 717 94 683.5 64.5 c 128,-1,37
 650 35 650 35 609 16 c 128,-1,38
 568 -3 568 -3 531 -3 c 128,-1,39
 494 -3 494 -3 473 11 c 128,-1,40
 452 25 452 25 440 49 c 0,41,42
 423.074074074 82.8518518519 423.074074074 82.8518518519 412.037037037 178.425925926 c 128,-1,43
 401 274 401 274 390 312 c 1,44,45
 364 317 364 317 344.5 332.5 c 128,-1,46
 325 348 325 348 325 370.5 c 128,-1,47
 325 393 325 393 345.5 403 c 128,-1,48
 366 413 366 413 392 413 c 128,-1,49
 418 413 418 413 438 401 c 1,50,51
 492 459 492 459 536 553 c 0,52,53
 556 596 556 596 574.5 641.5 c 128,-1,54
 593 687 593 687 613 735 c 0,55,56
 618 747 618 747 634.5 749.5 c 128,-1,57
 651 752 651 752 678 752 c 128,-1,58
 705 752 705 752 716 734.5 c 128,-1,59
 727 717 727 717 727 677.5 c 128,-1,60
 727 638 727 638 706 587 c 128,-1,61
 685 536 685 536 652 488 c 0,62,63
 583 387 583 387 493 336 c 1,64,65
 509 303 509 303 519 263.5 c 128,-1,66
 529 224 529 224 538 190.5 c 128,-1,67
 547 157 547 157 558.5 134.5 c 128,-1,68
 570 112 570 112 587 112 c 128,-1,69
 604 112 604 112 627.5 131.5 c 128,-1,70
 651 151 651 151 674 174 c 128,-1,71
 697 197 697 197 715.5 216.5 c 128,-1,72
 734 236 734 236 741.5 236 c 0,32,33
EndSplineSet
EndChar

StartChar: L
Encoding: 76 76 47
Width: 592
Flags: HW
LayerCount: 2
Fore
SplineSet
654 236 m 0,0,1
 669 236 669 236 669 202 c 0,2,3
 669 131 669 131 603 64.5 c 128,-1,4
 537 -2 537 -2 442 -3 c 0,5,6
 375 -3 375 -3 287 50 c 1,7,8
 224 -17 224 -17 130 -17 c 0,9,10
 68 -17 68 -17 39 14 c 128,-1,11
 10 45 10 45 10 96 c 128,-1,12
 10 147 10 147 47.5 172.5 c 128,-1,13
 85 198 85 198 143 198 c 0,14,15
 174 198 174 198 201 195 c 1,16,17
 201 317 201 317 228 433 c 1,18,19
 195 450 195 450 171.5 471 c 128,-1,20
 148 492 148 492 148 504 c 0,21,22
 148 536 148 536 162 536 c 0,23,24
 182 536 182 536 203.5 524.5 c 128,-1,25
 225 513 225 513 250 507 c 1,26,27
 312 686 312 686 420 738 c 0,28,29
 458 756 458 756 500 756 c 0,30,31
 658 756 658 756 658 623 c 0,32,33
 658 547 658 547 601 492 c 0,34,35
 522 416 522 416 361 412 c 1,36,37
 350 328 350 328 350 213 c 0,38,39
 350 185 350 185 343 150 c 1,40,41
 378 132 378 132 411 117 c 128,-1,42
 444 102 444 102 492 102 c 0,43,44
 517 102 517 102 541.5 123 c 128,-1,45
 566 144 566 144 587.5 169 c 128,-1,46
 609 194 609 194 626 215 c 128,-1,47
 643 236 643 236 654 236 c 0,0,1
498 658 m 0,48,49
 414 658 414 658 376 498 c 1,50,51
 448 504 448 504 497.5 538.5 c 128,-1,52
 547 573 547 573 547 608 c 0,53,54
 547 658 547 658 498 658 c 0,48,49
107 89 m 257,55,56
 108 61 108 61 146 61 c 128,-1,57
 184 61 184 61 194 105 c 1,58,59
 166 119 166 119 148 119 c 0,60,61
 108 119 108 119 107 89 c 257,55,56
EndSplineSet
EndChar

StartChar: M
Encoding: 77 77 48
Width: 951
Flags: HW
LayerCount: 2
Fore
SplineSet
1013.5 236 m 0,0,1
 1031 236 1031 236 1031 190 c 0,2,3
 1031 165 1031 165 1010 129.5 c 128,-1,4
 989 94 989 94 955.5 64.5 c 128,-1,5
 922 35 922 35 881 16 c 128,-1,6
 840 -3 840 -3 794.5 -3 c 128,-1,7
 749 -3 749 -3 723.5 26.5 c 128,-1,8
 698 56 698 56 698 92.5 c 128,-1,9
 698 129 698 129 710 175 c 128,-1,10
 722 221 722 221 736 271 c 0,11,12
 774 404 774 404 775 458 c 0,13,14
 775 481 775 481 769 493.5 c 128,-1,15
 763 506 763 506 746 506 c 0,16,17
 716 506 716 506 682 470 c 128,-1,18
 648 434 648 434 618 378 c 0,19,20
 549 250 549 250 545 128 c 1,21,22
 547 114 547 114 549 100 c 128,-1,23
 551 86 551 86 551 70 c 0,24,25
 551 38.2857142857 551 38.2857142857 519.5 11.6428571429 c 128,-1,26
 488 -15 488 -15 449 -15 c 0,27,28
 426 -15 426 -15 415 7.5 c 128,-1,29
 404 30 404 30 404 63 c 256,30,31
 404 96 404 96 419 153 c 128,-1,32
 434 210 434 210 452 274 c 0,33,34
 500 443 500 443 501 526 c 0,35,36
 501 568 501 568 490.5 592 c 128,-1,37
 480 616 480 616 450 616 c 256,38,39
 396 616 396 616 343 539 c 128,-1,40
 290 462 290 462 248 300 c 0,41,42
 237 258 237 258 231 227 c 1,43,-1
 230 208 l 1,44,45
 249 116 249 116 249 88 c 0,46,47
 249 30 249 30 208 10 c 0,48,49
 189 1 189 1 171.5 -7 c 128,-1,50
 154 -15 154 -15 134 -15 c 0,51,52
 84 -15 84 -15 84 80.5 c 128,-1,53
 84 176 84 176 137 454 c 0,54,55
 156 554 156 554 156 566 c 0,56,57
 156 647 156 647 115 647 c 0,58,59
 101 647 101 647 89.5 639 c 128,-1,60
 78 631 78 631 66.5 622 c 128,-1,61
 55 613 55 613 43 605 c 128,-1,62
 31 597 31 597 15.5 597 c 128,-1,63
 0 597 0 597 0 624.5 c 0,64,65
 0 678.52173913 0 678.52173913 51 714 c 1,66,67
 100 750 100 750 170 750 c 256,68,69
 260 750 260 750 276 666 c 0,70,71
 280 641 280 641 282 613 c 1,72,73
 356 752 356 752 469 752 c 0,74,75
 592 752 592 752 610 634 c 0,76,77
 616 600 616 600 615 561 c 1,78,-1
 615 553 l 1,79,80
 680 643 680 643 769 643 c 0,81,82
 895 643 895 643 895 491 c 0,83,84
 895 425 895 425 874.5 336.5 c 128,-1,85
 854 248 854 248 844.5 209.5 c 128,-1,86
 835 171 835 171 835 150 c 0,87,88
 835 112 835 112 861.5 112 c 128,-1,89
 888 112 888 112 988 216 c 0,90,91
 1006 236 1006 236 1013.5 236 c 0,0,1
EndSplineSet
EndChar

StartChar: N
Encoding: 78 78 49
Width: 691
Flags: HW
LayerCount: 2
Fore
SplineSet
578 164 m 0,0,1
 578 112 578 112 601 112 c 0,2,3
 626 112 626 112 688 174 c 0,4,5
 704 190 704 190 722 213 c 128,-1,6
 740 236 740 236 750 236 c 0,7,8
 770 236 770 236 770.5 200.5 c 128,-1,9
 771 165 771 165 750 129.5 c 128,-1,10
 729 94 729 94 695.5 64.5 c 128,-1,11
 662 35 662 35 621 16 c 128,-1,12
 580 -3 580 -3 541 -3 c 0,13,14
 482 -3 482 -3 459.5 26.5 c 128,-1,15
 437 56 437 56 437 95 c 128,-1,16
 437 134 437 134 444.5 171.5 c 0,17,18
 456.5 231.5 456.5 231.5 514 404 c 0,19,20
 541 486 541 486 541 527 c 128,-1,21
 541 568 541 568 525.5 592 c 128,-1,22
 510 616 510 616 478.5 616 c 128,-1,23
 447 616 447 616 417 594.5 c 128,-1,24
 387 573 387 573 361 538.5 c 0,25,26
 314.438884331 476.716981132 314.438884331 476.716981132 277.719442166 378.358490566 c 128,-1,27
 241 280 241 280 230 208 c 1,28,29
 249 116 249 116 249 88 c 0,30,31
 249 30 249 30 208 10 c 0,32,33
 189 1 189 1 171.5 -7 c 128,-1,34
 154 -15 154 -15 134 -15 c 0,35,36
 84 -15 84 -15 84 80.5 c 128,-1,37
 84 176 84 176 137 454 c 0,38,39
 156 554 156 554 156 566 c 0,40,41
 156 647 156 647 115 647 c 0,42,43
 101 647 101 647 89.5 639 c 128,-1,44
 78 631 78 631 66.5 622 c 128,-1,45
 55 613 55 613 43 605 c 128,-1,46
 31 597 31 597 15.5 597 c 128,-1,47
 0 597 0 597 0 624.5 c 0,48,49
 0 678.52173913 0 678.52173913 51 714 c 1,50,51
 100 750 100 750 170 750 c 0,52,53
 268 750 268 750 280 654 c 0,54,55
 284 626 284 626 283 593 c 1,56,-1
 283 586 l 1,57,58
 321 659 321 659 374.5 705.5 c 128,-1,59
 428 752 428 752 499 752 c 0,60,61
 597 752 597 752 641 699.5 c 0,62,63
 733.365574328 589.291076086 733.365574328 589.291076086 632 334 c 0,64,65
 612 282 612 282 595 238 c 128,-1,66
 578 194 578 194 578 164 c 0,0,1
EndSplineSet
EndChar

StartChar: O
Encoding: 79 79 50
Width: 849
Flags: HW
LayerCount: 2
Fore
SplineSet
697 650 m 0,0,1
 697 639 697 639 667 639 c 0,2,3
 656 639 656 639 638 642 c 0,4,5
 620 645 620 645 571 651 c 0,6,7
 522 657 522 657 466.5 657 c 128,-1,8
 411 657 411 657 366 627.5 c 128,-1,9
 321 598 321 598 290.5 552 c 128,-1,10
 260 506 260 506 243.5 449 c 128,-1,11
 227 392 227 392 227 337 c 0,12,13
 227 237 227 237 273 181 c 128,-1,14
 319 125 319 125 401 125 c 0,15,16
 549 125 549 125 628 230 c 0,17,18
 652 262 652 262 667 301 c 1,19,20
 594 310 594 310 555 355.5 c 128,-1,21
 516 401 516 401 516 467.5 c 0,22,23
 516 534 516 534 553 573 c 0,24,25
 590 612 590 612 652.5 612 c 0,26,27
 715 612 715 612 748.5 564.5 c 0,28,29
 782 517 782 517 782 445 c 0,30,31
 782 420 782 420 780 398 c 1,32,33
 798 406 798 406 810 415 c 0,34,35
 822 424 822 424 834 424 c 0,36,37
 854 424 854 424 854 407 c 0,38,39
 854 372 854 372 830.5 346.5 c 128,-1,40
 807 321 807 321 768 308 c 1,41,42
 738 162 738 162 640.5 77 c 0,43,44
 543 -8 543 -8 388 -8 c 0,45,46
 233 -8 233 -8 146 86 c 0,47,48
 70 169 70 169 70 299 c 0,49,50
 70 387 70 387 98.5 469 c 128,-1,51
 127 551 127 551 179.5 614 c 128,-1,52
 232 677 232 677 307 715 c 128,-1,53
 382 753 382 753 475.5 753 c 0,54,55
 569 753 569 753 633 720 c 0,56,57
 697 687 697 687 697 650 c 0,0,1
665 524 m 0,58,59
 644 524 644 524 644 490 c 0,60,61
 644 430 644 430 692 403 c 1,62,63
 695 430 695 430 695 459 c 0,64,65
 695 524 695 524 665 524 c 0,58,59
EndSplineSet
EndChar

StartChar: P
Encoding: 80 80 51
Width: 612
Flags: HW
LayerCount: 2
Fore
SplineSet
229 44 m 1,0,1
 229 -15 229 -15 114 -15 c 0,2,3
 89 -15 89 -15 84.5 10.5 c 128,-1,4
 80 36 80 36 80 82.5 c 0,5,6
 80 179 80 179 119 322 c 0,7,8
 184 558 184 558 258 600 c 0,9,10
 268 606 268 606 280 606 c 128,-1,11
 292 606 292 606 292 567 c 128,-1,12
 292 528 292 528 288 498 c 0,13,14
 280 438 280 438 259.5 343 c 128,-1,15
 239 248 239 248 239 231 c 2,16,-1
 229 44 l 1,0,1
297 313 m 0,17,18
 297 326 297 326 311.5 330 c 128,-1,19
 326 334 326 334 348 337.5 c 128,-1,20
 370 341 370 341 396 348 c 128,-1,21
 422 355 422 355 444 374 c 0,22,23
 495 418 495 418 495 521 c 0,24,25
 495 587 495 587 450.5 622 c 128,-1,26
 406 657 406 657 322.5 657 c 128,-1,27
 239 657 239 657 166 622 c 0,28,29
 139 609 139 609 117.5 598 c 128,-1,30
 96 587 96 587 78 587 c 128,-1,31
 60 587 60 587 60 598 c 0,32,33
 60 615 60 615 93 654 c 1,34,35
 126 690 126 690 197.5 721 c 128,-1,36
 269 752 269 752 348 752.5 c 0,37,38
 497.391125074 753.44551345 497.391125074 753.44551345 580 682 c 0,39,40
 652 620 652 620 652 521.5 c 128,-1,41
 652 423 652 423 581 345.5 c 128,-1,42
 510 268 510 268 403.5 268 c 128,-1,43
 297 268 297 268 297 313 c 0,17,18
EndSplineSet
EndChar

StartChar: Q
Encoding: 81 81 52
Width: 792
Flags: HW
LayerCount: 2
Fore
SplineSet
385 -36 m 1,0,1
 312 -56 312 -56 219 -56 c 128,-1,2
 126 -56 126 -56 68 -16.5 c 128,-1,3
 10 23 10 23 10 96 c 0,4,5
 10 143 10 143 54 176.5 c 128,-1,6
 98 210 98 210 182 210 c 0,7,8
 290 210 290 210 360 145 c 0,9,10
 380 126 380 126 398 105 c 1,11,12
 492 152 492 152 543 238.5 c 128,-1,13
 594 325 594 325 594 430.5 c 128,-1,14
 594 536 594 536 545 586 c 128,-1,15
 496 636 496 636 424 636 c 0,16,17
 322 636 322 636 258 570 c 128,-1,18
 194 504 194 504 194 393 c 0,19,20
 194 351 194 351 203.5 322.5 c 128,-1,21
 213 294 213 294 213 280 c 128,-1,22
 213 266 213 266 202 266 c 0,23,24
 159 266 159 266 125 310.5 c 128,-1,25
 91 355 91 355 91 433.5 c 128,-1,26
 91 512 91 512 120.5 571.5 c 128,-1,27
 150 631 150 631 198 671 c 0,28,29
 295 751 295 751 430.5 751 c 128,-1,30
 566 751 566 751 656 675 c 0,31,32
 756 591 756 591 757 445 c 1,33,34
 757 278 757 278 676 158 c 0,35,36
 607 56 607 56 485 0 c 1,37,38
 528 -43 528 -43 579.5 -43 c 128,-1,39
 631 -43 631 -43 663.5 -39.5 c 128,-1,40
 696 -36 696 -36 716.5 -36 c 128,-1,41
 737 -36 737 -36 737 -45 c 0,42,43
 737 -67.65 737 -67.65 692.5 -96.325 c 128,-1,44
 648 -125 648 -125 563 -125 c 0,45,46
 459.166666667 -125 459.166666667 -125 385 -36 c 1,0,1
304 73 m 1,47,48
 257 120 257 120 205.5 120 c 0,49,50
 175 120 175 120 152.5 113 c 128,-1,51
 130 106 130 106 130 92 c 0,52,53
 130 62 130 62 220 62 c 0,54,55
 252 62 252 62 304 73 c 1,47,48
EndSplineSet
EndChar

StartChar: R
Encoding: 82 82 53
Width: 651
Flags: HW
LayerCount: 2
Fore
SplineSet
713.5 236 m 0,0,1
 731 236 731 236 731 190 c 0,2,3
 731 165 731 165 710 129.5 c 128,-1,4
 689 94 689 94 655.5 64.5 c 128,-1,5
 622 35 622 35 581 16 c 128,-1,6
 540 -3 540 -3 503 -3 c 128,-1,7
 466 -3 466 -3 445 11 c 128,-1,8
 424 25 424 25 412 49 c 0,9,10
 395.074074074 82.8518518519 395.074074074 82.8518518519 384.037037037 178.425925926 c 128,-1,11
 373 274 373 274 362 312 c 1,12,13
 336 317 336 317 316.5 332.5 c 128,-1,14
 297 348 297 348 297 370.5 c 128,-1,15
 297 393 297 393 317.5 403 c 128,-1,16
 338 413 338 413 364.5 413 c 128,-1,17
 391 413 391 413 412 400 c 1,18,19
 440 423 440 423 457.5 454.5 c 128,-1,20
 475 486 475 486 475 539.5 c 128,-1,21
 475 593 475 593 439 625 c 128,-1,22
 403 657 403 657 333.5 657 c 128,-1,23
 264 657 264 657 227 646 c 128,-1,24
 190 635 190 635 163.5 622 c 128,-1,25
 137 609 137 609 116.5 598 c 128,-1,26
 96 587 96 587 78 587 c 128,-1,27
 60 587 60 587 60 598.5 c 128,-1,28
 60 610 60 610 79 636 c 128,-1,29
 98 662 98 662 135 688 c 0,30,31
 228 753 228 753 345 752.5 c 128,-1,32
 462 752 462 752 538 708 c 0,33,34
 627 656 627 656 627 552 c 1,35,36
 628 466 628 466 582 409 c 128,-1,37
 536 352 536 352 468 327 c 1,38,39
 483 294 483 294 492.5 256 c 128,-1,40
 502 218 502 218 511 186 c 128,-1,41
 520 154 520 154 531.5 133 c 128,-1,42
 543 112 543 112 559.5 112 c 128,-1,43
 576 112 576 112 599.5 131.5 c 128,-1,44
 623 151 623 151 646 174 c 128,-1,45
 669 197 669 197 687.5 216.5 c 128,-1,46
 706 236 706 236 713.5 236 c 0,0,1
279 596 m 0,47,48
 292 596 292 596 292 562 c 128,-1,49
 292 528 292 528 287.5 498 c 0,50,51
 278.763513514 439.756756757 278.763513514 439.756756757 265.381756757 389.878378378 c 0,52,53
 229 254.271143651 229 254.271143651 229 231 c 2,54,-1
 229 84 l 2,55,56
 229 30 229 30 188 10 c 0,57,58
 169 1 169 1 151.5 -7 c 128,-1,59
 134 -15 134 -15 112 -15 c 0,60,61
 70 -15 70 -15 70 81.5 c 128,-1,62
 70 178 70 178 115 325 c 128,-1,63
 160 472 160 472 209 549 c 0,64,65
 219 564 219 564 238 580 c 128,-1,66
 257 596 257 596 279 596 c 0,47,48
EndSplineSet
EndChar

StartChar: S
Encoding: 83 83 54
Width: 570
Flags: HW
LayerCount: 2
Fore
SplineSet
169 211 m 0,0,1
 169 124 169 124 243 124 c 0,2,3
 324 124 324 124 352 180 c 0,4,5
 362 200 362 200 362 231.5 c 128,-1,6
 362 263 362 263 347 289.5 c 0,7,8
 322.306406685 333.125348189 322.306406685 333.125348189 261 385 c 0,9,10
 160 471.037037037 160 471.037037037 160 563.518518519 c 128,-1,11
 160 656 160 656 218 706 c 128,-1,12
 276 756 276 756 351 756 c 128,-1,13
 426 756 426 756 470 718 c 128,-1,14
 514 680 514 680 514 604 c 0,15,16
 514 554 514 554 480.5 517 c 128,-1,17
 447 480 447 480 392 471 c 1,18,19
 417 450 417 450 442 428.5 c 1,20,21
 466 406 466 406 486 380 c 0,22,23
 530 321 530 321 530 239 c 0,24,25
 530 182 530 182 503.5 136 c 128,-1,26
 477 90 477 90 434.5 58.5 c 128,-1,27
 392 27 392 27 339 10 c 128,-1,28
 286 -7 286 -7 239.5 -7 c 0,29,30
 142.375 -7 142.375 -7 88 38 c 0,31,32
 25 89 25 89 25 185 c 0,33,34
 25 248 25 248 66 307 c 128,-1,35
 107 366 107 366 153 366 c 0,36,37
 189 366 189 366 189 344 c 0,38,39
 189 312 189 312 179 280.5 c 128,-1,40
 169 249 169 249 169 211 c 0,0,1
363 495 m 1,41,42
 420 552 420 552 420 613.5 c 0,43,44
 420 633 420 633 399.5 645.5 c 0,45,46
 378 658 378 658 354 658 c 0,47,48
 300 658 300 658 276 623 c 1,49,50
 288 580 288 580 311.5 550 c 128,-1,51
 335 520 335 520 363 495 c 1,41,42
EndSplineSet
EndChar

StartChar: T
Encoding: 84 84 55
Width: 552
Flags: HW
LayerCount: 2
Fore
SplineSet
321 44 m 0,0,1
 321 -15 321 -15 206 -15 c 0,2,3
 181 -15 181 -15 176.5 10.5 c 128,-1,4
 172 36 172 36 172 74 c 128,-1,5
 172 112 172 112 177.5 155.5 c 128,-1,6
 183 199 183 199 192 250 c 0,7,8
 209.268292683 347.853658537 209.268292683 347.853658537 240.634146341 461.426829268 c 128,-1,9
 272 575 272 575 303 637 c 1,10,11
 240 633 240 633 178 614.5 c 128,-1,12
 116 596 116 596 90 588.5 c 128,-1,13
 64 581 64 581 47 581 c 128,-1,14
 30 581 30 581 30 592 c 0,15,16
 30 605 30 605 50 630.5 c 128,-1,17
 70 656 70 656 107 682 c 0,18,19
 201 746 201 746 316 747 c 1,20,-1
 645 744 l 2,21,22
 672 744 672 744 672 723 c 0,23,24
 672 717 672 717 664 701.5 c 128,-1,25
 656 686 656 686 650 668 c 0,26,27
 637 632 637 632 595.5 632 c 128,-1,28
 554 632 554 632 398 638 c 1,29,30
 394 594 394 594 382 525.5 c 128,-1,31
 370 457 370 457 356 376 c 0,32,33
 322 169 322 169 321 44 c 0,0,1
EndSplineSet
EndChar

StartChar: U
Encoding: 85 85 56
Width: 691
Flags: HW
LayerCount: 2
Fore
SplineSet
585 203 m 1,0,1
 585 112 585 112 610 112 c 0,2,3
 625 112 625 112 647 131 c 128,-1,4
 669 150 669 150 691 172.5 c 128,-1,5
 713 195 713 195 731.5 214 c 128,-1,6
 750 233 750 233 757 233 c 0,7,8
 771 233 771 233 771 199 c 0,9,10
 771 128.6875 771 128.6875 700.5 62.84375 c 128,-1,11
 630 -3 630 -3 550 -3 c 1,12,13
 500 -4 500 -4 482 40 c 0,14,15
 468 75 468 75 468 152 c 1,16,17
 401 -3 401 -3 269 -3 c 0,18,19
 180 -3 180 -3 127.5 41.5 c 128,-1,20
 75 86 75 86 75 182 c 0,21,22
 75 205 75 205 100.5 303.5 c 128,-1,23
 126 402 126 402 141 465.5 c 128,-1,24
 156 529 156 529 156 566 c 0,25,26
 156 647 156 647 115 647 c 0,27,28
 101 647 101 647 89.5 639 c 128,-1,29
 78 631 78 631 66.5 622 c 128,-1,30
 55 613 55 613 43 605 c 128,-1,31
 31 597 31 597 15.5 597 c 128,-1,32
 0 597 0 597 0 624.5 c 0,33,34
 0 678.52173913 0 678.52173913 51 714 c 1,35,36
 100 750 100 750 168 750 c 128,-1,37
 236 750 236 750 270 694 c 0,38,39
 296 653 296 653 296 601.5 c 128,-1,40
 296 550 296 550 285 501.5 c 128,-1,41
 274 453 274 453 261.5 402 c 128,-1,42
 249 351 249 351 238 298.5 c 128,-1,43
 227 246 227 246 227 212.5 c 128,-1,44
 227 179 227 179 230.5 167.5 c 0,45,46
 243.739130435 124 243.739130435 124 298 124 c 0,47,48
 368.102564103 124 368.102564103 124 420 212 c 0,49,50
 464 286 464 286 482 392 c 1,51,-1
 488 437 l 1,52,-1
 484 646 l 2,53,54
 484 692 484 692 524 722 c 128,-1,55
 564 752 564 752 608 751 c 0,56,57
 626 751 626 751 631 724.5 c 128,-1,58
 636 698 636 698 636 666 c 128,-1,59
 636 634 636 634 632 604.5 c 128,-1,60
 628 575 628 575 622.5 536.5 c 128,-1,61
 617 498 617 498 610.5 454 c 0,62,63
 583.688545689 272.507078507 583.688545689 272.507078507 585 203 c 1,0,1
EndSplineSet
EndChar

StartChar: V
Encoding: 86 86 57
Width: 658
Flags: HW
LayerCount: 2
Fore
SplineSet
43 605 m 128,-1,1
 31 597 31 597 15.5 597 c 128,-1,2
 0 597 0 597 0 624.5 c 0,3,4
 0 678.52173913 0 678.52173913 51 714 c 1,5,6
 100 750 100 750 168 750 c 128,-1,7
 236 750 236 750 270 694 c 0,8,9
 296 653 296 653 296 601.5 c 128,-1,10
 296 550 296 550 285 501.5 c 128,-1,11
 274 453 274 453 261.5 402 c 128,-1,12
 249 351 249 351 238 298.5 c 128,-1,13
 227 246 227 246 227 212.5 c 128,-1,14
 227 179 227 179 230.5 167.5 c 0,15,16
 243.739130435 124 243.739130435 124 306.5 124 c 0,17,18
 353 124 353 124 394 151 c 0,19,20
 506.501647606 225.086450863 506.501647606 225.086450863 538 444 c 1,21,22
 457 449 457 449 413.5 495.5 c 128,-1,23
 370 542 370 542 370 621 c 0,24,25
 370 678 370 678 407 717 c 128,-1,26
 444 756 444 756 508 756.5 c 128,-1,27
 572 757 572 757 604 712 c 128,-1,28
 636 667 636 667 636 590 c 2,29,-1
 636 567 l 2,30,31
 636 555 636 555 635 544 c 1,32,33
 652 552 652 552 664 560.5 c 128,-1,34
 676 569 676 569 688 569 c 0,35,36
 708 569 708 569 708 552 c 0,37,38
 708 519 708 519 687.5 494.5 c 128,-1,39
 667 470 667 470 632 457 c 1,40,41
 622 328 622 328 599.5 260 c 128,-1,42
 577 192 577 192 551.5 147 c 128,-1,43
 526 102 526 102 486 68 c 0,44,45
 402 -3 402 -3 269 -3 c 0,46,47
 180 -3 180 -3 127.5 41.5 c 128,-1,48
 75 86 75 86 75 182 c 0,49,50
 75 205 75 205 100.5 303.5 c 128,-1,51
 126 402 126 402 141 465.5 c 128,-1,52
 156 529 156 529 156 566 c 0,53,54
 156 647 156 647 115 647 c 0,55,56
 101 647 101 647 89.5 639 c 128,-1,57
 78 631 78 631 66.5 622 c 128,-1,0
 55 613 55 613 43 605 c 128,-1,1
547 547 m 1,58,59
 549 575 549 575 549 604 c 0,60,61
 549 669 549 669 519 669 c 1,62,63
 498 670 498 670 498 636 c 0,64,65
 498 574 498 574 547 547 c 1,58,59
EndSplineSet
EndChar

StartChar: W
Encoding: 87 87 58
Width: 1028
Flags: HW
LayerCount: 2
Fore
SplineSet
43 605 m 128,-1,1
 31 597 31 597 15.5 597 c 128,-1,2
 0 597 0 597 0 624.5 c 0,3,4
 0 678.52173913 0 678.52173913 51 714 c 1,5,6
 100 750 100 750 169 750 c 128,-1,7
 238 750 238 750 270 701 c 0,8,9
 296 662 296 662 296 595 c 0,10,11
 296 566 296 566 285 520 c 0,12,13
 228.200998752 282.47690387 228.200998752 282.47690387 227 190 c 1,14,15
 228 146 228 146 264 130 c 0,16,17
 278 124 278 124 297 124 c 0,18,19
 386 124 386 124 465 229 c 1,20,21
 425 369 425 369 425 547 c 0,22,23
 425 613 425 613 456.5 654.5 c 128,-1,24
 488 696 488 696 559 696 c 0,25,26
 612 696 612 696 639.5 666 c 128,-1,27
 667 636 667 636 667 587 c 0,28,29
 667 486 667 486 614 338 c 0,30,31
 596 288 596 288 572 239 c 1,32,33
 615 123 615 123 686 123 c 0,34,35
 766 123 766 123 826 231 c 0,36,37
 870 310 870 310 898 446 c 1,38,39
 825 456 825 456 782.5 508 c 128,-1,40
 740 560 740 560 740 619 c 128,-1,41
 740 678 740 678 777 717 c 128,-1,42
 814 756 814 756 878 756.5 c 128,-1,43
 942 757 942 757 974 711.5 c 128,-1,44
 1006 666 1006 666 1006 588 c 2,45,-1
 1006 568 l 2,46,47
 1006 557 1006 557 1005 544 c 1,48,49
 1022 552 1022 552 1034 560.5 c 128,-1,50
 1046 569 1046 569 1058 569 c 0,51,52
 1078 569 1078 569 1078 552 c 0,53,54
 1078 519 1078 519 1056.5 494 c 128,-1,55
 1035 469 1035 469 999 456 c 1,56,57
 986 339 986 339 964.5 272 c 0,58,59
 923.153846154 143.153846154 923.153846154 143.153846154 856 76 c 1,60,61
 776 -2 776 -2 659 -3 c 0,62,63
 562 -3 562 -3 501 126 c 1,64,65
 399 -3 399 -3 269 -3 c 0,66,67
 180 -3 180 -3 127.5 41.5 c 128,-1,68
 75 86 75 86 75 182 c 0,69,70
 75 205 75 205 100.5 303.5 c 128,-1,71
 126 402 126 402 141 465.5 c 128,-1,72
 156 529 156 529 156 566 c 0,73,74
 156 647 156 647 115 647 c 0,75,76
 101 647 101 647 89.5 639 c 128,-1,77
 78 631 78 631 66.5 622 c 128,-1,0
 55 613 55 613 43 605 c 128,-1,1
551 612 m 0,78,79
 525 612 525 612 525 531 c 128,-1,80
 525 450 525 450 539 368 c 1,81,82
 577 467 577 467 577 560 c 0,83,84
 577 580 577 580 570.5 596 c 128,-1,85
 564 612 564 612 551 612 c 0,78,79
889 669 m 0,86,87
 868 669 868 669 868 636 c 0,88,89
 868 576 868 576 915 549 c 1,90,91
 919 587 919 587 919 600 c 0,92,93
 919 627.5 919 627.5 912 645 c 1,94,95
 904 669 904 669 889 669 c 0,86,87
EndSplineSet
EndChar

StartChar: X
Encoding: 88 88 59
Width: 606
Flags: HW
LayerCount: 2
Fore
SplineSet
652 713 m 0,0,1
 652 655 652 655 425 379 c 1,2,3
 435 326 435 326 444 277.5 c 128,-1,4
 453 229 453 229 464 192.5 c 128,-1,5
 475 156 475 156 489.5 134 c 128,-1,6
 504 112 504 112 522 112 c 128,-1,7
 540 112 540 112 562 131 c 128,-1,8
 584 150 584 150 606 172.5 c 128,-1,9
 628 195 628 195 646.5 214 c 128,-1,10
 665 233 665 233 672 233 c 0,11,12
 686 233 686 233 686 199 c 0,13,14
 686 129.625 686 129.625 615 63.3125 c 128,-1,15
 544 -3 544 -3 465 -3 c 0,16,17
 382 -3 382 -3 334 141 c 0,18,19
 320 184 320 184 307 232 c 1,20,21
 278 194 278 194 245 151.5 c 128,-1,22
 212 109 212 109 174 73 c 0,23,24
 88 -10 88 -10 16 -10 c 0,25,26
 -6 -10 -6 -10 -18 -3 c 128,-1,27
 -30 4 -30 4 -30 10.5 c 128,-1,28
 -30 17 -30 17 -22 23 c 128,-1,29
 -14 29 -14 29 20.5 60.5 c 0,30,31
 168.496012759 195.626794258 168.496012759 195.626794258 279 358 c 1,32,33
 260 454 260 454 243 523 c 1,34,35
 214 515 214 515 181.5 515 c 0,36,37
 108.857142857 515 108.857142857 515 66 540 c 0,38,39
 11 571 11 571 11 629 c 128,-1,40
 11 687 11 687 48 722 c 128,-1,41
 85 757 85 757 140.5 757 c 128,-1,42
 196 757 196 757 234 738.5 c 128,-1,43
 272 720 272 720 302 688 c 0,44,45
 353 634 353 634 388 526 c 1,46,47
 407 557 407 557 428.5 590.5 c 128,-1,48
 450 624 450 624 468.5 654 c 128,-1,49
 487 684 487 684 502 707 c 128,-1,50
 517 730 517 730 524.5 741.5 c 128,-1,51
 532 753 532 753 545.5 753.5 c 0,52,53
 577.774834437 754.695364238 577.774834437 754.695364238 614.887417219 743.347682119 c 128,-1,54
 652 732 652 732 652 713 c 0,0,1
157 669 m 0,55,56
 139 669 139 669 139 644.5 c 128,-1,57
 139 620 139 620 163.5 600 c 128,-1,58
 188 580 188 580 229 572 c 1,59,60
 198 669 198 669 157 669 c 0,55,56
EndSplineSet
EndChar

StartChar: Y
Encoding: 89 89 60
Width: 647
Flags: HW
LayerCount: 2
Fore
SplineSet
227 245 m 0,0,1
 227 185 227 185 280 185 c 0,2,3
 338 185 338 185 383 255 c 1,4,5
 395 308 395 308 428.5 439 c 128,-1,6
 462 570 462 570 468.5 600.5 c 0,7,8
 480.988764045 659.101123596 480.988764045 659.101123596 497.494382022 694.050561798 c 128,-1,9
 514 729 514 729 539 729 c 0,10,11
 585 729 585 729 609.5 708.5 c 128,-1,12
 634 688 634 688 634 634.5 c 128,-1,13
 634 581 634 581 598 514 c 1,14,15
 592 478 592 478 585 439 c 128,-1,16
 578 400 578 400 567 337 c 128,-1,17
 556 274 556 274 526 123 c 1,18,19
 644 171 644 171 670.5 202 c 128,-1,20
 697 233 697 233 712 233 c 128,-1,21
 727 233 727 233 727 202 c 128,-1,22
 727 171 727 171 708.5 148 c 128,-1,23
 690 125 690 125 650.5 96 c 128,-1,24
 611 67 611 67 506 22 c 1,25,26
 454 -200 454 -200 316 -258 c 0,27,28
 278 -274 278 -274 235.5 -274 c 0,29,30
 145.888888889 -274 145.888888889 -274 93 -240 c 0,31,32
 32 -202 32 -202 32 -127 c 0,33,34
 32 -60 32 -60 232 15 c 0,35,36
 332 52 332 52 353 58 c 1,37,38
 353 82 353 82 358 120 c 1,39,40
 296 85 296 85 222.5 85 c 128,-1,41
 149 85 149 85 112 129.5 c 128,-1,42
 75 174 75 174 75 252 c 0,43,44
 75 289 75 289 87.5 331 c 128,-1,45
 100 373 100 373 115.5 416.5 c 128,-1,46
 131 460 131 460 143.5 502 c 128,-1,47
 156 544 156 544 156 580 c 0,48,49
 156 647 156 647 115 647 c 0,50,51
 101 647 101 647 89.5 639 c 128,-1,52
 78 631 78 631 66.5 622 c 128,-1,53
 55 613 55 613 43 605 c 128,-1,54
 31 597 31 597 15.5 597 c 128,-1,55
 0 597 0 597 0 624.5 c 0,56,57
 0 678.52173913 0 678.52173913 51 714 c 1,58,59
 100 750 100 750 168 750 c 128,-1,60
 236 750 236 750 270 700 c 0,61,62
 296 663 296 663 296 616 c 128,-1,63
 296 569 296 569 285 525.5 c 128,-1,64
 274 482 274 482 261.5 436 c 128,-1,65
 249 390 249 390 238 342.5 c 128,-1,66
 227 295 227 295 227 245 c 0,0,1
263 -184.5 m 0,67,68
 303.055555556 -151.12037037 303.055555556 -151.12037037 331 -44 c 1,69,70
 278 -63 278 -63 241 -75 c 128,-1,71
 204 -87 204 -87 180 -97 c 128,-1,72
 156 -107 156 -107 145 -116.5 c 128,-1,73
 134 -126 134 -126 134 -139 c 256,74,75
 134 -164 134 -164 164 -180 c 128,-1,76
 194 -196 194 -196 221 -196.5 c 128,-1,77
 248 -197 248 -197 263 -184.5 c 0,67,68
EndSplineSet
EndChar

StartChar: Z
Encoding: 90 90 61
Width: 574
Flags: HW
LayerCount: 2
Fore
SplineSet
639 236 m 0,0,1
 654 236 654 236 654 202 c 0,2,3
 654 131 654 131 588 64.5 c 128,-1,4
 522 -2 522 -2 427 -3 c 0,5,6
 385 -3 385 -3 347 13 c 128,-1,7
 309 29 309 29 275 49 c 1,8,-1
 271 46 l 1,9,10
 212 -17 212 -17 115 -17 c 0,11,12
 53 -17 53 -17 24 14 c 128,-1,13
 -5 45 -5 45 -5 96 c 128,-1,14
 -5 147 -5 147 32.5 172.5 c 128,-1,15
 70 198 70 198 129 198 c 128,-1,16
 188 198 188 198 242 184 c 1,17,18
 276 243 276 243 309 319 c 1,19,20
 258 314 258 314 211 307.5 c 128,-1,21
 164 301 164 301 135 301 c 0,22,23
 122 301 122 301 122 311 c 0,24,25
 122 348 122 348 185 378.5 c 128,-1,26
 248 409 248 409 346 423 c 1,27,28
 363 476 363 476 375.5 524 c 128,-1,29
 388 572 388 572 402 617 c 1,30,31
 357 632 357 632 320.5 632 c 0,32,33
 257 632 257 632 182.5 608 c 128,-1,34
 108 584 108 584 94 583 c 1,35,36
 64 583 64 583 64 605 c 0,37,38
 64 637.555555556 64 637.555555556 144 682 c 1,39,40
 231 728 231 728 336 729 c 1,41,42
 504 729 504 729 555 678 c 0,43,44
 569 664 569 664 569 645 c 0,45,46
 569 571 569 571 506 425 c 1,47,-1
 564 425 l 2,48,49
 586 425 586 425 586 405 c 0,50,51
 586 399 586 399 581 384 c 128,-1,52
 576 369 576 369 572 353 c 0,53,54
 564 320 564 320 538 320 c 0,55,56
 517 320 517 320 459 325 c 1,57,58
 403 216 403 216 349 139 c 1,59,60
 378 124 378 124 407 113 c 128,-1,61
 436 102 436 102 469 102 c 128,-1,62
 502 102 502 102 526.5 123 c 128,-1,63
 551 144 551 144 572.5 169 c 128,-1,64
 594 194 594 194 611 215 c 128,-1,65
 628 236 628 236 639 236 c 0,0,1
186 102 m 1,66,67
 152 119 152 119 128 119 c 256,68,69
 114 119 114 119 103 111.5 c 128,-1,70
 92 104 92 104 92 89 c 256,71,72
 92 74 92 74 103 67.5 c 128,-1,73
 114 61 114 61 126 61 c 0,74,75
 148 61 148 61 186 102 c 1,66,67
EndSplineSet
EndChar

StartChar: bracketleft
Encoding: 91 91 62
Width: 335
Flags: HW
LayerCount: 2
Fore
SplineSet
50 839 m 1,0,-1
 295 839 l 1,1,-1
 295 781 l 1,2,-1
 118 781 l 1,3,-1
 118 -162 l 1,4,-1
 295 -162 l 1,5,-1
 295 -220 l 1,6,-1
 50 -220 l 1,7,-1
 50 839 l 1,0,-1
EndSplineSet
EndChar

StartChar: backslash
Encoding: 92 92 63
Width: 486
Flags: HW
LayerCount: 2
Fore
SplineSet
438 37 m 2,0,1
 441 28 441 28 441 19 c 0,2,3
 441 -0.5 441 -0.5 423 -26.75 c 128,-1,4
 405 -53 405 -53 385 -54 c 0,5,6
 380 -54 380 -54 379 -51 c 0,7,8
 364 -7 364 -7 354.5 23 c 0,9,10
 322.850828729 122.944751381 322.850828729 122.944751381 290.925414365 206.472375691 c 128,-1,11
 259 290 259 290 221.5 383.5 c 0,12,13
 182.051948052 481.857142857 182.051948052 481.857142857 151.025974026 569.428571429 c 128,-1,14
 120 657 120 657 120 669.5 c 0,15,16
 120 693 120 693 140 723 c 1,17,18
 160 751 160 751 173 751 c 256,19,20
 180 751 180 751 183 743 c 2,21,-1
 438 37 l 2,0,1
EndSplineSet
EndChar

StartChar: bracketright
Encoding: 93 93 64
Width: 335
Flags: HW
LayerCount: 2
Fore
SplineSet
295 839 m 1,0,-1
 295 -220 l 1,1,-1
 50 -220 l 1,2,-1
 50 -162 l 1,3,-1
 227 -162 l 1,4,-1
 227 781 l 1,5,-1
 50 781 l 1,6,-1
 50 839 l 1,7,-1
 295 839 l 1,0,-1
EndSplineSet
EndChar

StartChar: asciicircum
Encoding: 94 94 65
Width: 520
Flags: HW
LayerCount: 2
Fore
SplineSet
270 615 m 1,0,-1
 445 363 l 1,1,-1
 395 328 l 1,2,-1
 258 524 l 1,3,-1
 123 330 l 1,4,-1
 75 363 l 1,5,-1
 250 615 l 1,6,-1
 270 615 l 1,0,-1
EndSplineSet
EndChar

StartChar: underscore
Encoding: 95 95 66
Width: 440
Flags: HW
LayerCount: 2
Fore
SplineSet
440 -78 m 1,0,-1
 440 -136 l 1,1,-1
 0 -136 l 1,2,-1
 0 -78 l 1,3,-1
 440 -78 l 1,0,-1
EndSplineSet
EndChar

StartChar: grave
Encoding: 96 96 67
Width: 500
Flags: HW
LayerCount: 2
Fore
SplineSet
346 582 m 0,0,1
 358 574 358 574 358 562 c 0,2,3
 358 554 358 554 330.5 554.5 c 128,-1,4
 303 555 303 555 268 566 c 128,-1,5
 233 577 233 577 205 600 c 0,6,7
 142 652 142 652 142 738 c 0,8,9
 142 762 142 762 149.5 774.5 c 128,-1,10
 157 787 157 787 192 787 c 0,11,12
 227 787 227 787 245 769 c 0,13,14
 252 762 252 762 253 751 c 0,15,16
 263 637 263 637 346 582 c 0,0,1
EndSplineSet
EndChar

StartChar: a
Encoding: 97 97 68
Width: 582
Flags: HW
LayerCount: 2
Fore
SplineSet
644 236 m 0,0,1
 662 236 662 236 662 190 c 0,2,3
 662 165 662 165 641 129.5 c 128,-1,4
 620 94 620 94 586.5 64.5 c 128,-1,5
 553 35 553 35 512 16 c 128,-1,6
 471 -3 471 -3 432 -3 c 0,7,8
 379 -3 379 -3 361 90 c 1,9,10
 335 47 335 47 293 19.5 c 128,-1,11
 251 -8 251 -8 180.5 -8 c 128,-1,12
 110 -8 110 -8 67 36 c 128,-1,13
 24 80 24 80 25 143 c 1,14,15
 25 313 25 313 138 411 c 0,16,17
 186 452 186 452 227.5 465 c 128,-1,18
 269 478 269 478 315 478 c 128,-1,19
 361 478 361 478 390 462 c 1,20,21
 404 491 404 491 421.5 491 c 0,22,23
 457 491 457 491 488.5 460.5 c 128,-1,24
 520 430 520 430 520 403 c 1,25,26
 506 370 506 370 479 324 c 1,27,28
 471 278 471 278 471 195 c 128,-1,29
 471 112 471 112 492 112 c 0,30,31
 518 112 518 112 618 216 c 0,32,33
 636 236 636 236 644 236 c 0,0,1
172 176 m 0,34,35
 172 99 172 99 229 99 c 256,36,37
 290 100 290 100 330 164 c 0,38,39
 344 186 344 186 353 218 c 1,40,41
 353 330 353 330 373 410 c 1,42,43
 292 394 292 394 232 332 c 128,-1,44
 172 270 172 270 172 176 c 0,34,35
EndSplineSet
EndChar

StartChar: b
Encoding: 98 98 69
Width: 517
Flags: HW
LayerCount: 2
Fore
SplineSet
114 470 m 1,0,1
 40 502 40 502 40 532 c 0,2,3
 40 548 40 548 53 547 c 1,4,5
 71 547 71 547 94 538.5 c 128,-1,6
 117 530 117 530 141 525 c 1,7,8
 223 680 223 680 327 728 c 0,9,10
 362 744 362 744 397 745 c 1,11,12
 466 745 466 745 502.5 711.5 c 128,-1,13
 539 678 539 678 539 630 c 0,14,15
 539 543.5 539 543.5 446 497 c 0,16,17
 370 459 370 459 239 450 c 1,18,19
 192 334 192 334 192 201 c 0,20,21
 192 102 192 102 238 86 c 0,22,23
 270.205882353 75.2647058824 270.205882353 75.2647058824 286.102941176 85.6323529412 c 128,-1,24
 302 96 302 96 311 113.5 c 128,-1,25
 320 131 320 131 320.5 165 c 128,-1,26
 321 199 321 199 301.5 222.5 c 128,-1,27
 282 246 282 246 264 266 c 1,28,29
 273 299 273 299 290 321 c 0,30,31
 322 364 322 364 345 364 c 128,-1,32
 368 364 368 364 382.5 348 c 128,-1,33
 397 332 397 332 406 308 c 128,-1,34
 415 284 415 284 420.5 256 c 128,-1,35
 426 228 426 228 433 204 c 128,-1,36
 440 180 440 180 450.5 164 c 128,-1,37
 461 148 461 148 478.5 148 c 128,-1,38
 496 148 496 148 510 161.5 c 128,-1,39
 524 175 524 175 535 191 c 128,-1,40
 546 207 546 207 555 220.5 c 128,-1,41
 564 234 564 234 573.5 234 c 128,-1,42
 583 234 583 234 592.5 218 c 128,-1,43
 602 202 602 202 602 188.5 c 0,44,45
 602 156 602 156 570.5 112 c 128,-1,46
 539 68 539 68 490 68.5 c 128,-1,47
 441 69 441 69 414 89 c 1,48,49
 397 47 397 47 356 19 c 128,-1,50
 315 -9 315 -9 239.5 -9 c 128,-1,51
 164 -9 164 -9 110 30 c 0,52,53
 45 77 45 77 45 176 c 0,54,55
 45 317 45 317 114 470 c 1,0,1
429 612 m 1,56,57
 428 647 428 647 403.5 647 c 128,-1,58
 379 647 379 647 340 610 c 128,-1,59
 301 573 301 573 265 507 c 1,60,61
 374 526 374 526 414 574 c 0,62,63
 428 592 428 592 429 612 c 1,56,57
EndSplineSet
EndChar

StartChar: c
Encoding: 99 99 70
Width: 365
Flags: HW
LayerCount: 2
Fore
SplineSet
427 236 m 0,0,1
 445 236 445 236 445 205.5 c 128,-1,2
 445 175 445 175 429.5 140 c 128,-1,3
 414 105 414 105 382.5 72.5 c 128,-1,4
 351 40 351 40 302 17 c 128,-1,5
 253 -6 253 -6 186.5 -6 c 128,-1,6
 120 -6 120 -6 70 33.5 c 128,-1,7
 20 73 20 73 20 147.5 c 128,-1,8
 20 222 20 222 43.5 282.5 c 128,-1,9
 67 343 67 343 105.5 387 c 128,-1,10
 144 431 144 431 193 455.5 c 128,-1,11
 242 480 242 480 286 480 c 0,12,13
 363 480 363 480 363 419 c 0,14,15
 363 384 363 384 348.5 363 c 128,-1,16
 334 342 334 342 319 342 c 0,17,18
 299 342 299 342 284 356 c 128,-1,19
 269 370 269 370 251 370.5 c 128,-1,20
 233 371 233 371 216.5 353 c 128,-1,21
 200 335 200 335 189 307 c 0,22,23
 167 251 167 251 167 176 c 1,24,25
 168 140 168 140 200 122 c 0,26,27
 222 110 222 110 252 109.5 c 128,-1,28
 282 109 282 109 309.5 129 c 128,-1,29
 337 149 337 149 360 172.5 c 128,-1,30
 383 196 383 196 400.5 216 c 128,-1,31
 418 236 418 236 427 236 c 0,0,1
EndSplineSet
EndChar

StartChar: d
Encoding: 100 100 71
Width: 582
Flags: HW
LayerCount: 2
Fore
SplineSet
644 236 m 0,0,1
 662 236 662 236 662 190 c 0,2,3
 662 165 662 165 641 129.5 c 128,-1,4
 620 94 620 94 586.5 64.5 c 128,-1,5
 553 35 553 35 512 16 c 128,-1,6
 471 -3 471 -3 432 -3 c 0,7,8
 377 -3 377 -3 360 87 c 1,9,10
 300 -8 300 -8 182 -8 c 0,11,12
 110 -8 110 -8 67 36 c 128,-1,13
 24 80 24 80 25 143 c 1,14,15
 25 313 25 313 138 411 c 0,16,17
 216 478 216 478 300 478 c 0,18,19
 338 478 338 478 360 472 c 2,20,-1
 383 466 l 1,21,22
 424 659 424 659 478 724 c 0,23,24
 496 746 496 746 513.5 746 c 0,25,26
 543 746 543 746 568 706 c 1,27,28
 590 673 590 673 590 649 c 128,-1,29
 590 625 590 625 583 602 c 128,-1,30
 576 579 576 579 565.5 559.5 c 128,-1,31
 555 540 555 540 542 521.5 c 128,-1,32
 529 503 529 503 516 484 c 1,33,34
 487 376 487 376 473 242 c 0,35,36
 469 204 469 204 469 181 c 0,37,38
 469 112 469 112 492 112 c 0,39,40
 518 112 518 112 618 216 c 0,41,42
 636 236 636 236 644 236 c 0,0,1
172 176 m 0,43,44
 172 99 172 99 229 99 c 0,45,46
 263 99 263 99 297.5 125 c 128,-1,47
 332 151 332 151 351 212 c 1,48,49
 353 302 353 302 372 410 c 1,50,51
 292 394 292 394 232 332 c 128,-1,52
 172 270 172 270 172 176 c 0,43,44
EndSplineSet
EndChar

StartChar: e
Encoding: 101 101 72
Width: 418
Flags: HW
LayerCount: 2
Fore
SplineSet
263 109 m 1,0,1
 341 109 341 109 414 171 c 0,2,3
 441 194 441 194 458 213.5 c 128,-1,4
 475 233 475 233 484 233 c 0,5,6
 498 233 498 233 498 205 c 128,-1,7
 498 177 498 177 483 142.5 c 128,-1,8
 468 108 468 108 433 75 c 0,9,10
 347 -6 347 -6 197 -6 c 0,11,12
 78 -6 78 -6 35 80 c 0,13,14
 20 110 20 110 20 166 c 128,-1,15
 20 222 20 222 42 282.5 c 128,-1,16
 64 343 64 343 100.5 387 c 128,-1,17
 137 431 137 431 185 455.5 c 128,-1,18
 233 480 233 480 287.5 480 c 128,-1,19
 342 480 342 480 371.5 453 c 128,-1,20
 401 426 401 426 401 383 c 128,-1,21
 401 340 401 340 379.5 312.5 c 128,-1,22
 358 285 358 285 324 266.5 c 128,-1,23
 290 248 290 248 248.5 233.5 c 128,-1,24
 207 219 207 219 167 201 c 1,25,-1
 167 176 l 1,26,27
 168 140 168 140 197 125 c 0,28,29
 226 110 226 110 263 109 c 1,0,1
246 391 m 0,30,31
 194 391 194 391 174 270 c 1,32,33
 195 284 195 284 213.5 295 c 128,-1,34
 232 306 232 306 246 316 c 0,35,36
 276 338 276 338 277 366 c 0,37,38
 277 391 277 391 246 391 c 0,30,31
EndSplineSet
EndChar

StartChar: f
Encoding: 102 102 73
Width: 417
Flags: HW
LayerCount: 2
Fore
SplineSet
49 509 m 0,0,1
 49 527 49 527 62 527 c 0,2,3
 82 527 82 527 103 518.5 c 128,-1,4
 124 510 124 510 148 505 c 1,5,6
 228 676 228 676 332 728 c 0,7,8
 368 746 368 746 403.5 745.5 c 0,9,10
 470.836298932 744.551601423 470.836298932 744.551601423 494.418149466 713.775800712 c 128,-1,11
 518 683 518 683 517.5 633.5 c 0,12,13
 516.566916488 541.124732334 516.566916488 541.124732334 437.783458244 487.562366167 c 128,-1,14
 359 434 359 434 245 428 c 1,15,16
 216 351 216 351 200 264 c 1,17,18
 239 279 239 279 300 279 c 1,19,20
 308 216 308 216 328 189 c 128,-1,21
 348 162 348 162 372.5 162 c 128,-1,22
 397 162 397 162 413.5 174 c 128,-1,23
 430 186 430 186 442.5 201 c 128,-1,24
 455 216 455 216 463.5 228 c 128,-1,25
 472 240 472 240 480 240 c 0,26,27
 497 240 497 240 497 209.5 c 0,28,29
 497 150.357142857 497 150.357142857 467 110.678571429 c 128,-1,30
 437 71 437 71 375 71 c 0,31,32
 278 71 278 71 237 122 c 1,33,34
 259 -98 259 -98 259 -140 c 0,35,36
 259 -214.954545455 259 -214.954545455 212 -247 c 0,37,38
 173 -274 173 -274 112.5 -274 c 128,-1,39
 52 -274 52 -274 28.5 -246.5 c 128,-1,40
 5 -219 5 -219 5 -181 c 0,41,42
 5 60 5 60 74 304 c 0,43,44
 96 382 96 382 124 450 c 1,45,46
 49 483 49 483 49 509 c 0,0,1
171 -178.5 m 128,-1,48
 181 -160 181 -160 181 -139 c 0,49,50
 181 -70.3636363636 181 -70.3636363636 162 73 c 1,51,52
 137 -30 137 -30 128 -132 c 0,53,54
 126 -154 126 -154 126 -159 c 0,55,56
 126 -197 126 -197 149 -197 c 0,57,47
 161 -197 161 -197 171 -178.5 c 128,-1,48
396 647 m 0,58,59
 376 647 376 647 341.5 609 c 128,-1,60
 307 571 307 571 271 493 c 1,61,62
 344 525 344 525 367 542 c 0,63,64
 414 575 414 575 414 621 c 0,65,66
 414 647 414 647 396 647 c 0,58,59
EndSplineSet
EndChar

StartChar: g
Encoding: 103 103 74
Width: 573
Flags: HW
LayerCount: 2
Fore
SplineSet
413 455 m 1,0,1
 427 499 427 499 458 499 c 1,2,3
 486 498 486 498 511 459.5 c 128,-1,4
 536 421 536 421 535.5 400.5 c 0,5,6
 534.476190476 358.523809524 534.476190476 358.523809524 511.238095238 269.261904762 c 128,-1,7
 488 180 488 180 446 37 c 1,8,9
 512 88 512 88 576 170 c 0,10,11
 598 198 598 198 613.5 215.5 c 128,-1,12
 629 233 629 233 639 233 c 0,13,14
 653 233 653 233 653 201 c 0,15,16
 653 137.9375 653 137.9375 582.5 53.96875 c 128,-1,17
 512 -30 512 -30 410 -77 c 1,18,19
 398 -117 398 -117 384 -153 c 128,-1,20
 370 -189 370 -189 348 -216 c 0,21,22
 300 -274 300 -274 202 -274 c 0,23,24
 136 -274 136 -274 89.5 -236 c 128,-1,25
 43 -198 43 -198 43 -141 c 0,26,27
 43 -110 43 -110 63.5 -92 c 128,-1,28
 84 -74 84 -74 120 -63 c 128,-1,29
 156 -52 156 -52 204.5 -44 c 128,-1,30
 253 -36 253 -36 308 -24 c 1,31,32
 313 -7 313 -7 316.5 9.5 c 128,-1,33
 320 26 320 26 324 43 c 1,34,35
 269 -8 269 -8 189.5 -8 c 128,-1,36
 110 -8 110 -8 67 36 c 128,-1,37
 24 80 24 80 25 143 c 1,38,39
 25 313 25 313 138 411 c 0,40,41
 216 478 216 478 300 478 c 0,42,43
 329 478 329 478 362.5 471 c 128,-1,44
 396 464 396 464 413 455 c 1,0,1
172 176 m 0,45,46
 172 99 172 99 229 99 c 0,47,48
 261 99 261 99 294 123 c 128,-1,49
 327 147 327 147 347 201 c 1,50,51
 362 271 362 271 378.5 330 c 128,-1,52
 395 389 395 389 401 412 c 1,53,54
 317 401 317 401 244.5 337 c 128,-1,55
 172 273 172 273 172 176 c 0,45,46
277 -116 m 1,56,57
 241 -123 241 -123 214 -127 c 128,-1,58
 187 -131 187 -131 169.5 -134 c 128,-1,59
 152 -137 152 -137 143.5 -141 c 128,-1,60
 135 -145 135 -145 135 -154.5 c 0,61,62
 135 -171.6 135 -171.6 157.5 -184.8 c 128,-1,63
 180 -198 180 -198 202 -197 c 1,64,65
 240 -197 240 -197 277 -116 c 1,56,57
EndSplineSet
EndChar

StartChar: h
Encoding: 104 104 75
Width: 553
Flags: HW
LayerCount: 2
Fore
SplineSet
363 336 m 0,0,1
 363 372 363 372 320.5 372 c 128,-1,2
 278 372 278 372 237 306.5 c 128,-1,3
 196 241 196 241 186 173 c 1,4,5
 188 150 188 150 190 127 c 128,-1,6
 192 104 192 104 192 82 c 0,7,8
 192 29 192 29 157 10 c 0,9,10
 141 1 141 1 126.5 -7 c 128,-1,11
 112 -15 112 -15 93 -15 c 128,-1,12
 74 -15 74 -15 59.5 10.5 c 128,-1,13
 45 36 45 36 45 90 c 0,14,15
 45 240.533333333 45 240.533333333 67 352 c 0,16,17
 101 524 101 524 202 720 c 0,18,19
 216 747 216 747 243 746.5 c 128,-1,20
 270 746 270 746 287 709 c 128,-1,21
 304 672 304 672 303.5 647 c 128,-1,22
 303 622 303 622 295.5 598.5 c 128,-1,23
 288 575 288 575 276.5 552.5 c 128,-1,24
 265 530 265 530 250.5 506.5 c 128,-1,25
 236 483 236 483 222 456 c 1,26,-1
 207 384 l 1,27,28
 246 449 246 449 312 471 c 0,29,30
 336 479 336 479 365 479 c 0,31,32
 433 479 433 479 468 448.5 c 128,-1,33
 503 418 503 418 503 362.5 c 128,-1,34
 503 307 503 307 488.5 250 c 128,-1,35
 474 193 474 193 467.5 168.5 c 128,-1,36
 461 144 461 144 461 128 c 128,-1,37
 461 112 461 112 472 112 c 0,38,39
 487 112 487 112 509 131 c 128,-1,40
 531 150 531 150 553 172.5 c 128,-1,41
 575 195 575 195 593.5 214 c 128,-1,42
 612 233 612 233 619 233 c 0,43,44
 633 233 633 233 633 199 c 0,45,46
 633 128.6875 633 128.6875 564 64 c 1,47,48
 448 -4 448 -4 416 -4 c 0,49,50
 413 -4 413 -4 412 -3 c 1,51,52
 332 -3 332 -3 332 125 c 0,53,54
 332 180 332 180 342.5 226 c 128,-1,55
 353 272 353 272 358 293 c 128,-1,56
 363 314 363 314 363 336 c 0,0,1
EndSplineSet
EndChar

StartChar: i
Encoding: 105 105 76
Width: 291
Flags: HW
LayerCount: 2
Fore
SplineSet
150 -3 m 1,0,1
 50 -3 50 -3 50 184 c 0,2,3
 50 286 50 286 75 369 c 0,4,5
 113.554216867 497 113.554216867 497 163 497 c 0,6,7
 191.9375 497 191.9375 497 209 458 c 0,8,9
 223 428 223 428 222.5 399 c 0,10,11
 221.813953488 359.209302326 221.813953488 359.209302326 198 258 c 1,12,13
 175 170 175 170 175 149 c 128,-1,14
 175 128 175 128 185.5 120 c 128,-1,15
 196 112 196 112 210.5 112 c 128,-1,16
 225 112 225 112 247 131 c 128,-1,17
 269 150 269 150 291 172.5 c 128,-1,18
 313 195 313 195 331.5 214 c 128,-1,19
 350 233 350 233 357 233 c 0,20,21
 371 233 371 233 371 199 c 0,22,23
 371 128.6875 371 128.6875 300.5 62.34375 c 128,-1,24
 230 -4 230 -4 150 -3 c 1,0,1
191 578 m 1,25,26
 164 618 164 618 164 664 c 128,-1,27
 164 710 164 710 178.5 740.5 c 128,-1,28
 193 771 193 771 206 785.5 c 128,-1,29
 219 800 219 800 235.5 800 c 0,30,31
 264 800 264 800 287 758.5 c 128,-1,32
 310 717 310 717 310 689 c 0,33,34
 310 636.941176471 310 636.941176471 273.5 607.470588235 c 128,-1,35
 237 578 237 578 191 578 c 1,25,26
EndSplineSet
EndChar

StartChar: j
Encoding: 106 106 77
Width: 280
Flags: HW
LayerCount: 2
Fore
SplineSet
126 471 m 1,0,1
 138 499 138 499 165 498.5 c 128,-1,2
 192 498 192 498 217 459.5 c 128,-1,3
 242 421 242 421 242 401.5 c 0,4,5
 242 374.2 242 374.2 220 280.6 c 128,-1,6
 198 187 198 187 167 83 c 1,7,8
 239 130 239 130 326 220 c 0,9,10
 339 234 339 234 346 233 c 1,11,12
 360 233 360 233 360 201.5 c 0,13,14
 360 144.4 360 144.4 294 74.7 c 128,-1,15
 228 5 228 5 129 -39 c 1,16,-1
 103 -120 l 2,17,18
 78 -196 78 -196 42 -230 c 0,19,20
 -5 -274 -5 -274 -81 -274 c 128,-1,21
 -157 -274 -157 -274 -203.5 -236 c 128,-1,22
 -250 -198 -250 -198 -250 -142 c 128,-1,23
 -250 -86 -250 -86 -172 -50 c 0,24,25
 -136 -34 -136 -34 -89.5 -19.5 c 128,-1,26
 -43 -5 -43 -5 10 12 c 1,27,28
 20 65 20 65 27.5 113.5 c 0,29,30
 37.191011236 176.168539326 37.191011236 176.168539326 88 354 c 1,31,32
 112 432 112 432 126 471 c 1,0,1
259 792 m 0,33,34
 321 792 321 792 343 745 c 1,35,36
 340 686 340 686 295 629 c 128,-1,37
 250 572 250 572 194 573 c 1,38,39
 168 614 168 614 168 664 c 128,-1,40
 168 714 168 714 192 753 c 128,-1,41
 216 792 216 792 259 792 c 0,33,34
-16 -94 m 1,42,43
 -52 -107 -52 -107 -78 -115.5 c 128,-1,44
 -104 -124 -104 -124 -131 -133 c 128,-1,45
 -158 -142 -158 -142 -158 -153 c 0,46,47
 -158 -171.6 -158 -171.6 -134 -186 c 1,48,49
 -104 -197 -104 -197 -90 -197 c 0,50,51
 -48 -197 -48 -197 -16 -94 c 1,42,43
EndSplineSet
EndChar

StartChar: k
Encoding: 107 107 78
Width: 510
Flags: HW
LayerCount: 2
Fore
SplineSet
322 219 m 1,0,1
 349 112 349 112 413 112 c 0,2,3
 444 112 444 112 469 131 c 128,-1,4
 494 150 494 150 514 172.5 c 128,-1,5
 534 195 534 195 549 214 c 128,-1,6
 564 233 564 233 577 233 c 128,-1,7
 590 233 590 233 590 199 c 0,8,9
 590 128 590 128 524 62 c 128,-1,10
 458 -4 458 -4 376.5 -3.5 c 128,-1,11
 295 -3 295 -3 231 140 c 0,12,13
 213 180 213 180 197 221 c 1,14,-1
 190 84 l 2,15,16
 190 65 190 65 188 46.5 c 128,-1,17
 186 28 186 28 171 16 c 0,18,19
 132 -15 132 -15 92 -15 c 256,20,21
 45 -15 45 -15 45 82 c 0,22,23
 45 222 45 222 78 375 c 128,-1,24
 111 528 111 528 142.5 605.5 c 128,-1,25
 174 683 174 683 191.5 709 c 128,-1,26
 209 735 209 735 219 741 c 128,-1,27
 229 747 229 747 241.5 747 c 128,-1,28
 254 747 254 747 268 734.5 c 128,-1,29
 282 722 282 722 298 696.5 c 128,-1,30
 314 671 314 671 314.5 646.5 c 128,-1,31
 315 622 315 622 306.5 598.5 c 128,-1,32
 298 575 298 575 284 552.5 c 128,-1,33
 270 530 270 530 253 506.5 c 128,-1,34
 236 483 236 483 219 456 c 1,35,-1
 209 372 l 1,36,37
 244 445 244 445 312 470 c 0,38,39
 336 479 336 479 368 479 c 0,40,41
 432 479 432 479 466 448.5 c 128,-1,42
 500 418 500 418 500 359 c 128,-1,43
 500 300 500 300 441 259 c 128,-1,44
 382 218 382 218 322 219 c 1,0,1
360 336 m 0,45,46
 360 372 360 372 319 372 c 128,-1,47
 278 372 278 372 230 293 c 0,48,49
 216 270 216 270 206 246 c 1,50,51
 310 252 310 252 348 302 c 0,52,53
 360 318 360 318 360 336 c 0,45,46
EndSplineSet
EndChar

StartChar: l
Encoding: 108 108 79
Width: 380
Flags: HW
LayerCount: 2
Fore
SplineSet
253 -3 m 256,0,1
 110 -4 110 -4 58 104 c 0,2,3
 40 142 40 142 40 199.5 c 128,-1,4
 40 257 40 257 50 321.5 c 0,5,6
 70.2339413164 452.008921491 70.2339413164 452.008921491 127 562.5 c 0,7,8
 156 618 156 618 192 658 c 0,9,10
 271 746 271 746 368 745 c 0,11,12
 411 745 411 745 435.5 721.5 c 128,-1,13
 460 698 460 698 460 654 c 128,-1,14
 460 610 460 610 434 565.5 c 128,-1,15
 408 521 408 521 367.5 473.5 c 128,-1,16
 327 426 327 426 278 374 c 128,-1,17
 229 322 229 322 182 261 c 1,18,-1
 182 221 l 2,19,20
 182 165 182 165 206 139 c 128,-1,21
 230 113 230 113 262.5 113 c 0,22,23
 348.428571429 113 348.428571429 113 414 198 c 0,24,25
 441 233 441 233 455 233 c 256,26,27
 469 233 469 233 469 199 c 128,-1,28
 469 165 469 165 450.5 129.5 c 128,-1,29
 432 94 432 94 402 64.5 c 128,-1,30
 372 35 372 35 333 16 c 128,-1,31
 294 -3 294 -3 253 -3 c 256,0,1
340 581 m 128,-1,33
 352 602 352 602 352 624.5 c 128,-1,34
 352 647 352 647 335.5 647 c 0,35,36
 300.588235294 647 300.588235294 647 258.294117647 575 c 128,-1,37
 216 503 216 503 195 386 c 1,38,39
 229 438 229 438 257.5 473 c 128,-1,40
 286 508 286 508 307 534 c 128,-1,32
 328 560 328 560 340 581 c 128,-1,33
EndSplineSet
EndChar

StartChar: m
Encoding: 109 109 80
Width: 769
Flags: HW
LayerCount: 2
Fore
SplineSet
578 304 m 0,0,1
 578 337 578 337 540 337 c 0,2,3
 514 337 514 337 482 286.5 c 128,-1,4
 450 236 450 236 436 178 c 1,5,-1
 436 176 l 2,6,7
 436 142 436 142 446.5 106 c 128,-1,8
 457 70 457 70 457 56 c 0,9,10
 457 22 457 22 372 -11 c 0,11,12
 359 -16 359 -16 349 -16 c 0,13,14
 324 -16 324 -16 314.5 10 c 128,-1,15
 305 36 305 36 305 80.5 c 128,-1,16
 305 125 305 125 307.5 164.5 c 128,-1,17
 310 204 310 204 312.5 237.5 c 128,-1,18
 315 271 315 271 317.5 296.5 c 128,-1,19
 320 322 320 322 320 338 c 0,20,21
 320 372 320 372 289 372 c 128,-1,22
 258 372 258 372 217 299.5 c 128,-1,23
 176 227 176 227 176 184.5 c 128,-1,24
 176 142 176 142 186.5 106 c 128,-1,25
 197 70 197 70 197 56 c 0,26,27
 197 22 197 22 112 -11 c 0,28,29
 99 -16 99 -16 89 -16 c 0,30,31
 64 -16 64 -16 54.5 10 c 128,-1,32
 45 36 45 36 45 90.5 c 0,33,34
 45 231.75 45 231.75 56 295 c 0,35,36
 71 388 71 388 124 471 c 0,37,38
 142 499 142 499 163 499 c 0,39,40
 196 499 196 499 224 445 c 0,41,42
 232 431 232 431 236 419 c 1,43,44
 284 479 284 479 349 479 c 0,45,46
 392 479 392 479 426 450.5 c 128,-1,47
 460 422 460 422 460 379 c 2,48,-1
 460 368 l 1,49,50
 521 444 521 444 609 444 c 0,51,52
 663 444 663 444 691 416 c 128,-1,53
 719 388 719 388 719 347 c 128,-1,54
 719 306 719 306 713 273 c 128,-1,55
 707 240 707 240 699.5 211 c 128,-1,56
 692 182 692 182 686 159.5 c 128,-1,57
 680 137 680 137 680 124.5 c 128,-1,58
 680 112 680 112 688 112 c 0,59,60
 703 112 703 112 725 131 c 128,-1,61
 747 150 747 150 769 172.5 c 128,-1,62
 791 195 791 195 809.5 214 c 128,-1,63
 828 233 828 233 835 233 c 0,64,65
 849 233 849 233 849 199 c 0,66,67
 849 128.6875 849 128.6875 778.5 62.84375 c 128,-1,68
 708 -3 708 -3 628 -3 c 0,69,70
 556 -3 556 -3 556 128 c 256,71,72
 556 161 556 161 567 219 c 128,-1,73
 578 277 578 277 578 304 c 0,0,1
EndSplineSet
EndChar

StartChar: n
Encoding: 110 110 81
Width: 537
Flags: HW
LayerCount: 2
Fore
SplineSet
163 499 m 0,0,1
 198.8 499 198.8 499 231 430 c 1,2,3
 278 479 278 479 347.5 479 c 128,-1,4
 417 479 417 479 452 448.5 c 128,-1,5
 487 418 487 418 487 362.5 c 128,-1,6
 487 307 487 307 472.5 250 c 128,-1,7
 458 193 458 193 451.5 168.5 c 128,-1,8
 445 144 445 144 445 128 c 128,-1,9
 445 112 445 112 456 112 c 0,10,11
 471 112 471 112 493 131 c 128,-1,12
 515 150 515 150 537 172.5 c 128,-1,13
 559 195 559 195 577.5 214 c 128,-1,14
 596 233 596 233 603 233 c 0,15,16
 617 233 617 233 617 199 c 0,17,18
 617 128.6875 617 128.6875 548 64 c 1,19,20
 432 -4 432 -4 400 -4 c 0,21,22
 397 -4 397 -4 396 -3 c 1,23,24
 316 -3 316 -3 316 125 c 0,25,26
 316 180 316 180 326.5 226 c 128,-1,27
 337 272 337 272 342 293 c 128,-1,28
 347 314 347 314 347 336 c 0,29,30
 347 372 347 372 305.5 372 c 128,-1,31
 264 372 264 372 226.5 310.5 c 128,-1,32
 189 249 189 249 176 183 c 1,33,-1
 176 176 l 2,34,35
 176 142 176 142 186.5 106 c 128,-1,36
 197 70 197 70 197 56 c 0,37,38
 197 22 197 22 112 -11 c 0,39,40
 99 -16 99 -16 89 -16 c 0,41,42
 64 -16 64 -16 54.5 10 c 128,-1,43
 45 36 45 36 45 91 c 0,44,45
 45 232.75 45 232.75 56 296 c 0,46,47
 71 390 71 390 124 471 c 0,48,49
 142 499 142 499 163 499 c 0,0,1
EndSplineSet
EndChar

StartChar: o
Encoding: 111 111 82
Width: 543
Flags: HW
LayerCount: 2
Fore
SplineSet
434 85 m 1,0,1
 355 -8 355 -8 244.5 -8 c 128,-1,2
 134 -8 134 -8 79 48.5 c 128,-1,3
 24 105 24 105 25 189 c 1,4,5
 24 308 24 308 100 394 c 128,-1,6
 176 480 176 480 299 480 c 0,7,8
 355 480 355 480 389 466 c 0,9,10
 448 442 448 442 448 421 c 0,11,12
 448 405 448 405 365.5 404.5 c 128,-1,13
 283 404 283 404 227.5 347.5 c 128,-1,14
 172 291 172 291 172 205 c 0,15,16
 172 160 172 160 198.5 129.5 c 128,-1,17
 225 99 225 99 273.5 99 c 128,-1,18
 322 99 322 99 354 119 c 1,19,20
 283 167 283 167 283 258 c 1,21,22
 282 306 282 306 317.5 345.5 c 128,-1,23
 353 385 353 385 408.5 385.5 c 128,-1,24
 464 386 464 386 488 355 c 128,-1,25
 512 324 512 324 512 275.5 c 128,-1,26
 512 227 512 227 489 173 c 1,27,-1
 495 173 l 1,28,29
 539 174 539 174 571 204 c 0,30,31
 583 216 583 216 591.5 225 c 128,-1,32
 600 234 600 234 609 234 c 0,33,34
 623 234 623 234 623 201 c 0,35,36
 623 139.833333333 623 139.833333333 587 109.416666667 c 128,-1,37
 551 79 551 79 507.5 79 c 128,-1,38
 464 79 464 79 434 85 c 1,0,1
425 201 m 1,39,40
 442 237 442 237 442 271 c 128,-1,41
 442 305 442 305 420 305 c 0,42,43
 411 305 411 305 405 292 c 128,-1,44
 399 279 399 279 399 267 c 0,45,46
 399 227 399 227 425 201 c 1,39,40
EndSplineSet
EndChar

StartChar: p
Encoding: 112 112 83
Width: 550
Flags: HW
LayerCount: 2
Fore
SplineSet
219 419 m 1,0,1
 271 478 271 478 352 478 c 0,2,3
 468 478 468 478 499 384 c 0,4,5
 508 356 508 356 508 321.5 c 0,6,7
 508 246.434782609 508 246.434782609 458.5 172.217391304 c 128,-1,8
 409 98 409 98 339 72 c 1,9,-1
 351 72 l 2,10,11
 424 72 424 72 499 126 c 0,12,13
 547 160 547 160 574.5 196.5 c 128,-1,14
 602 233 602 233 616 233 c 256,15,16
 630 233 630 233 630 201 c 0,17,18
 630 144.727272727 630 144.727272727 582 88 c 1,19,20
 510 6 510 6 398 -8 c 1,21,22
 316.825203252 -16.5447154472 316.825203252 -16.5447154472 282.912601626 -10.7723577236 c 128,-1,23
 249 -5 249 -5 231 4 c 0,24,25
 192 24 192 24 192 64 c 0,26,27
 192 86 192 86 201 104 c 1,28,29
 280 104 280 104 321 164 c 128,-1,30
 362 224 362 224 362 314 c 0,31,32
 362 336 362 336 346 353.5 c 128,-1,33
 330 371 330 371 303.5 371 c 128,-1,34
 277 371 277 371 246 348 c 128,-1,35
 215 325 215 325 196.5 290.5 c 128,-1,36
 178 256 178 256 163 222.5 c 128,-1,37
 148 189 148 189 139 138 c 0,38,39
 122.8 46.2 122.8 46.2 102.4 -94.4 c 128,-1,40
 82 -235 82 -235 77 -245.5 c 128,-1,41
 72 -256 72 -256 62 -265 c 128,-1,42
 52 -274 52 -274 41 -274 c 256,43,44
 21 -274 21 -274 8 -262 c 0,45,46
 -28 -231 -28 -231 -34 -214.5 c 128,-1,47
 -40 -198 -40 -198 -40 -171.5 c 0,48,49
 -40 -74.5 -40 -74.5 -7 102.75 c 128,-1,50
 26 280 26 280 107 471 c 0,51,52
 119 499 119 499 149.5 499 c 128,-1,53
 180 499 180 499 208 445 c 0,54,55
 216 431 216 431 219 419 c 1,0,1
EndSplineSet
EndChar

StartChar: q
Encoding: 113 113 84
Width: 573
Flags: HW
LayerCount: 2
Fore
SplineSet
500 12 m 1,0,1
 526 -70 526 -70 526 -126 c 128,-1,2
 526 -182 526 -182 514 -207 c 0,3,4
 481.84 -274 481.84 -274 380 -274 c 0,5,6
 319 -274 319 -274 295.5 -246.5 c 128,-1,7
 272 -219 272 -219 272 -185 c 0,8,9
 272 -90 272 -90 290 18 c 1,10,11
 247 -8 247 -8 178.5 -8 c 128,-1,12
 110 -8 110 -8 67 36 c 128,-1,13
 24 80 24 80 25 143 c 1,14,15
 25 313 25 313 138 411 c 0,16,17
 216 478 216 478 300 478 c 0,18,19
 356 478 356 478 396 460 c 0,20,21
 407 455 407 455 410 451 c 1,22,-1
 419 471 l 2,23,24
 431 499 431 499 458.5 498.5 c 128,-1,25
 486 498 486 498 511 459.5 c 128,-1,26
 536 421 536 421 535.5 391.5 c 128,-1,27
 535 362 535 362 524.5 332.5 c 128,-1,28
 514 303 514 303 500.5 274.5 c 128,-1,29
 487 246 487 246 473.5 216 c 128,-1,30
 460 186 460 186 453 148 c 2,31,-1
 447 114 l 1,32,33
 459 111 459 111 476.5 111 c 0,34,35
 530.142857143 111 530.142857143 111 598.5 198 c 0,36,37
 626 233 626 233 639.5 233 c 128,-1,38
 653 233 653 233 653 202.5 c 0,39,40
 653 147.9 653 147.9 610 92 c 1,41,42
 564 36 564 36 500 12 c 1,0,1
172 176 m 0,43,44
 172 99 172 99 229 99 c 0,45,46
 277 99 277 99 313 141 c 1,47,48
 342 269 342 269 395 412 c 1,49,50
 307 400 307 400 246 343 c 0,51,52
 172 274 172 274 172 176 c 0,43,44
421 11 m 1,53,54
 393 -111 393 -111 393 -154 c 128,-1,55
 393 -197 393 -197 416 -197 c 0,56,57
 428 -197 428 -197 438 -178.5 c 128,-1,58
 448 -160 448 -160 448 -129 c 0,59,60
 448 -55 448 -55 421 11 c 1,53,54
EndSplineSet
EndChar

StartChar: r
Encoding: 114 114 85
Width: 457
Flags: HW
LayerCount: 2
Fore
SplineSet
176 168 m 1,0,-1
 182 46.5 l 1,1,2
 182 22.5 182 22.5 157 3.25 c 128,-1,3
 132 -16 132 -16 89 -16 c 256,4,5
 64 -16 64 -16 54.5 10 c 128,-1,6
 45 36 45 36 45 85.5 c 0,7,8
 45 191.333333333 45 191.333333333 55.5 250.666666667 c 128,-1,9
 66 310 66 310 97 371 c 1,10,11
 51 415 51 415 51 447 c 0,12,13
 51 514 51 514 123 514 c 0,14,15
 160 514 160 514 188 475 c 0,16,17
 208 448 208 448 217 412 c 1,18,19
 231 407 231 407 252 407 c 0,20,21
 281 407 281 407 319 426 c 2,22,-1
 345 439 l 2,23,24
 357 445 357 445 366.5 445 c 0,25,26
 394.921052632 445 394.921052632 445 424 360 c 1,27,28
 415 321 415 321 404.5 285 c 128,-1,29
 394 249 394 249 380 198 c 128,-1,30
 366 147 366 147 365.5 129.5 c 128,-1,31
 365 112 365 112 376 112 c 0,32,33
 391 112 391 112 413 131 c 128,-1,34
 435 150 435 150 457 172.5 c 128,-1,35
 479 195 479 195 497.5 214 c 128,-1,36
 516 233 516 233 523 233 c 0,37,38
 537 233 537 233 537 199 c 0,39,40
 537 129.555555556 537 129.555555556 476.5 62.7777777778 c 128,-1,41
 416 -4 416 -4 338 -3 c 0,42,43
 292 -3 292 -3 269 34 c 128,-1,44
 246 71 246 71 245 124 c 1,45,46
 245 229 245 229 292 323 c 1,47,48
 270 314 270 314 242.5 314 c 128,-1,49
 215 314 215 314 203 316 c 1,50,51
 194 278 194 278 185 239.5 c 128,-1,52
 176 201 176 201 176 168 c 1,0,-1
EndSplineSet
EndChar

StartChar: s
Encoding: 115 115 86
Width: 401
Flags: HW
LayerCount: 2
Fore
SplineSet
358 459.5 m 128,-1,1
 391 434 391 434 391 386.5 c 128,-1,2
 391 339 391 339 362.5 305.5 c 128,-1,3
 334 272 334 272 293 258 c 1,4,5
 322 228 322 228 345.5 197 c 128,-1,6
 369 166 369 166 369 132 c 0,7,8
 369 65 369 65 316 28.5 c 128,-1,9
 263 -8 263 -8 168.5 -8 c 128,-1,10
 74 -8 74 -8 27 29.5 c 128,-1,11
 -20 67 -20 67 -20 114.5 c 128,-1,12
 -20 162 -20 162 3.5 201 c 128,-1,13
 27 240 27 240 54 240 c 0,14,15
 70 240 70 240 77 228.5 c 128,-1,16
 84.1111111111 216.817460317 84.1111111111 216.817460317 103 161.5 c 0,17,18
 110 142 110 142 126 124 c 0,19,20
 163 83 163 83 243 83 c 1,21,22
 231 121 231 121 204.5 148.5 c 128,-1,23
 178 176 178 176 152 202 c 128,-1,24
 126 228 126 228 106 257.5 c 128,-1,25
 86 287 86 287 86 327 c 0,26,27
 86 399 86 399 140 444 c 1,28,29
 191 484 191 484 258 484.5 c 128,-1,0
 325 485 325 485 358 459.5 c 128,-1,1
254 299 m 1,30,31
 294 342 294 342 294 368 c 0,32,33
 294 380 294 380 285.5 389.5 c 128,-1,34
 277 399 277 399 261 399 c 128,-1,35
 245 399 245 399 230.5 395 c 128,-1,36
 216 391 216 391 207 389 c 1,37,38
 207 351 207 351 254 299 c 1,30,31
EndSplineSet
EndChar

StartChar: t
Encoding: 116 116 87
Width: 317
Flags: HW
LayerCount: 2
Fore
SplineSet
58 116.5 m 128,-1,1
 53 152 53 152 53 216 c 128,-1,2
 53 280 53 280 77 389 c 1,3,-1
 32 389 l 2,4,5
 20 389 20 389 20 399 c 0,6,7
 20 423 20 423 24.5 438.5 c 128,-1,8
 29 454 29 454 46 474 c 1,9,-1
 70 474 l 2,10,11
 84 474 84 474 100 475 c 1,12,13
 148 629 148 629 198 629 c 1,14,15
 238 628 238 628 254 578 c 0,16,17
 258 564 258 564 263 548 c 1,18,-1
 222 476 l 1,19,20
 292 474 292 474 310.5 474 c 128,-1,21
 329 474 329 474 330.5 470.5 c 128,-1,22
 332 467 332 467 332 460 c 0,23,24
 332 442 332 442 323.5 415 c 128,-1,25
 315 388 315 388 304 389 c 258,26,-1
 204 394 l 1,27,28
 183 272 183 272 183 192 c 128,-1,29
 183 112 183 112 206 112 c 0,30,31
 225 112 225 112 275 143.5 c 128,-1,32
 325 175 325 175 347 204 c 128,-1,33
 369 233 369 233 383 233 c 256,34,35
 397 233 397 233 397 199 c 128,-1,36
 397 165 397 165 373 129.5 c 128,-1,37
 349 94 349 94 312.5 64.5 c 128,-1,38
 276 35 276 35 231.5 16 c 128,-1,39
 187 -3 187 -3 154 -3 c 128,-1,40
 121 -3 121 -3 103.5 12.5 c 128,-1,41
 86 28 86 28 74.5 54.5 c 128,-1,0
 63 81 63 81 58 116.5 c 128,-1,1
EndSplineSet
EndChar

StartChar: u
Encoding: 117 117 88
Width: 533
Flags: HW
LayerCount: 2
Fore
SplineSet
341 422 m 2,0,1
 341 489 341 489 445 489 c 0,2,3
 471 489 471 489 477.5 472 c 128,-1,4
 484 455 484 455 484 420 c 0,5,6
 484 371.25 484 371.25 462 268.125 c 128,-1,7
 440 165 440 165 441 129 c 0,8,9
 441 112 441 112 452 112 c 0,10,11
 467 112 467 112 489 131 c 128,-1,12
 511 150 511 150 533 172.5 c 128,-1,13
 555 195 555 195 573.5 214 c 128,-1,14
 592 233 592 233 599 233 c 0,15,16
 613 233 613 233 613 199 c 0,17,18
 613 128.6875 613 128.6875 544 64 c 1,19,20
 428 -4 428 -4 397 -4 c 0,21,22
 394 -4 394 -4 392 -3 c 1,23,24
 354 -3 354 -3 338.5 22 c 128,-1,25
 323 47 323 47 319 85 c 1,26,27
 299 48 299 48 264 21.5 c 128,-1,28
 229 -5 229 -5 184.5 -5 c 0,29,30
 105.428571429 -5 105.428571429 -5 62.7142857143 25 c 128,-1,31
 20 55 20 55 20 114 c 0,32,33
 20 140 20 140 27.5 162 c 128,-1,34
 35 184 35 184 52 216 c 1,35,-1
 81 462 l 1,36,37
 112 486 112 486 170 486 c 0,38,39
 216 486 216 486 222 426 c 0,40,41
 227.484536082 376.639175258 227.484536082 376.639175258 217.742268041 338.319587629 c 128,-1,42
 208 300 208 300 192 241.5 c 128,-1,43
 176 183 176 183 176 138 c 0,44,45
 176 102 176 102 221 102 c 0,46,47
 270 102 270 102 306 188 c 0,48,49
 334 254 334 254 344 335 c 1,50,51
 343 343 343 343 342.5 355.5 c 128,-1,52
 342 368 342 368 341.5 380 c 128,-1,53
 341 392 341 392 341 404 c 2,54,-1
 341 422 l 2,0,1
EndSplineSet
EndChar

StartChar: v
Encoding: 118 118 89
Width: 504
Flags: HW
LayerCount: 2
Fore
SplineSet
188 439.5 m 0,0,1
 188 373.090909091 188 373.090909091 164 288 c 1,2,3
 166 256 166 256 166 226 c 128,-1,4
 166 196 166 196 170 174 c 1,5,6
 185 134 185 134 208 125 c 1,7,8
 228 125 228 125 252 159.5 c 128,-1,9
 276 194 276 194 301 242 c 1,10,11
 289 288 289 288 289 329 c 0,12,13
 289 401 289 401 311 434 c 0,14,15
 338 476 338 476 393 476 c 128,-1,16
 448 476 448 476 466 434 c 0,17,18
 473 418 473 418 473 397.5 c 0,19,20
 473 361.777777778 473 361.777777778 455 324.388888889 c 128,-1,21
 437 287 437 287 397 226 c 1,22,23
 415 173 415 173 451 173 c 0,24,25
 495 174 495 174 527 204 c 0,26,27
 539 216 539 216 547.5 225 c 128,-1,28
 556 234 556 234 565 234 c 0,29,30
 579 234 579 234 579 201 c 0,31,32
 579 138.777777778 579 138.777777778 543.5 110.388888889 c 128,-1,33
 508 82 508 82 454 82 c 0,34,35
 383 82 383 82 341 144 c 1,36,37
 224 -8 224 -8 145 -8 c 0,38,39
 114 -8 114 -8 84 80 c 128,-1,40
 54 168 54 168 38 318 c 1,41,42
 26.4670050761 413.147208122 26.4670050761 413.147208122 52 454 c 1,43,44
 74 486 74 486 138 486 c 0,45,46
 162 486 162 486 175 471.5 c 128,-1,47
 188 457 188 457 188 439.5 c 0,0,1
EndSplineSet
EndChar

StartChar: w
Encoding: 119 119 90
Width: 755
Flags: HW
LayerCount: 2
Fore
SplineSet
188 440 m 0,0,1
 188 373.090909091 188 373.090909091 164 288 c 1,2,3
 166 256 166 256 166.5 226.5 c 0,4,5
 167.590163934 162.180327869 167.590163934 162.180327869 182.5 138.5 c 0,6,7
 192 125 192 125 208 125 c 0,8,9
 239 125 239 125 285 169 c 1,10,11
 250 252 250 252 250 319 c 0,12,13
 250 456 250 456 379 456 c 0,14,15
 423 456 423 456 452.5 430.5 c 128,-1,16
 482 405 482 405 482 367 c 0,17,18
 482 287 482 287 393 175 c 1,19,20
 430 131 430 131 453 124 c 1,21,22
 486 124 486 124 552 246 c 1,23,24
 540 291 540 291 540 330.5 c 0,25,26
 540 401 540 401 562 434 c 0,27,28
 589 476 589 476 651.5 476 c 128,-1,29
 714 476 714 476 722 425 c 0,30,31
 724 410 724 410 724 393 c 0,32,33
 724 329 724 329 653 216 c 1,34,35
 678 180 678 180 700 173 c 1,36,37
 746.173913043 173 746.173913043 173 778 203.5 c 0,38,39
 790 215 790 215 798.5 224.5 c 128,-1,40
 807 234 807 234 816 234 c 0,41,42
 830 234 830 234 830 201 c 0,43,44
 830 139.555555556 830 139.555555556 794 110.777777778 c 128,-1,45
 758 82 758 82 700 82 c 128,-1,46
 642 82 642 82 599 138 c 1,47,48
 547 70 547 70 513 43 c 0,49,50
 451 -8 451 -8 416 -8 c 0,51,52
 399 -8 399 -8 372.5 20.5 c 128,-1,53
 346 49 346 49 320 95 c 1,54,55
 272 50 272 50 225 21 c 128,-1,56
 178 -8 178 -8 146 -8 c 0,57,58
 88 -8 88 -8 48 244 c 0,59,60
 34 330 34 330 34.5 361.5 c 0,61,62
 35.5504885993 427.680781759 35.5504885993 427.680781759 52 454 c 1,63,64
 74 486 74 486 138 486 c 0,65,66
 162 486 162 486 175 471.5 c 128,-1,67
 188 457 188 457 188 440 c 0,0,1
359 260 m 1,68,69
 392 311 392 311 392 341.5 c 128,-1,70
 392 372 392 372 371 372 c 0,71,72
 357 372 357 372 353.5 356.5 c 128,-1,73
 350 341 350 341 350 316 c 128,-1,74
 350 291 350 291 359 260 c 1,68,69
EndSplineSet
EndChar

StartChar: x
Encoding: 120 120 91
Width: 495
Flags: HW
LayerCount: 2
Fore
SplineSet
178.5 27.5 m 128,-1,1
 154 -4 154 -4 139 -4 c 0,2,3
 109.666666667 -4 109.666666667 -4 86.8333333333 9 c 128,-1,4
 64 22 64 22 65 36 c 0,5,6
 65 37 65 37 75.5 49.5 c 0,7,8
 140.46875 126.84375 140.46875 126.84375 201 206 c 1,9,10
 180 284 180 284 162 306 c 0,11,12
 154 316 154 316 144 315 c 1,13,14
 106 315 106 315 89 336 c 128,-1,15
 72 357 72 357 72 378 c 0,16,17
 72 413.333333333 72 413.333333333 100.5 453.166666667 c 128,-1,18
 129 493 129 493 164.5 493 c 128,-1,19
 200 493 200 493 237 454.5 c 128,-1,20
 274 416 274 416 303 353 c 1,21,-1
 306 343 l 1,22,23
 319 359 319 359 333.5 376.5 c 0,24,25
 388.347826087 442.695652174 388.347826087 442.695652174 398.173913043 461.847826087 c 128,-1,26
 408 481 408 481 420.5 481 c 0,27,28
 446 481 446 481 472 470 c 128,-1,29
 498 459 498 459 497.5 440 c 128,-1,30
 497 421 497 421 485.5 407.5 c 128,-1,31
 474 394 474 394 453 375.5 c 128,-1,32
 432 357 432 357 402 329 c 128,-1,33
 372 301 372 301 335 254 c 1,34,35
 361 179 361 179 371 158 c 0,36,37
 394 112 394 112 414 112 c 0,38,39
 429 112 429 112 451 131 c 128,-1,40
 473 150 473 150 495 172.5 c 128,-1,41
 517 195 517 195 535.5 214 c 128,-1,42
 554 233 554 233 561 233 c 0,43,44
 575 233 575 233 575 199 c 0,45,46
 575 128.6875 575 128.6875 504.5 62.84375 c 128,-1,47
 434 -3 434 -3 354 -3 c 0,48,49
 316 -3 316 -3 286.5 27.5 c 128,-1,50
 257 58 257 58 232 105 c 1,51,0
 203 59 203 59 178.5 27.5 c 128,-1,1
EndSplineSet
EndChar

StartChar: y
Encoding: 121 121 92
Width: 535
Flags: HW
LayerCount: 2
Fore
SplineSet
299 73 m 1,0,1
 249 4 249 4 165 4 c 0,2,3
 97 4 97 4 56.5 32.5 c 128,-1,4
 16 61 16 61 16 123 c 0,5,6
 16 149 16 149 23.5 171 c 128,-1,7
 31 193 31 193 48 225 c 1,8,-1
 77 462 l 1,9,10
 108 486 108 486 161 486 c 0,11,12
 206 486 206 486 212 426 c 0,13,14
 214 408 214 408 214 383.5 c 128,-1,15
 214 359 214 359 206 331.5 c 0,16,17
 165.958709677 193.858064516 165.958709677 193.858064516 167 147 c 0,18,19
 167 111 167 111 209 111 c 128,-1,20
 251 111 251 111 271 138 c 128,-1,21
 291 165 291 165 305 205 c 1,22,23
 331 316 331 316 353.5 388 c 128,-1,24
 376 460 376 460 382 474 c 0,25,26
 392 498 392 498 420 499 c 1,27,28
 448 498 448 498 473 459.5 c 128,-1,29
 498 421 498 421 497.5 400.5 c 0,30,31
 495.788212435 330.316709845 495.788212435 330.316709845 411 47 c 1,32,33
 476 98 476 98 540 172 c 0,34,35
 562 198 562 198 577 215.5 c 128,-1,36
 592 233 592 233 601 233 c 0,37,38
 615 233 615 233 615 201 c 0,39,40
 615 137.9375 615 137.9375 544.5 53.96875 c 128,-1,41
 474 -30 474 -30 372 -77 c 1,42,43
 360 -117 360 -117 346 -153 c 128,-1,44
 332 -189 332 -189 310 -216 c 0,45,46
 262 -274 262 -274 164 -274 c 0,47,48
 98 -274 98 -274 51.5 -236 c 128,-1,49
 5 -198 5 -198 5 -141 c 0,50,51
 5 -109 5 -109 26.5 -90 c 128,-1,52
 48 -71 48 -71 85.5 -58.5 c 128,-1,53
 123 -46 123 -46 173 -36.5 c 128,-1,54
 223 -27 223 -27 280 -13 c 1,55,56
 294 47 294 47 299 73 c 1,0,1
163 -197 m 1,57,58
 210 -197 210 -197 248 -115 c 1,59,60
 212 -122 212 -122 184 -125.5 c 128,-1,61
 156 -129 156 -129 136 -132 c 0,62,63
 96 -138 96 -138 97 -153 c 1,64,65
 97 -172 97 -172 119.5 -185 c 128,-1,66
 142 -198 142 -198 163 -197 c 1,57,58
EndSplineSet
EndChar

StartChar: z
Encoding: 122 122 93
Width: 468
Flags: HW
LayerCount: 2
Fore
SplineSet
323.5 435 m 0,0,1
 442 435 442 435 442 392.5 c 0,2,3
 442 368 442 368 425 313 c 1,4,5
 335 164 335 164 243 102 c 1,6,7
 287 91 287 91 327 91 c 128,-1,8
 367 91 367 91 401.5 113 c 128,-1,9
 436 135 436 135 462 162 c 128,-1,10
 488 189 488 189 505.5 211 c 128,-1,11
 523 233 523 233 534 233 c 0,12,13
 548 233 548 233 548 195 c 128,-1,14
 548 157 548 157 526 119.5 c 128,-1,15
 504 82 504 82 465 53 c 0,16,17
 379 -11 379 -11 258 -11 c 0,18,19
 209 -11 209 -11 173 1.5 c 128,-1,20
 137 14 137 14 121.5 25 c 128,-1,21
 106 36 106 36 106 55.5 c 128,-1,22
 106 75 106 75 113 107 c 1,23,24
 128 128 128 128 161.5 153 c 128,-1,25
 195 178 195 178 228.5 205 c 128,-1,26
 262 232 262 232 287.5 259 c 128,-1,27
 313 286 313 286 313 312 c 0,28,29
 313 322 313 322 266 322 c 257,30,-1
 101 313 l 1,31,32
 75 313 75 313 62.5 328.5 c 128,-1,33
 50 344 50 344 50 364.5 c 0,34,35
 50 410 50 410 84.5 445 c 128,-1,36
 119 480 119 480 175 481 c 0,37,38
 199 481 199 481 232 465 c 128,-1,39
 265 449 265 449 284.5 442 c 128,-1,40
 304 435 304 435 323.5 435 c 0,0,1
EndSplineSet
EndChar

StartChar: braceleft
Encoding: 123 123 94
Width: 485
Flags: HW
LayerCount: 2
Fore
SplineSet
349.5 -252 m 128,-1,1
 363 -247 363 -247 388 -247 c 128,-1,2
 413 -247 413 -247 413 -261 c 0,3,4
 413 -285.75 413 -285.75 362 -298.875 c 0,5,6
 252.98835253 -326.929468099 252.98835253 -326.929468099 185.5 -294.5 c 0,7,8
 148 -276 148 -276 120 -244 c 0,9,10
 62 -178 62 -178 62 -82 c 0,11,12
 62 -59 62 -59 73.5 -13 c 128,-1,13
 85 33 85 33 90.5 56.5 c 128,-1,14
 96 80 96 80 96 105.5 c 128,-1,15
 96 131 96 131 80.5 160.5 c 128,-1,16
 65 190 65 190 46.5 216.5 c 128,-1,17
 28 243 28 243 12.5 265.5 c 128,-1,18
 -3 288 -3 288 -3 302 c 128,-1,19
 -3 316 -3 316 12 322 c 1,20,21
 58 349 58 349 90 400 c 128,-1,22
 122 451 122 451 121.5 483 c 0,23,24
 120.881355932 522.593220339 120.881355932 522.593220339 104.940677966 602.296610169 c 128,-1,25
 89 682 89 682 89 719 c 0,26,27
 89 788 89 788 140 818.5 c 128,-1,28
 191 849 191 849 274.5 849 c 128,-1,29
 358 849 358 849 428 830 c 0,30,31
 446 825 446 825 447 819 c 1,32,33
 447 802 447 802 412.5 787 c 128,-1,34
 378 772 378 772 355 772 c 0,35,36
 331.333333333 772 331.333333333 772 295.666666667 779.5 c 128,-1,37
 260 787 260 787 227 789 c 1,38,39
 224 778 224 778 224 759 c 0,40,41
 224 731.666666667 224 731.666666667 240 656.833333333 c 128,-1,42
 256 582 256 582 256 549 c 0,43,44
 256 487.2 256 487.2 214 419.6 c 128,-1,45
 172 352 172 352 117 307 c 1,46,47
 234 209 234 209 234 133 c 0,48,49
 234 110 234 110 221.5 61 c 128,-1,50
 209 12 209 12 203 -13 c 128,-1,51
 197 -38 197 -38 197 -63 c 0,52,53
 197 -129.875 197 -129.875 228 -188 c 0,54,55
 264 -257 264 -257 319 -257 c 0,56,0
 336 -257 336 -257 349.5 -252 c 128,-1,1
EndSplineSet
EndChar

StartChar: bar
Encoding: 124 124 95
Width: 462
Flags: HW
LayerCount: 2
Fore
SplineSet
265 -61 m 2,0,1
 265 -68 265 -68 250.5 -68 c 0,2,3
 225 -68 225 -68 202 -44.5 c 128,-1,4
 179 -21 179 -21 179 -3 c 2,5,-1
 176 752 l 1,6,7
 178 761 178 761 181.5 763 c 128,-1,8
 185 765 185 765 192.5 765 c 0,9,10
 208.333333333 765 208.333333333 765 234.666666667 743.5 c 128,-1,11
 261 722 261 722 261 704 c 0,12,13
 265 602 265 602 265 466 c 2,14,-1
 263 78 l 1,15,-1
 265 -61 l 2,0,1
EndSplineSet
EndChar

StartChar: braceright
Encoding: 125 125 96
Width: 485
Flags: HW
LayerCount: 2
Fore
SplineSet
116 -236 m 0,0,1
 250 -236 250 -236 250 -184 c 0,2,3
 250 -149 250 -149 239 -117 c 128,-1,4
 228 -85 228 -85 223 -65.5 c 128,-1,5
 218 -46 218 -46 218 -18 c 0,6,7
 218 38.4 218 38.4 261 115.7 c 128,-1,8
 304 193 304 193 357 239 c 1,9,10
 240 343 240 343 240 414 c 0,11,12
 240 436 240 436 252.5 482 c 128,-1,13
 265 528 265 528 271 551 c 128,-1,14
 277 574 277 574 277 599 c 128,-1,15
 277 624 277 624 269 659 c 0,16,17
 262 694 262 694 246 724 c 0,18,19
 210 793 210 793 155 793 c 0,20,21
 138 793 138 793 124.5 788 c 128,-1,22
 111 783 111 783 86 783 c 128,-1,23
 61 783 61 783 61 797 c 0,24,25
 61 821.75 61 821.75 112 834.875 c 0,26,27
 221.01164747 862.929468099 221.01164747 862.929468099 288.5 830.5 c 0,28,29
 326 812 326 812 354 780 c 0,30,31
 412 714 412 714 412 618 c 0,32,33
 412 595 412 595 400.5 553 c 128,-1,34
 389 511 389 511 383.5 489 c 128,-1,35
 378 467 378 467 378 441.5 c 128,-1,36
 378 416 378 416 393.5 390 c 128,-1,37
 409 364 409 364 427.5 341 c 128,-1,38
 446 318 446 318 461.5 298 c 128,-1,39
 477 278 477 278 477 266 c 128,-1,40
 477 254 477 254 462 245 c 1,41,42
 420 223 420 223 387 153 c 128,-1,43
 354 83 354 83 353.5 47 c 0,44,45
 352.904347826 4.11304347826 352.904347826 4.11304347826 369 -71 c 128,-1,46
 385 -146 385 -146 385 -183 c 0,47,48
 385 -252 385 -252 334 -282.5 c 128,-1,49
 283 -313 283 -313 199.5 -313 c 128,-1,50
 116 -313 116 -313 46 -294 c 0,51,52
 28 -289 28 -289 27 -283 c 1,53,54
 27 -266 27 -266 61.5 -251 c 128,-1,55
 96 -236 96 -236 116 -236 c 0,0,1
EndSplineSet
EndChar

StartChar: asciitilde
Encoding: 126 126 97
Width: 510
Flags: HW
LayerCount: 2
Fore
SplineSet
50 270 m 1,0,1
 64 311 64 311 94.5 327 c 128,-1,2
 125 343 125 343 158.5 343 c 128,-1,3
 192 343 192 343 214 337.5 c 128,-1,4
 236 332 236 332 275 320 c 0,5,6
 314 308 314 308 339 308 c 128,-1,7
 364 308 364 308 382 315 c 128,-1,8
 400 322 400 322 411 344 c 1,9,-1
 460 323 l 1,10,11
 446 282 446 282 415.5 266 c 128,-1,12
 385 250 385 250 352 250 c 128,-1,13
 319 250 319 250 297 256 c 0,14,15
 275 262 275 262 234.5 274 c 0,16,17
 194 286 194 286 170 285.5 c 128,-1,18
 146 285 146 285 128 278 c 128,-1,19
 110 271 110 271 99 249 c 1,20,-1
 50 270 l 1,0,1
EndSplineSet
EndChar

StartChar: exclamdown
Encoding: 161 161 98
Width: 497
Flags: HW
LayerCount: 2
Fore
SplineSet
156 -232 m 0,0,1
 139 -249 139 -249 120 -249 c 0,2,3
 87 -249 87 -249 63.5 -225.5 c 128,-1,4
 40 -202 40 -202 40 -187 c 0,5,6
 41 -160 41 -160 59.5 -129.5 c 128,-1,7
 78 -99 78 -99 100 -65.5 c 128,-1,8
 122 -32 122 -32 140 4.5 c 128,-1,9
 158 41 158 41 158 70.5 c 128,-1,10
 158 100 158 100 153 126.5 c 128,-1,11
 148 153 148 153 148 170 c 0,12,13
 148 201 148 201 184 219 c 0,14,15
 221 237 221 237 254.5 237 c 128,-1,16
 288 237 288 237 297.5 220.5 c 128,-1,17
 307 204 307 204 307 169.5 c 0,18,19
 307 87.0526315789 307 87.0526315789 265.5 -39.4736842105 c 128,-1,20
 224 -166 224 -166 156 -232 c 0,0,1
223 453.5 m 128,-1,22
 263 487 263 487 310 487 c 128,-1,23
 357 487 357 487 357 435.5 c 128,-1,24
 357 384 357 384 323.5 343 c 128,-1,25
 290 302 290 302 256 302 c 0,26,27
 196 302 196 302 163 369 c 1,28,21
 183 420 183 420 223 453.5 c 128,-1,22
EndSplineSet
EndChar

StartChar: cent
Encoding: 162 162 99
Width: 445
Flags: HW
LayerCount: 2
Fore
SplineSet
383 600 m 1,0,1
 443 565.714285714 443 565.714285714 443 511.5 c 0,2,3
 443 484 443 484 428.5 463 c 128,-1,4
 414 442 414 442 398.5 442 c 128,-1,5
 383 442 383 442 338 471 c 1,6,7
 302 362 302 362 273 252 c 1,8,9
 314 264 314 264 369 322 c 0,10,11
 389 344 389 344 404 360 c 128,-1,12
 419 376 419 376 427 376 c 256,13,14
 445 376 445 376 445 331.5 c 128,-1,15
 445 287 445 287 396 228 c 0,16,17
 337 157 337 157 245 139 c 1,18,-1
 211 -9 l 2,19,20
 209 -18 209 -18 198 -18 c 128,-1,21
 187 -18 187 -18 176.5 -11 c 128,-1,22
 166 -4 166 -4 158 7 c 128,-1,23
 150 18 150 18 145.5 32 c 128,-1,24
 141 46 141 46 141 68 c 128,-1,25
 141 90 141 90 157 136 c 1,26,27
 64 150 64 150 32 227 c 0,28,29
 20 254 20 254 20 290 c 0,30,31
 20 362 20 362 45 422.5 c 128,-1,32
 70 483 70 483 110.5 527 c 128,-1,33
 151 571 151 571 201.5 595.5 c 128,-1,34
 252 620 252 620 304 620 c 2,35,-1
 308 620 l 1,36,37
 316 650 316 650 325 685 c 128,-1,38
 334 720 334 720 347 764 c 0,39,40
 349 772 349 772 359.5 772 c 0,41,42
 379.333333333 772 379.333333333 772 396.666666667 745 c 128,-1,43
 414 718 414 718 414.5 699 c 128,-1,44
 415 680 415 680 405.5 656 c 128,-1,45
 396 632 396 632 383 600 c 1,0,1
206 258 m 1,46,47
 256 393 256 393 281 506 c 1,48,49
 271 511 271 511 266 511 c 0,50,51
 224 511 224 511 195.5 450 c 128,-1,52
 167 389 167 389 167 316 c 0,53,54
 167 278 167 278 206 258 c 1,46,47
EndSplineSet
EndChar

StartChar: sterling
Encoding: 163 163 100
Width: 699
Flags: HW
LayerCount: 2
Fore
SplineSet
208 338 m 1,0,-1
 86 332 l 2,1,2
 80 332 80 332 80 343 c 0,3,4
 80 370 80 370 101 394 c 128,-1,5
 122 418 122 418 148 418 c 2,6,-1
 220 418 l 1,7,8
 267 664 267 664 402 733 c 0,9,10
 447 756 447 756 500 756 c 0,11,12
 658 756 658 756 658 623 c 0,13,14
 658 586 658 586 631.5 543 c 128,-1,15
 605 500 605 500 586.5 500 c 0,16,17
 547 500 547 500 547 608 c 0,18,19
 547 658 547 658 498 658 c 0,20,21
 394 658 394 658 362 418 c 1,22,-1
 579 418 l 2,23,24
 591 418 591 418 591 405.5 c 0,25,26
 591 385.5 591 385.5 566 358.75 c 128,-1,27
 541 332 541 332 524 332 c 0,28,29
 474 332 474 332 354 336 c 1,30,31
 350 276 350 276 350 213 c 2,32,-1
 350 204 l 1,33,34
 349 188 349 188 343 150 c 1,35,36
 378 132 378 132 411 117 c 128,-1,37
 444 102 444 102 492 102 c 0,38,39
 517 102 517 102 541.5 123 c 128,-1,40
 566 144 566 144 587.5 169 c 128,-1,41
 609 194 609 194 626 215 c 128,-1,42
 643 236 643 236 654 236 c 0,43,44
 669 236 669 236 669 202 c 0,45,46
 669 131 669 131 603 64.5 c 128,-1,47
 537 -2 537 -2 442 -3 c 0,48,49
 375 -3 375 -3 287 50 c 1,50,51
 224 -17 224 -17 130 -17 c 0,52,53
 68 -17 68 -17 39 14 c 128,-1,54
 10 45 10 45 10 96 c 128,-1,55
 10 147 10 147 47.5 172.5 c 128,-1,56
 85 198 85 198 143 198 c 0,57,58
 174 198 174 198 201 195 c 1,59,60
 201 278 201 278 208 338 c 1,0,-1
107 89 m 257,61,62
 108 61 108 61 146 61 c 128,-1,63
 184 61 184 61 194 105 c 1,64,65
 166 119 166 119 148 119 c 0,66,67
 108 119 108 119 107 89 c 257,61,62
EndSplineSet
EndChar

StartChar: currency
Encoding: 164 164 101
Width: 628
Flags: HW
LayerCount: 2
Fore
SplineSet
30 34 m 1,0,-1
 129 133 l 1,1,2
 81 193 81 193 81 287.5 c 128,-1,3
 81 382 81 382 129 442 c 1,4,-1
 30 542 l 1,5,-1
 73 586 l 1,6,-1
 175 484 l 1,7,8
 232 521 232 521 314 521 c 256,9,10
 396 521 396 521 453 484 c 1,11,-1
 555 586 l 1,12,-1
 598 542 l 1,13,-1
 499 442 l 1,14,15
 547 382 547 382 547 287.5 c 128,-1,16
 547 193 547 193 499 133 c 1,17,-1
 598 34 l 1,18,-1
 555 -10 l 1,19,-1
 453 92 l 1,20,21
 396 55 396 55 314 55 c 256,22,23
 232 55 232 55 175 92 c 1,24,-1
 73 -10 l 1,25,-1
 30 34 l 1,0,-1
314 463 m 256,26,27
 149 463 149 463 149 288 c 128,-1,28
 149 113 149 113 314 113 c 256,29,30
 479 113 479 113 479 289 c 0,31,32
 479 377 479 377 436.5 420 c 128,-1,33
 394 463 394 463 314 463 c 256,26,27
EndSplineSet
EndChar

StartChar: yen
Encoding: 165 165 102
Width: 651
Flags: HW
LayerCount: 2
Fore
SplineSet
554 202 m 0,0,1
 507 202 507 202 435 205 c 1,2,-1
 425 168 l 1,3,-1
 559 168 l 2,4,5
 571 168 571 168 571 155.5 c 0,6,7
 571 135.5 571 135.5 546.5 108.75 c 128,-1,8
 522 82 522 82 506 82.5 c 128,-1,9
 490 83 490 83 476 83 c 2,10,-1
 444 83 l 2,11,12
 426 83 426 83 407 84 c 1,13,14
 399 36 399 36 399 -7 c 0,15,16
 399 -35 399 -35 359 -35 c 0,17,18
 296 -35 296 -35 273 -10.5 c 128,-1,19
 250 14 250 14 250 72 c 0,20,21
 250 82 250 82 251 87 c 1,22,23
 236 88 236 88 224 88 c 2,24,-1
 206 88 l 1,25,-1
 66 82 l 2,26,27
 60 82 60 82 60 93 c 0,28,29
 60 120 60 120 81 144 c 128,-1,30
 102 168 102 168 128 168 c 2,31,-1
 267 168 l 1,32,-1
 280 208 l 1,33,-1
 256 208 l 1,34,-1
 116 202 l 2,35,36
 110 202 110 202 110 213 c 0,37,38
 110 240 110 240 131 264 c 128,-1,39
 152 288 152 288 178 288 c 2,40,-1
 272 288 l 1,41,42
 180 340 180 340 150 410 c 0,43,44
 126 467 126 467 126 580 c 0,45,46
 126 647 126 647 85 647 c 0,47,48
 71 647 71 647 59.5 639 c 128,-1,49
 48 631 48 631 36.5 622 c 128,-1,50
 25 613 25 613 13 605 c 128,-1,51
 1 597 1 597 -14.5 597 c 128,-1,52
 -30 597 -30 597 -30 624.5 c 0,53,54
 -30 678.52173913 -30 678.52173913 21 714 c 1,55,56
 70 750 70 750 138 750 c 128,-1,57
 206 750 206 750 240 700 c 0,58,59
 266 663 266 663 266 613.5 c 0,60,61
 266 517 266 517 283.5 465 c 128,-1,62
 301 413 301 413 347 384 c 1,63,64
 383 469 383 469 427 563 c 128,-1,65
 471 657 471 657 481.5 680.5 c 128,-1,66
 492 704 492 704 512 726.5 c 128,-1,67
 532 749 532 749 565 749 c 0,68,69
 580 749 580 749 594 715 c 0,70,71
 598 705 598 705 598 688.5 c 128,-1,72
 598 672 598 672 584.5 630 c 128,-1,73
 571 588 571 588 551 534 c 128,-1,74
 531 480 531 480 507 417 c 128,-1,75
 483 354 483 354 461 288 c 1,76,-1
 609 288 l 2,77,78
 621 288 621 288 621 275.5 c 0,79,80
 621 255.5 621 255.5 596 228.75 c 128,-1,81
 571 202 571 202 554 202 c 0,0,1
EndSplineSet
EndChar

StartChar: brokenbar
Encoding: 166 166 103
Width: 462
Flags: HW
LayerCount: 2
Fore
SplineSet
200 804 m 1,0,-1
 262 804 l 1,1,-1
 262 414 l 1,2,-1
 200 414 l 1,3,-1
 200 804 l 1,0,-1
200 349 m 1,4,-1
 262 349 l 1,5,-1
 262 -46 l 1,6,-1
 200 -46 l 1,7,-1
 200 349 l 1,4,-1
EndSplineSet
EndChar

StartChar: section
Encoding: 167 167 104
Width: 501
Flags: HW
LayerCount: 2
Fore
SplineSet
20 -56 m 0,0,1
 20 -29 20 -29 66 -29 c 0,2,3
 81 -29 81 -29 98.5 -32.5 c 2,4,-1
 136 -40 l 1,5,6
 186 -52 186 -52 193 -52 c 128,-1,7
 200 -52 200 -52 200 -43 c 0,8,9
 200 2 200 2 182 35.5 c 128,-1,10
 164 69 164 69 143 100.5 c 128,-1,11
 122 132 122 132 104 164.5 c 128,-1,12
 86 197 86 197 86 237 c 0,13,14
 86 311.777777778 86 311.777777778 145.5 373.388888889 c 128,-1,15
 205 435 205 435 274 447 c 1,16,17
 266 462 266 462 254.5 480.5 c 0,18,19
 205 560.130434783 205 560.130434783 205 598.565217391 c 0,20,21
 205 670.538461538 205 670.538461538 260 709.269230769 c 128,-1,22
 315 748 315 748 387 749 c 1,23,24
 422 748 422 748 445 731.5 c 128,-1,25
 468 715 468 715 468.5 701 c 128,-1,26
 469 687 469 687 452.5 684.5 c 128,-1,27
 436 682 436 682 416 678.5 c 128,-1,28
 396 675 396 675 379.5 667 c 128,-1,29
 363 659 363 659 363 632.5 c 128,-1,30
 363 606 363 606 370.5 582.5 c 0,31,32
 383.567484663 541.555214724 383.567484663 541.555214724 404.783742331 511.777607362 c 0,33,34
 462.243486933 431.13125867 462.243486933 431.13125867 461.5 360.5 c 0,35,36
 460.618625277 276.76940133 460.618625277 276.76940133 411.809312639 225.884700665 c 128,-1,37
 363 175 363 175 285 151 c 1,38,39
 324 60 324 60 324 14 c 0,40,41
 324 -71.25 324 -71.25 273.5 -116.625 c 128,-1,42
 223 -162 223 -162 146 -162 c 0,43,44
 93 -162 93 -162 56.5 -129.5 c 128,-1,45
 20 -97 20 -97 20 -56 c 0,0,1
229 281 m 0,46,47
 229 261 229 261 239 237 c 1,48,49
 286 239 286 239 307 265.5 c 128,-1,50
 328 292 328 292 328.5 321 c 128,-1,51
 329 350 329 350 322 365 c 128,-1,52
 315 380 315 380 304 380 c 1,53,54
 229 335 229 335 229 281 c 0,46,47
EndSplineSet
EndChar

StartChar: dieresis
Encoding: 168 168 105
Width: 500
Flags: HW
LayerCount: 2
Fore
SplineSet
184 624.5 m 128,-1,1
 151 602 151 602 112 602 c 128,-1,2
 73 602 73 602 72.5 645 c 0,3,4
 72 688 72 688 100 722 c 0,5,6
 128 756 128 756 162 756 c 0,7,8
 201 756 201 756 233 685 c 1,9,0
 217 647 217 647 184 624.5 c 128,-1,1
427 714 m 1,10,11
 384 602 384 602 323 602 c 0,12,13
 300 602 300 602 286.5 616.5 c 128,-1,14
 273 631 273 631 273 649 c 0,15,16
 273 694 273 694 294 720.5 c 128,-1,17
 315 747 315 747 344 747 c 0,18,19
 400 747 400 747 427 714 c 1,10,11
EndSplineSet
EndChar

StartChar: copyright
Encoding: 169 169 106
Width: 766
Flags: HW
LayerCount: 2
Fore
SplineSet
275 646 m 128,-1,1
 343 666 343 666 418.5 666 c 128,-1,2
 494 666 494 666 576 653 c 0,3,4
 602 649 602 649 602 626 c 0,5,6
 602 611 602 611 578 594 c 128,-1,7
 554 577 554 577 527 577 c 128,-1,8
 500 577 500 577 467 583.5 c 128,-1,9
 434 590 434 590 390 590 c 128,-1,10
 346 590 346 590 299.5 576.5 c 128,-1,11
 253 563 253 563 218 535 c 0,12,13
 142 474 142 474 142 370 c 128,-1,14
 142 266 142 266 207.5 189 c 128,-1,15
 273 112 273 112 375 111 c 0,16,17
 424 111 424 111 470 129.5 c 128,-1,18
 516 148 516 148 550 182 c 0,19,20
 626 256 626 256 627 368 c 1,21,22
 626 395 626 395 614 454.5 c 128,-1,23
 602 514 602 514 602 537.5 c 128,-1,24
 602 561 602 561 607.5 572.5 c 128,-1,25
 613 584 613 584 631.5 584 c 128,-1,26
 650 584 650 584 665 567 c 0,27,28
 703 522 703 522 714.5 475 c 128,-1,29
 726 428 726 428 726 368.5 c 128,-1,30
 726 309 726 309 703 244.5 c 128,-1,31
 680 180 680 180 634 131 c 0,32,33
 532 24 532 24 349 24 c 0,34,35
 283 24 283 24 226.5 51.5 c 128,-1,36
 170 79 170 79 128.5 125.5 c 128,-1,37
 87 172 87 172 63.5 233 c 128,-1,38
 40 294 40 294 40 364 c 128,-1,39
 40 434 40 434 71 491 c 128,-1,40
 102 548 102 548 154.5 587 c 128,-1,0
 207 626 207 626 275 646 c 128,-1,1
437 524 m 0,41,42
 483 524 483 524 483 480.5 c 0,43,44
 483 460 483 460 473.5 446 c 128,-1,45
 464 432 464 432 454 432 c 0,46,47
 442 432 442 432 431.5 442 c 128,-1,48
 421 452 421 452 409.5 451.5 c 0,49,50
 384.619158879 450.418224299 384.619158879 450.418224299 365.809579439 410.70911215 c 128,-1,51
 347 371 347 371 347 322 c 1,52,53
 348 289 348 289 388 280 c 0,54,55
 398 278 398 278 410 278 c 128,-1,56
 422 278 422 278 441 291 c 128,-1,57
 460 304 460 304 475.5 320 c 128,-1,58
 491 336 491 336 502.5 349 c 128,-1,59
 514 362 514 362 519 362 c 256,60,61
 531 362 531 362 531 342 c 0,62,63
 531 298 531 298 484.5 250 c 128,-1,64
 438 202 438 202 360 202 c 0,65,66
 316 202 316 202 283 227.5 c 128,-1,67
 250 253 250 253 250 303 c 0,68,69
 250 395.076923077 250 395.076923077 308.5 459.538461538 c 128,-1,70
 367 524 367 524 437 524 c 0,41,42
EndSplineSet
EndChar

StartChar: ordfeminine
Encoding: 170 170 107
Width: 439
Flags: HW
LayerCount: 2
Fore
SplineSet
175.5 738.5 m 128,-1,1
 206 757 206 757 242 757 c 128,-1,2
 278 757 278 757 300 748 c 1,3,4
 308 765 308 765 318.5 765 c 0,5,6
 339 765 339 765 358.5 746.5 c 128,-1,7
 378 728 378 728 377 712 c 1,8,9
 369 691 369 691 353 665 c 1,10,11
 348 637 348 637 348 603.5 c 128,-1,12
 348 570 348 570 349.5 554.5 c 128,-1,13
 351 539 351 539 362.5 539 c 128,-1,14
 374 539 374 539 384.5 548 c 128,-1,15
 395 557 395 557 407 557 c 128,-1,16
 419 557 419 557 419 547.5 c 0,17,18
 419 524.857142857 419 524.857142857 388 497.428571429 c 128,-1,19
 357 470 357 470 325 469.5 c 128,-1,20
 293 469 293 469 282 524 c 1,21,22
 266 498 266 498 241.5 482 c 128,-1,23
 217 466 217 466 175 466 c 256,24,25
 133 466 133 466 106.5 491.5 c 128,-1,26
 80 517 80 517 80 555.5 c 128,-1,27
 80 594 80 594 91 628.5 c 128,-1,28
 102 663 102 663 123.5 691.5 c 128,-1,0
 145 720 145 720 175.5 738.5 c 128,-1,1
203 530 m 0,29,30
 224 530 224 530 245 546 c 128,-1,31
 266 562 266 562 277 600 c 1,32,33
 277 666 277 666 289 717 c 1,34,35
 242 708 242 708 206 670.5 c 128,-1,36
 170 633 170 633 169.5 581.5 c 128,-1,37
 169 530 169 530 203 530 c 0,29,30
EndSplineSet
EndChar

StartChar: guillemotleft
Encoding: 171 171 108
Width: 809
Flags: HW
LayerCount: 2
Fore
SplineSet
452 474 m 0,0,1
 479 474 479 474 479 461 c 256,2,3
 479 452 479 452 470 446 c 128,-1,4
 461 440 461 440 444 426.5 c 128,-1,5
 427 413 427 413 405 394 c 128,-1,6
 383 375 383 375 357.5 353 c 0,7,8
 270.758196721 278.163934426 270.758196721 278.163934426 243 244 c 1,9,10
 273 219 273 219 311.5 187.5 c 128,-1,11
 350 156 350 156 407.5 108 c 128,-1,12
 465 60 465 60 465 53.5 c 0,13,14
 465 40.3333333333 465 40.3333333333 430.5 24.1666666667 c 128,-1,15
 396 8 396 8 375.5 8 c 128,-1,16
 355 8 355 8 343 14 c 1,17,18
 275 58 275 58 214 114 c 128,-1,19
 153 170 153 170 126.5 193 c 128,-1,20
 100 216 100 216 100 222.5 c 128,-1,21
 100 229 100 229 121.5 256.5 c 0,22,23
 183.486430063 335.784968685 183.486430063 335.784968685 264 398 c 1,24,25
 366 474 366 474 452 474 c 0,0,1
637.5 457 m 128,-1,27
 681 474 681 474 715 474 c 128,-1,28
 749 474 749 474 749 461 c 256,29,30
 749 452 749 452 738.5 445 c 128,-1,31
 728 438 728 438 696 416 c 128,-1,32
 664 394 664 394 598 348 c 128,-1,33
 532 302 532 302 511 275 c 1,34,35
 576 228 576 228 696 97 c 0,36,37
 714 78 714 78 724 66 c 2,38,-1
 735 53 l 1,39,40
 735 40 735 40 715 24 c 128,-1,41
 695 8 695 8 666 8 c 0,42,43
 658 8 658 8 653 10 c 128,-1,44
 648 12 648 12 643 14 c 1,45,46
 591 52 591 52 516.5 121 c 128,-1,47
 442 190 442 190 382 236 c 0,48,49
 370 245 370 245 370 253.5 c 128,-1,50
 370 262 370 262 385 277 c 0,51,52
 475 363 475 363 534.5 401.5 c 128,-1,26
 594 440 594 440 637.5 457 c 128,-1,27
EndSplineSet
EndChar

StartChar: logicalnot
Encoding: 172 172 109
Width: 440
Flags: HW
LayerCount: 2
Fore
SplineSet
338 264 m 1,0,-1
 40 264 l 1,1,-1
 40 322 l 1,2,-1
 400 322 l 1,3,-1
 400 147 l 1,4,-1
 338 147 l 1,5,-1
 338 264 l 1,0,-1
EndSplineSet
EndChar

StartChar: uni00AD
Encoding: 173 173 110
Width: 392
Flags: HW
LayerCount: 2
Fore
SplineSet
342 322 m 1,0,-1
 342 264 l 1,1,-1
 50 264 l 1,2,-1
 50 322 l 1,3,-1
 342 322 l 1,0,-1
EndSplineSet
EndChar

StartChar: registered
Encoding: 174 174 111
Width: 766
Flags: HW
LayerCount: 2
Fore
SplineSet
592 493 m 0,0,1
 592 534 592 534 618 534 c 0,2,3
 633 534 633 534 651.5 521 c 128,-1,4
 670 508 670 508 686 486 c 0,5,6
 726 435 726 435 726 372 c 128,-1,7
 726 309 726 309 703 243 c 128,-1,8
 680 177 680 177 634 126 c 0,9,10
 532 14 532 14 349 14 c 0,11,12
 216 14 216 14 128 101 c 128,-1,13
 40 188 40 188 40 321 c 0,14,15
 40 400 40 400 71 464 c 128,-1,16
 102 528 102 528 154 573 c 0,17,18
 263 666 263 666 418 666 c 0,19,20
 487 666 487 666 545.5 653 c 128,-1,21
 604 640 604 640 622 634 c 128,-1,22
 640 628 640 628 646 622.5 c 128,-1,23
 652 617 652 617 652 607.5 c 0,24,25
 652 590.8 652 590.8 628 574 c 128,-1,26
 604 557 604 557 585 557 c 128,-1,27
 566 557 566 557 549 562.5 c 128,-1,28
 532 568 532 568 495 579 c 128,-1,29
 458 590 458 590 402 590 c 0,30,31
 291.888888889 590 291.888888889 590 216.944444444 513.5 c 128,-1,32
 142 437 142 437 142 331.5 c 128,-1,33
 142 226 142 226 207 163 c 128,-1,34
 272 100 272 100 375 101 c 0,35,36
 424 101 424 101 470 121.5 c 128,-1,37
 516 142 516 142 550 178 c 0,38,39
 626 257 626 257 627 368 c 0,40,41
 627 386 627 386 615 414.5 c 128,-1,42
 603 443 603 443 597.5 459 c 128,-1,43
 592 475 592 475 592 493 c 0,0,1
437 433 m 0,44,45
 437 480 437 480 384.5 480 c 0,46,47
 344 480 344 480 314 465 c 2,48,-1
 293 454 l 2,49,50
 284 450 284 450 274 450 c 0,51,52
 259 450 259 450 259 463 c 0,53,54
 259 469 259 469 267.5 482 c 128,-1,55
 276 495 276 495 292 508 c 0,56,57
 334 541 334 541 391 541 c 0,58,59
 478 542 478 542 510 490 c 0,60,61
 522 472 522 472 522 436.5 c 128,-1,62
 522 401 522 401 502.5 376.5 c 128,-1,63
 483 352 483 352 457 341 c 1,64,65
 460 333 460 333 463 319.5 c 128,-1,66
 466 306 466 306 470 294 c 0,67,68
 480 264 480 264 500 264 c 0,69,70
 514 264 514 264 530.5 282.5 c 128,-1,71
 547 301 547 301 555.5 309.5 c 128,-1,72
 564 318 564 318 570 318 c 0,73,74
 587 318 587 318 587 290 c 128,-1,75
 587 262 587 262 546.5 229 c 128,-1,76
 506 196 506 196 463 195 c 0,77,78
 439 195 439 195 427 208 c 128,-1,79
 415 221 415 221 408.5 241.5 c 128,-1,80
 402 262 402 262 399 286 c 128,-1,81
 396 310 396 310 390 332 c 1,82,83
 361 342 361 342 361 367 c 0,84,85
 361 379 361 379 372 386.5 c 128,-1,86
 383 394 383 394 397 394 c 128,-1,87
 411 394 411 394 419 389 c 1,88,89
 437 409 437 409 437 433 c 0,44,45
265 178 m 0,90,91
 237 178 237 178 237 229 c 0,92,93
 237 296 237 296 276 392 c 0,94,95
 294 438 294 438 314 454 c 0,96,97
 324 462 324 462 337 461 c 1,98,99
 353 461 353 461 353 438 c 128,-1,100
 353 415 353 415 349 398 c 128,-1,101
 345 381 345 381 340 364 c 128,-1,102
 335 347 335 347 330 330 c 128,-1,103
 325 313 325 313 324 295 c 1,104,-1
 324 230 l 2,105,106
 324 208 324 208 306 193 c 128,-1,107
 288 178 288 178 265 178 c 0,90,91
EndSplineSet
EndChar

StartChar: macron
Encoding: 175 175 112
Width: 500
Flags: HW
LayerCount: 2
Fore
SplineSet
12 670 m 0,0,1
 12 751 12 751 149 751 c 2,2,-1
 192 751 l 1,3,-1
 448 748 l 1,4,-1
 476 748 l 2,5,6
 488 748 488 748 488 735.5 c 0,7,8
 488 716.2 488 716.2 462.5 686.1 c 128,-1,9
 437 656 437 656 421 656 c 2,10,-1
 163 663 l 1,11,-1
 18 661 l 2,12,13
 12 661 12 661 12 670 c 0,0,1
EndSplineSet
EndChar

StartChar: degree
Encoding: 176 176 113
Width: 378
Flags: HW
LayerCount: 2
Fore
SplineSet
87 347 m 128,-1,1
 50 384 50 384 50 446.5 c 128,-1,2
 50 509 50 509 88.5 547.5 c 128,-1,3
 127 586 127 586 190.5 586 c 128,-1,4
 254 586 254 586 291 549.5 c 128,-1,5
 328 513 328 513 328 450 c 128,-1,6
 328 387 328 387 289.5 348.5 c 128,-1,7
 251 310 251 310 187.5 310 c 128,-1,0
 124 310 124 310 87 347 c 128,-1,1
118 449 m 0,8,9
 118 368 118 368 189 368 c 0,10,11
 221 368 221 368 240.5 389.5 c 128,-1,12
 260 411 260 411 260 449 c 0,13,14
 260 528 260 528 189 528 c 0,15,16
 157 528 157 528 137.5 507.5 c 128,-1,17
 118 487 118 487 118 449 c 0,8,9
EndSplineSet
EndChar

StartChar: plusminus
Encoding: 177 177 114
Width: 472
Flags: HW
LayerCount: 2
Fore
SplineSet
205 238 m 1,0,-1
 50 238 l 1,1,-1
 50 296 l 1,2,-1
 205 296 l 1,3,-1
 205 449 l 1,4,-1
 267 449 l 1,5,-1
 267 296 l 1,6,-1
 422 296 l 1,7,-1
 422 238 l 1,8,-1
 267 238 l 1,9,-1
 267 92 l 1,10,-1
 205 92 l 1,11,-1
 205 238 l 1,0,-1
422 58 m 1,12,-1
 422 0 l 1,13,-1
 50 0 l 1,14,-1
 50 58 l 1,15,-1
 422 58 l 1,12,-1
EndSplineSet
EndChar

StartChar: uni00B2
Encoding: 178 178 115
Width: 347
Flags: HW
LayerCount: 2
Fore
SplineSet
121 658 m 0,0,1
 105 658 105 658 105 678 c 0,2,3
 105 700.083333333 105 700.083333333 131.5 724.541666667 c 128,-1,4
 158 749 158 749 201.5 749 c 128,-1,5
 245 749 245 749 270 729.5 c 128,-1,6
 295 710 295 710 295 673 c 0,7,8
 295 598 295 598 219 511 c 1,9,10
 237 505 237 505 249.5 505 c 128,-1,11
 262 505 262 505 270.5 511 c 128,-1,12
 279 517 279 517 286.5 523.5 c 128,-1,13
 294 530 294 530 299.5 536 c 128,-1,14
 305 542 305 542 311 542 c 0,15,16
 327 542 327 542 326.5 517 c 128,-1,17
 326 492 326 492 299.5 470 c 128,-1,18
 273 448 273 448 236.5 447.5 c 128,-1,19
 200 447 200 447 176 464 c 1,20,21
 152 442 152 442 120 442 c 128,-1,22
 88 442 88 442 74 456.5 c 128,-1,23
 60 471 60 471 60 494.5 c 128,-1,24
 60 518 60 518 77 530.5 c 128,-1,25
 94 543 94 543 119 543 c 128,-1,26
 144 543 144 543 161 538 c 1,27,28
 216 593 216 593 216 668 c 0,29,30
 216 693 216 693 191 693 c 0,31,32
 170 693 170 693 156 681 c 128,-1,33
 142 669 142 669 135.5 663.5 c 128,-1,34
 129 658 129 658 121 658 c 0,0,1
EndSplineSet
EndChar

StartChar: uni00B3
Encoding: 179 179 116
Width: 348
Flags: HW
LayerCount: 2
Fore
SplineSet
108.5 661 m 0,0,1
 92 661 92 661 92 680 c 0,2,3
 92 702 92 702 118 727 c 128,-1,4
 144 752 144 752 187.5 752 c 128,-1,5
 231 752 231 752 255.5 732.5 c 128,-1,6
 280 713 280 713 280 678.5 c 128,-1,7
 280 644 280 644 251 610 c 1,8,9
 288 578 288 578 288 535 c 128,-1,10
 288 492 288 492 250 467 c 128,-1,11
 212 442 212 442 170.5 442 c 128,-1,12
 129 442 129 442 99.5 465 c 128,-1,13
 70 488 70 488 70 508 c 128,-1,14
 70 528 70 528 88 528 c 0,15,16
 98 528 98 528 119 513.5 c 128,-1,17
 140 499 140 499 162 499 c 128,-1,18
 184 499 184 499 195.5 513 c 128,-1,19
 207 527 207 527 207 540 c 256,20,21
 207 561 207 561 194 582 c 1,22,-1
 183 582 l 2,23,24
 139 582 139 582 139 610 c 256,25,26
 139 627 139 627 154 632.5 c 128,-1,27
 169 638 169 638 177.5 638 c 128,-1,28
 186 638 186 638 192 636 c 1,29,30
 203 650 203 650 203 671 c 0,31,32
 203 696 203 696 176 696 c 0,33,34
 160 696 160 696 146 684 c 128,-1,35
 132 672 132 672 124.5 666.5 c 128,-1,36
 117 661 117 661 108.5 661 c 0,0,1
EndSplineSet
EndChar

StartChar: acute
Encoding: 180 180 117
Width: 500
Flags: HW
LayerCount: 2
Fore
SplineSet
354 791 m 0,0,1
 401 791 401 791 401 775 c 1,2,3
 402 764 402 764 340 668 c 0,4,5
 264 550 264 550 139 550 c 0,6,7
 99 550 99 550 99 569 c 257,8,9
 100 586 100 586 130 595 c 0,10,11
 136 597 136 597 153.5 601 c 128,-1,12
 171 605 171 605 193.5 623.5 c 128,-1,13
 216 642 216 642 232.5 666 c 128,-1,14
 249 690 249 690 261.5 717 c 128,-1,15
 274 744 274 744 287 768 c 0,16,17
 293 780 293 780 313.5 785.5 c 128,-1,18
 334 791 334 791 354 791 c 0,0,1
EndSplineSet
EndChar

StartChar: uni00B5
Encoding: 181 181 118
Width: 513
Flags: HW
LayerCount: 2
Fore
SplineSet
154 -5 m 0,0,1
 135 -5 135 -5 117 -3 c 1,2,3
 103 -92 103 -92 96 -145.5 c 128,-1,4
 89 -199 89 -199 83 -227.5 c 128,-1,5
 77 -256 77 -256 68 -265 c 128,-1,6
 59 -274 59 -274 45.5 -274 c 0,7,8
 23.2857142857 -274 23.2857142857 -274 -1.35714285714 -252.5 c 128,-1,9
 -26 -231 -26 -231 -32 -214.5 c 128,-1,10
 -38 -198 -38 -198 -38 -174 c 0,11,12
 -38 -89.1428571429 -38 -89.1428571429 -25 10.9285714286 c 128,-1,13
 -12 111 -12 111 37 257 c 1,14,-1
 61 462 l 1,15,16
 92 486 92 486 150 486 c 0,17,18
 196 486 196 486 202 426 c 0,19,20
 207.484536082 376.639175258 207.484536082 376.639175258 197.742268041 338.319587629 c 128,-1,21
 188 300 188 300 172 241.5 c 128,-1,22
 156 183 156 183 156 138 c 0,23,24
 156 102 156 102 201 102 c 0,25,26
 250 102 250 102 286 188 c 0,27,28
 314 254 314 254 324 335 c 1,29,30
 323 343 323 343 322.5 355.5 c 128,-1,31
 322 368 322 368 321.5 380 c 128,-1,32
 321 392 321 392 321 404 c 2,33,-1
 321 422 l 2,34,35
 321 489 321 489 425 489 c 0,36,37
 451 489 451 489 457.5 472 c 128,-1,38
 464 455 464 455 464 420 c 0,39,40
 464 371.25 464 371.25 442 268.125 c 128,-1,41
 420 165 420 165 421 129 c 0,42,43
 421 112 421 112 432 112 c 0,44,45
 447 112 447 112 469 131 c 128,-1,46
 491 150 491 150 513 172.5 c 128,-1,47
 535 195 535 195 553.5 214 c 128,-1,48
 572 233 572 233 579 233 c 0,49,50
 593 233 593 233 593 199 c 0,51,52
 593 128.6875 593 128.6875 524 64 c 1,53,54
 408 -4 408 -4 377 -4 c 0,55,56
 374 -4 374 -4 372 -3 c 1,57,58
 334 -3 334 -3 318.5 22 c 128,-1,59
 303 47 303 47 299 85 c 1,60,61
 279 48 279 48 244 21.5 c 128,-1,62
 209 -5 209 -5 154 -5 c 0,0,1
EndSplineSet
EndChar

StartChar: paragraph
Encoding: 182 182 119
Width: 513
Flags: HW
LayerCount: 2
Fore
SplineSet
273 617 m 1,0,-1
 353 615 l 1,1,-1
 488 615 l 1,2,-1
 488 557 l 1,3,-1
 399 557 l 1,4,-1
 399 -75 l 1,5,-1
 337 -75 l 1,6,-1
 337 557 l 1,7,-1
 259 557 l 1,8,-1
 259 -75 l 1,9,-1
 197 -75 l 1,10,-1
 197 250 l 1,11,12
 106 261 106 261 63 303.5 c 128,-1,13
 20 346 20 346 20 439.5 c 128,-1,14
 20 533 20 533 82 575 c 128,-1,15
 144 617 144 617 273 617 c 1,0,-1
EndSplineSet
EndChar

StartChar: periodcentered
Encoding: 183 183 120
Width: 366
Flags: HW
LayerCount: 2
Fore
SplineSet
100 294 m 256,0,1
 100 339 100 339 119 360 c 128,-1,2
 138 381 138 381 184 381 c 0,3,4
 230 381 230 381 248 360 c 128,-1,5
 266 339 266 339 266 294 c 256,6,7
 266 249 266 249 247 228.5 c 128,-1,8
 228 208 228 208 183 208 c 256,9,10
 138 208 138 208 119 228.5 c 128,-1,11
 100 249 100 249 100 294 c 256,0,1
EndSplineSet
EndChar

StartChar: cedilla
Encoding: 184 184 121
Width: 500
Flags: HW
LayerCount: 2
Fore
SplineSet
274 -99 m 1,0,1
 250 -105 250 -105 227.5 -105 c 128,-1,2
 205 -105 205 -105 205 -93 c 0,3,4
 205 -89 205 -89 207 -84 c 0,5,6
 212.714285714 -69.7142857143 212.714285714 -69.7142857143 217.357142857 -41.3571428571 c 128,-1,7
 222 -13 222 -13 222.5 0.5 c 128,-1,8
 223 14 223 14 242.5 22 c 128,-1,9
 262 30 262 30 282 30 c 0,10,11
 314 30 314 30 314 10 c 256,12,13
 314 -13 314 -13 307 -50 c 1,14,15
 339 -50 339 -50 356.5 -67.5 c 128,-1,16
 374 -85 374 -85 374 -112 c 0,17,18
 374 -168.857142857 374 -168.857142857 327 -218.428571429 c 128,-1,19
 280 -268 280 -268 221 -269 c 0,20,21
 186 -269 186 -269 156 -242.5 c 128,-1,22
 126 -216 126 -216 126 -181 c 0,23,24
 126 -162 126 -162 166 -152 c 0,25,26
 176 -150 176 -150 189 -150 c 128,-1,27
 202 -150 202 -150 210 -156.5 c 128,-1,28
 218 -163 218 -163 222.5 -172.5 c 128,-1,29
 227 -182 227 -182 230.5 -192.5 c 128,-1,30
 234 -203 234 -203 242 -212 c 1,31,32
 259 -195 259 -195 270.5 -172 c 128,-1,33
 282 -149 282 -149 282 -131 c 128,-1,34
 282 -113 282 -113 274 -99 c 1,0,1
EndSplineSet
EndChar

StartChar: uni00B9
Encoding: 185 185 122
Width: 285
Flags: HW
LayerCount: 2
Fore
SplineSet
112 654 m 0,0,1
 98 654 98 654 98 674 c 128,-1,2
 98 694 98 694 114.5 710.5 c 128,-1,3
 131 727 131 727 149 733 c 128,-1,4
 167 739 167 739 186.5 745 c 128,-1,5
 206 751 206 751 229 751 c 1,6,7
 246 732 246 732 246 720.5 c 128,-1,8
 246 709 246 709 241 685.5 c 128,-1,9
 236 662 236 662 224 606.5 c 0,10,11
 212 551 212 551 207 510 c 1,12,-1
 247 510 l 2,13,14
 265 510 265 510 265 494 c 0,15,16
 265 481 265 481 256.5 466.5 c 128,-1,17
 248 452 248 452 232 452 c 2,18,19
 191 453 l 1,20,21
 155 454 l 2,22,23
 125 454 125 454 103.5 449.5 c 128,-1,24
 82 445 82 445 68.5 445 c 128,-1,25
 55 445 55 445 55 460.5 c 128,-1,26
 55 476 55 476 73 490.5 c 128,-1,27
 91 505 91 505 129 510 c 1,28,29
 129 552 129 552 145 605.5 c 128,-1,30
 161 659 161 659 167 679 c 1,31,32
 133 654 133 654 112 654 c 0,0,1
EndSplineSet
EndChar

StartChar: ordmasculine
Encoding: 186 186 123
Width: 428
Flags: HW
LayerCount: 2
Fore
SplineSet
323 520 m 1,0,1
 275 467 275 467 210.5 467.5 c 128,-1,2
 146 468 146 468 113 502 c 128,-1,3
 80 536 80 536 80 577.5 c 0,4,5
 80 655.714285714 80 655.714285714 125 707.357142857 c 128,-1,6
 170 759 170 759 244 759 c 0,7,8
 276 759 276 759 304.5 748 c 128,-1,9
 333 737 333 737 333 724 c 0,10,11
 333 714 333 714 284 714 c 128,-1,12
 235 714 235 714 201.5 681 c 128,-1,13
 168 648 168 648 168 594 c 0,14,15
 168 568 168 568 184 549.5 c 128,-1,16
 200 531 200 531 227.5 531 c 128,-1,17
 255 531 255 531 273 540 c 1,18,19
 234 570 234 570 234 622 c 128,-1,20
 234 674 234 674 280 696 c 0,21,22
 294 703 294 703 318.5 703 c 128,-1,23
 343 703 343 703 357.5 684.5 c 128,-1,24
 372 666 372 666 372 638 c 256,25,26
 372 610 372 610 358 577 c 1,27,28
 373 581 373 581 384 592 c 2,29,-1
 400 608 l 2,30,31
 404 612 404 612 411 612 c 128,-1,32
 418 612 418 612 418 583.5 c 128,-1,33
 418 555 418 555 396 537 c 128,-1,34
 374 519 374 519 343 519 c 0,35,36
 338 519 338 519 333 519 c 128,-1,37
 328 519 328 519 323 520 c 1,0,1
317 586 m 1,38,39
 330 610 330 610 330 632 c 128,-1,40
 330 654 330 654 317 654 c 0,41,42
 311 654 311 654 307.5 646.5 c 128,-1,43
 304 639 304 639 304 632 c 0,44,45
 304 602 304 602 317 586 c 1,38,39
EndSplineSet
EndChar

StartChar: guillemotright
Encoding: 187 187 124
Width: 809
Flags: HW
LayerCount: 2
Fore
SplineSet
606 238 m 1,0,1
 384 416 384 416 384 429 c 128,-1,2
 384 442 384 442 418.5 458 c 0,3,4
 453 474 453 474 473.5 474 c 0,5,6
 494 474 494 474 506 468 c 1,7,8
 583 416 583 416 639.5 364 c 0,9,10
 696 312 696 312 722.5 289 c 128,-1,11
 749 266 749 266 749 259.5 c 128,-1,12
 749 253 749 253 727.5 225.5 c 128,-1,13
 706 198 706 198 667 158 c 0,14,15
 628 118 628 118 584 84 c 1,16,17
 435 7 435 7 401 8 c 1,18,19
 397 8 l 2,20,21
 370 8 370 8 370 21 c 256,22,23
 370 30 370 30 379 36 c 128,-1,24
 388 42 388 42 405 55.5 c 128,-1,25
 422 69 422 69 444 88 c 128,-1,26
 466 107 466 107 492 129 c 0,27,28
 518 151 518 151 556 186.5 c 0,29,30
 594 222 594 222 606 238 c 1,0,1
211.5 25 m 128,-1,32
 168 8 168 8 134 8 c 128,-1,33
 100 8 100 8 100 21 c 256,34,35
 100 30 100 30 110.5 37 c 128,-1,36
 121 44 121 44 152.5 66 c 0,37,38
 184 88 184 88 250 134 c 0,39,40
 316 180 316 180 338 207 c 1,41,42
 254 268 254 268 124 416 c 0,43,44
 114 428 114 428 114 429 c 0,45,46
 114 442 114 442 134 458 c 128,-1,47
 154 474 154 474 183 474 c 0,48,49
 191 474 191 474 196 472 c 128,-1,50
 201 470 201 470 206 468 c 1,51,52
 258 430 258 430 332.5 361 c 0,53,54
 407 292 407 292 467 246 c 0,55,56
 479 237 479 237 479 228.5 c 0,57,58
 479 220 479 220 464 205 c 0,59,60
 369 115 369 115 312 78.5 c 128,-1,31
 255 42 255 42 211.5 25 c 128,-1,32
EndSplineSet
EndChar

StartChar: onequarter
Encoding: 188 188 125
Width: 699
Flags: HW
LayerCount: 2
Fore
SplineSet
500 743 m 1,0,1
 503 751 503 751 510 751 c 256,2,3
 524 751 524 751 544 723 c 128,-1,4
 564 695 564 695 563.5 673 c 128,-1,5
 563 651 563 651 553.5 629.5 c 128,-1,6
 544 608 544 608 527.5 581.5 c 128,-1,7
 511 555 511 555 490 524 c 0,8,9
 391.391304348 378.434782609 391.391304348 378.434782609 290.195652174 201.217391304 c 128,-1,10
 189 24 189 24 164 -51 c 0,11,12
 162 -54 162 -54 154.5 -54 c 0,13,14
 137.666666667 -54 137.666666667 -54 119.833333333 -28 c 128,-1,15
 102 -2 102 -2 102 13 c 128,-1,16
 102 28 102 28 105 37 c 1,17,-1
 500 743 l 1,0,1
117 654 m 0,18,19
 103 654 103 654 103 674 c 128,-1,20
 103 694 103 694 119.5 710.5 c 128,-1,21
 136 727 136 727 154 733 c 128,-1,22
 172 739 172 739 191.5 745 c 128,-1,23
 211 751 211 751 234 751 c 1,24,25
 251 732 251 732 251 720.5 c 128,-1,26
 251 709 251 709 245.5 685.5 c 0,27,28
 217.414448669 565.498098859 217.414448669 565.498098859 212 510 c 1,29,-1
 252 510 l 2,30,31
 270 510 270 510 270 494 c 0,32,33
 270 481 270 481 261.5 466.5 c 128,-1,34
 253 452 253 452 237 452 c 2,35,-1
 196 453 l 1,36,-1
 160 454 l 2,37,38
 130 454 130 454 108.5 449.5 c 128,-1,39
 87 445 87 445 73.5 445 c 128,-1,40
 60 445 60 445 60 460.5 c 128,-1,41
 60 476 60 476 78 490.5 c 128,-1,42
 96 505 96 505 134 510 c 1,43,44
 134 552 134 552 150 605.5 c 128,-1,45
 166 659 166 659 172 679 c 1,46,47
 138 654 138 654 117 654 c 0,18,19
429 82 m 1,48,49
 398 100 398 100 390 123 c 1,50,51
 401 167 401 167 423 205 c 0,52,53
 465 277 465 277 482 277 c 128,-1,54
 499 277 499 277 499 252.5 c 128,-1,55
 499 228 499 228 487 201.5 c 128,-1,56
 475 175 475 175 466 144 c 1,57,-1
 518 148 l 1,58,59
 541 239 541 239 551 256 c 0,60,61
 572 292 572 292 593 292 c 0,62,63
 608 292 608 292 608 269 c 128,-1,64
 608 246 608 246 602 215.5 c 128,-1,65
 596 185 596 185 589 147 c 1,66,-1
 629 147 l 2,67,68
 649 147 649 147 649 130 c 0,69,70
 649 118 649 118 637 103 c 128,-1,71
 625 88 625 88 611 88 c 2,72,-1
 598 88 l 2,73,74
 588 88 588 88 581 89 c 1,75,76
 576 34 576 34 576 10 c 0,77,78
 576 -10 576 -10 548.5 -10 c 128,-1,79
 521 -10 521 -10 510 0.5 c 128,-1,80
 499 11 499 11 499 35 c 128,-1,81
 499 59 499 59 505 89 c 1,82,-1
 429 82 l 1,48,49
EndSplineSet
EndChar

StartChar: onehalf
Encoding: 189 189 126
Width: 697
Flags: HW
LayerCount: 2
Fore
SplineSet
500 743 m 1,0,1
 503 751 503 751 510 751 c 256,2,3
 524 751 524 751 544 723 c 128,-1,4
 564 695 564 695 563.5 673 c 128,-1,5
 563 651 563 651 553.5 629.5 c 128,-1,6
 544 608 544 608 527.5 581.5 c 128,-1,7
 511 555 511 555 490 524 c 0,8,9
 391.391304348 378.434782609 391.391304348 378.434782609 290.195652174 201.217391304 c 128,-1,10
 189 24 189 24 164 -51 c 0,11,12
 162 -54 162 -54 154.5 -54 c 0,13,14
 137.666666667 -54 137.666666667 -54 119.833333333 -28 c 128,-1,15
 102 -2 102 -2 102 13 c 128,-1,16
 102 28 102 28 105 37 c 1,17,-1
 500 743 l 1,0,1
117 654 m 0,18,19
 103 654 103 654 103 674 c 128,-1,20
 103 694 103 694 119.5 710.5 c 128,-1,21
 136 727 136 727 154 733 c 128,-1,22
 172 739 172 739 191.5 745 c 128,-1,23
 211 751 211 751 234 751 c 1,24,25
 251 732 251 732 251 720.5 c 128,-1,26
 251 709 251 709 245.5 685.5 c 0,27,28
 217.414448669 565.498098859 217.414448669 565.498098859 212 510 c 1,29,-1
 252 510 l 2,30,31
 270 510 270 510 270 494 c 0,32,33
 270 481 270 481 261.5 466.5 c 128,-1,34
 253 452 253 452 237 452 c 2,35,-1
 196 453 l 1,36,-1
 160 454 l 2,37,38
 130 454 130 454 108.5 449.5 c 128,-1,39
 87 445 87 445 73.5 445 c 128,-1,40
 60 445 60 445 60 460.5 c 128,-1,41
 60 476 60 476 78 490.5 c 128,-1,42
 96 505 96 505 134 510 c 1,43,44
 134 552 134 552 150 605.5 c 128,-1,45
 166 659 166 659 172 679 c 1,46,47
 138 654 138 654 117 654 c 0,18,19
441 203 m 0,48,49
 425 203 425 203 425 223 c 0,50,51
 425 245.083333333 425 245.083333333 451.5 269.541666667 c 128,-1,52
 478 294 478 294 521.5 294 c 128,-1,53
 565 294 565 294 590 274.5 c 128,-1,54
 615 255 615 255 615 218 c 0,55,56
 615 143 615 143 539 56 c 1,57,58
 557 50 557 50 569.5 50 c 128,-1,59
 582 50 582 50 590.5 56 c 128,-1,60
 599 62 599 62 606.5 68.5 c 128,-1,61
 614 75 614 75 619.5 81 c 128,-1,62
 625 87 625 87 631 87 c 0,63,64
 647 87 647 87 646.5 61.5 c 128,-1,65
 646 36 646 36 619.5 14 c 128,-1,66
 593 -8 593 -8 556.5 -8 c 128,-1,67
 520 -8 520 -8 496 9 c 1,68,69
 472 -13 472 -13 440 -13 c 128,-1,70
 408 -13 408 -13 394 1.5 c 128,-1,71
 380 16 380 16 380 39.5 c 128,-1,72
 380 63 380 63 397 75.5 c 128,-1,73
 414 88 414 88 439 88 c 128,-1,74
 464 88 464 88 481 83 c 1,75,76
 536 138 536 138 536 213 c 0,77,78
 536 238 536 238 511 238 c 0,79,80
 490 238 490 238 476 226 c 128,-1,81
 462 214 462 214 455.5 208.5 c 128,-1,82
 449 203 449 203 441 203 c 0,48,49
EndSplineSet
EndChar

StartChar: threequarters
Encoding: 190 190 127
Width: 699
Flags: HW
LayerCount: 2
Fore
SplineSet
500 743 m 1,0,1
 503 751 503 751 510 751 c 256,2,3
 524 751 524 751 544 723 c 128,-1,4
 564 695 564 695 563.5 673 c 128,-1,5
 563 651 563 651 553.5 629.5 c 128,-1,6
 544 608 544 608 527.5 581.5 c 128,-1,7
 511 555 511 555 490 524 c 0,8,9
 391.391304348 378.434782609 391.391304348 378.434782609 290.195652174 201.217391304 c 128,-1,10
 189 24 189 24 164 -51 c 0,11,12
 162 -54 162 -54 154.5 -54 c 0,13,14
 137.666666667 -54 137.666666667 -54 119.833333333 -28 c 128,-1,15
 102 -2 102 -2 102 13 c 128,-1,16
 102 28 102 28 105 37 c 1,17,-1
 500 743 l 1,0,1
429 82 m 1,18,19
 398 100 398 100 390 123 c 1,20,21
 401 167 401 167 423 205 c 0,22,23
 465 277 465 277 482 277 c 128,-1,24
 499 277 499 277 499 252.5 c 128,-1,25
 499 228 499 228 487 201.5 c 128,-1,26
 475 175 475 175 466 144 c 1,27,-1
 518 148 l 1,28,29
 541 239 541 239 551 256 c 0,30,31
 572 292 572 292 593 292 c 0,32,33
 608 292 608 292 608 269 c 128,-1,34
 608 246 608 246 602 215.5 c 128,-1,35
 596 185 596 185 589 147 c 1,36,-1
 629 147 l 2,37,38
 649 147 649 147 649 130 c 0,39,40
 649 118 649 118 637 103 c 128,-1,41
 625 88 625 88 611 88 c 2,42,-1
 598 88 l 2,43,44
 588 88 588 88 581 89 c 1,45,46
 576 34 576 34 576 10 c 0,47,48
 576 -10 576 -10 548.5 -10 c 128,-1,49
 521 -10 521 -10 510 0.5 c 128,-1,50
 499 11 499 11 499 35 c 128,-1,51
 499 59 499 59 505 89 c 1,52,-1
 429 82 l 1,18,19
88.5 661 m 0,53,54
 72 661 72 661 72 680 c 0,55,56
 72 702 72 702 98 727 c 128,-1,57
 124 752 124 752 167.5 752 c 128,-1,58
 211 752 211 752 235.5 732.5 c 128,-1,59
 260 713 260 713 260 678.5 c 128,-1,60
 260 644 260 644 231 610 c 1,61,62
 268 578 268 578 268 535 c 128,-1,63
 268 492 268 492 230 467 c 128,-1,64
 192 442 192 442 150.5 442 c 128,-1,65
 109 442 109 442 79.5 465 c 128,-1,66
 50 488 50 488 50 508 c 128,-1,67
 50 528 50 528 68 528 c 0,68,69
 78 528 78 528 99 513.5 c 128,-1,70
 120 499 120 499 142 499 c 128,-1,71
 164 499 164 499 175.5 513 c 128,-1,72
 187 527 187 527 187 540 c 256,73,74
 187 561 187 561 174 582 c 1,75,-1
 163 582 l 2,76,77
 119 582 119 582 119 610 c 256,78,79
 119 627 119 627 134 632.5 c 128,-1,80
 149 638 149 638 157.5 638 c 128,-1,81
 166 638 166 638 172 636 c 1,82,83
 183 650 183 650 183 671 c 0,84,85
 183 696 183 696 156 696 c 0,86,87
 140 696 140 696 126 684 c 128,-1,88
 112 672 112 672 104.5 666.5 c 128,-1,89
 97 661 97 661 88.5 661 c 0,53,54
EndSplineSet
EndChar

StartChar: questiondown
Encoding: 191 191 128
Width: 572
Flags: HW
LayerCount: 2
Fore
SplineSet
489 -55 m 0,0,1
 502 -55 502 -55 502 -76 c 128,-1,2
 502 -97 502 -97 487 -127.5 c 128,-1,3
 472 -158 472 -158 444 -184 c 0,4,5
 378 -246 378 -246 273.5 -246 c 128,-1,6
 169 -246 169 -246 109.5 -200 c 128,-1,7
 50 -154 50 -154 50 -73 c 128,-1,8
 50 8 50 8 69 53 c 128,-1,9
 88 98 88 98 117 124.5 c 128,-1,10
 146 151 146 151 179 166 c 128,-1,11
 212 181 212 181 241 195.5 c 128,-1,12
 270 210 270 210 289 230.5 c 128,-1,13
 308 251 308 251 308 290 c 0,14,15
 308 296 308 296 317 296 c 0,16,17
 337 296 337 296 358.5 283 c 128,-1,18
 380 270 380 270 380 249 c 0,19,20
 380 161 380 161 335 118 c 0,21,22
 316 100 316 100 293.5 88 c 128,-1,23
 271 76 271 76 252 60 c 0,24,25
 207 22 207 22 207 -54 c 256,26,27
 207 -100 207 -100 233 -125 c 128,-1,28
 259 -150 259 -150 306 -150 c 128,-1,29
 353 -150 353 -150 380.5 -135 c 128,-1,30
 408 -120 408 -120 425.5 -102.5 c 128,-1,31
 443 -85 443 -85 455.5 -70 c 128,-1,32
 468 -55 468 -55 489 -55 c 0,0,1
345.5 338 m 128,-1,34
 304 338 304 338 304 380 c 128,-1,35
 304 422 304 422 330.5 456 c 128,-1,36
 357 490 357 490 386.5 489.5 c 128,-1,37
 416 489 416 489 437 464.5 c 128,-1,38
 458 440 458 440 457.5 415 c 0,39,40
 456.646464646 372.323232323 456.646464646 372.323232323 421.823232323 355.161616162 c 128,-1,33
 387 338 387 338 345.5 338 c 128,-1,34
EndSplineSet
EndChar

StartChar: Agrave
Encoding: 192 192 129
Width: 695
Flags: HW
LayerCount: 2
Fore
SplineSet
757.5 236 m 0,0,1
 775 236 775 236 775 190 c 0,2,3
 775 165 775 165 754 129.5 c 128,-1,4
 733 94 733 94 699.5 64.5 c 128,-1,5
 666 35 666 35 625 16 c 128,-1,6
 584 -3 584 -3 545 -3 c 0,7,8
 486 -3 486 -3 463.5 26.5 c 128,-1,9
 441 56 441 56 441 113.5 c 128,-1,10
 441 171 441 171 486 311 c 1,11,12
 348 317 348 317 285 317 c 2,13,-1
 271 317 l 1,14,15
 253 206 253 206 253 84 c 0,16,17
 253 30 253 30 212 10 c 0,18,19
 193 1 193 1 175.5 -7 c 128,-1,20
 158 -15 158 -15 138 -15 c 0,21,22
 88 -15 88 -15 88 75 c 128,-1,23
 88 165 88 165 129 306 c 1,24,25
 85 301 85 301 51.5 296 c 128,-1,26
 18 291 18 291 -1 291 c 128,-1,27
 -20 291 -20 291 -20 301 c 0,28,29
 -20 331 -20 331 29 362 c 0,30,31
 79 393 79 393 164 409 c 1,32,33
 258 648 258 648 394 728 c 0,34,35
 444 758 444 758 499.5 757.5 c 0,36,37
 600.113128492 756.593575419 600.113128492 756.593575419 644.556564246 703.796787709 c 128,-1,38
 689 651 689 651 689.5 563.5 c 128,-1,39
 690 476 690 476 636 336 c 0,40,41
 616 282 616 282 599 238 c 128,-1,42
 582 194 582 194 582 167 c 128,-1,43
 582 140 582 140 586 126 c 128,-1,44
 590 112 590 112 605 112 c 256,45,46
 632 112 632 112 732 216 c 0,47,48
 750 236 750 236 757.5 236 c 0,0,1
545 533.5 m 0,49,50
 545 621 545 621 480 621 c 0,51,52
 414.285714286 621 414.285714286 621 366.642857143 565.5 c 128,-1,53
 319 510 319 510 293 417 c 1,54,-1
 520 414 l 1,55,56
 545 494 545 494 545 533.5 c 0,49,50
543 856 m 0,57,58
 543 840.068965517 543 840.068965517 484.5 832 c 0,59,60
 470 830 470 830 450 830 c 128,-1,61
 430 830 430 830 385.5 839 c 128,-1,62
 341 848 341 848 298.5 866 c 128,-1,63
 256 884 256 884 225.5 911 c 128,-1,64
 195 938 195 938 195 975 c 1,65,66
 194 990 194 990 223.5 1001 c 128,-1,67
 253 1012 253 1012 280 1012 c 128,-1,68
 307 1012 307 1012 319 997 c 0,69,70
 357 945 357 945 407 916.5 c 128,-1,71
 457 888 457 888 523 869 c 0,72,73
 543 863 543 863 543 856 c 0,57,58
EndSplineSet
EndChar

StartChar: Aacute
Encoding: 193 193 130
Width: 695
Flags: HW
LayerCount: 2
Fore
SplineSet
757.5 236 m 0,0,1
 775 236 775 236 775 190 c 0,2,3
 775 165 775 165 754 129.5 c 128,-1,4
 733 94 733 94 699.5 64.5 c 128,-1,5
 666 35 666 35 625 16 c 128,-1,6
 584 -3 584 -3 545 -3 c 0,7,8
 486 -3 486 -3 463.5 26.5 c 128,-1,9
 441 56 441 56 441 113.5 c 128,-1,10
 441 171 441 171 486 311 c 1,11,12
 348 317 348 317 285 317 c 2,13,-1
 271 317 l 1,14,15
 253 206 253 206 253 84 c 0,16,17
 253 30 253 30 212 10 c 0,18,19
 193 1 193 1 175.5 -7 c 128,-1,20
 158 -15 158 -15 138 -15 c 0,21,22
 88 -15 88 -15 88 75 c 128,-1,23
 88 165 88 165 129 306 c 1,24,25
 85 301 85 301 51.5 296 c 128,-1,26
 18 291 18 291 -1 291 c 128,-1,27
 -20 291 -20 291 -20 301 c 0,28,29
 -20 331 -20 331 29 362 c 0,30,31
 79 393 79 393 164 409 c 1,32,33
 258 648 258 648 394 728 c 0,34,35
 444 758 444 758 499.5 757.5 c 0,36,37
 600.113128492 756.593575419 600.113128492 756.593575419 644.556564246 703.796787709 c 128,-1,38
 689 651 689 651 689.5 563.5 c 128,-1,39
 690 476 690 476 636 336 c 0,40,41
 616 282 616 282 599 238 c 128,-1,42
 582 194 582 194 582 167 c 128,-1,43
 582 140 582 140 586 126 c 128,-1,44
 590 112 590 112 605 112 c 256,45,46
 632 112 632 112 732 216 c 0,47,48
 750 236 750 236 757.5 236 c 0,0,1
545 533.5 m 0,49,50
 545 621 545 621 480 621 c 0,51,52
 414.285714286 621 414.285714286 621 366.642857143 565.5 c 128,-1,53
 319 510 319 510 293 417 c 1,54,-1
 520 414 l 1,55,56
 545 494 545 494 545 533.5 c 0,49,50
757 1012 m 0,57,58
 805 1012 805 1012 805 996 c 0,59,60
 805 983 805 983 783 954.5 c 0,61,62
 729.858846918 885.65805169 729.858846918 885.65805169 673.929423459 855.829025845 c 128,-1,63
 618 826 618 826 522 825 c 0,64,65
 482 825 482 825 482 844 c 256,66,67
 482 860 482 860 512 869 c 0,68,69
 582 891 582 891 611.5 910.5 c 128,-1,70
 641 930 641 930 657.5 947.5 c 128,-1,71
 674 965 674 965 690 989 c 0,72,73
 698 1000 698 1000 717.5 1006 c 128,-1,74
 737 1012 737 1012 757 1012 c 0,57,58
EndSplineSet
EndChar

StartChar: Acircumflex
Encoding: 194 194 131
Width: 695
Flags: HW
LayerCount: 2
Fore
SplineSet
757.5 236 m 0,0,1
 775 236 775 236 775 190 c 0,2,3
 775 165 775 165 754 129.5 c 128,-1,4
 733 94 733 94 699.5 64.5 c 128,-1,5
 666 35 666 35 625 16 c 128,-1,6
 584 -3 584 -3 545 -3 c 0,7,8
 486 -3 486 -3 463.5 26.5 c 128,-1,9
 441 56 441 56 441 113.5 c 128,-1,10
 441 171 441 171 486 311 c 1,11,12
 348 317 348 317 285 317 c 2,13,-1
 271 317 l 1,14,15
 253 206 253 206 253 84 c 0,16,17
 253 30 253 30 212 10 c 0,18,19
 193 1 193 1 175.5 -7 c 128,-1,20
 158 -15 158 -15 138 -15 c 0,21,22
 88 -15 88 -15 88 75 c 128,-1,23
 88 165 88 165 129 306 c 1,24,25
 85 301 85 301 51.5 296 c 128,-1,26
 18 291 18 291 -1 291 c 128,-1,27
 -20 291 -20 291 -20 301 c 0,28,29
 -20 331 -20 331 29 362 c 0,30,31
 79 393 79 393 164 409 c 1,32,33
 258 648 258 648 394 728 c 0,34,35
 444 758 444 758 499.5 757.5 c 0,36,37
 600.113128492 756.593575419 600.113128492 756.593575419 644.556564246 703.796787709 c 128,-1,38
 689 651 689 651 689.5 563.5 c 128,-1,39
 690 476 690 476 636 336 c 0,40,41
 616 282 616 282 599 238 c 128,-1,42
 582 194 582 194 582 167 c 128,-1,43
 582 140 582 140 586 126 c 128,-1,44
 590 112 590 112 605 112 c 256,45,46
 632 112 632 112 732 216 c 0,47,48
 750 236 750 236 757.5 236 c 0,0,1
309 860 m 0,49,50
 309 872 309 872 324.5 885.5 c 128,-1,51
 340 899 340 899 356.5 912 c 128,-1,52
 373 925 373 925 389.5 937 c 0,53,54
 434.6 969.8 434.6 969.8 458 988 c 0,55,56
 503 1022 503 1022 546 1022 c 0,57,58
 563 1022 563 1022 584 1009.5 c 0,59,60
 650.906976744 969.674418605 650.906976744 969.674418605 683.453488372 944.337209302 c 128,-1,61
 716 919 716 919 757 873 c 0,62,63
 763 867 763 867 763 859.5 c 0,64,65
 763 843.5 763 843.5 730 827.25 c 128,-1,66
 697 811 697 811 671 811 c 128,-1,67
 645 811 645 811 630 825.5 c 128,-1,68
 615 840 615 840 599.5 855 c 0,69,70
 555.035353535 898.03030303 555.035353535 898.03030303 506 929 c 1,71,72
 460 893 460 893 436 872 c 0,73,74
 398 838 398 838 353.5 838 c 128,-1,75
 309 838 309 838 309 860 c 0,49,50
545 533.5 m 0,76,77
 545 621 545 621 480 621 c 0,78,79
 414.285714286 621 414.285714286 621 366.642857143 565.5 c 128,-1,80
 319 510 319 510 293 417 c 1,81,-1
 520 414 l 1,82,83
 545 494 545 494 545 533.5 c 0,76,77
EndSplineSet
EndChar

StartChar: Atilde
Encoding: 195 195 132
Width: 695
Flags: HW
LayerCount: 2
Fore
SplineSet
757.5 236 m 0,0,1
 775 236 775 236 775 190 c 0,2,3
 775 165 775 165 754 129.5 c 128,-1,4
 733 94 733 94 699.5 64.5 c 128,-1,5
 666 35 666 35 625 16 c 128,-1,6
 584 -3 584 -3 545 -3 c 0,7,8
 486 -3 486 -3 463.5 26.5 c 128,-1,9
 441 56 441 56 441 113.5 c 128,-1,10
 441 171 441 171 486 311 c 1,11,12
 348 317 348 317 285 317 c 2,13,-1
 271 317 l 1,14,15
 253 206 253 206 253 84 c 0,16,17
 253 30 253 30 212 10 c 0,18,19
 193 1 193 1 175.5 -7 c 128,-1,20
 158 -15 158 -15 138 -15 c 0,21,22
 88 -15 88 -15 88 75 c 128,-1,23
 88 165 88 165 129 306 c 1,24,25
 85 301 85 301 51.5 296 c 128,-1,26
 18 291 18 291 -1 291 c 128,-1,27
 -20 291 -20 291 -20 301 c 0,28,29
 -20 331 -20 331 29 362 c 0,30,31
 79 393 79 393 164 409 c 1,32,33
 258 648 258 648 394 728 c 0,34,35
 444 758 444 758 499.5 757.5 c 0,36,37
 600.113128492 756.593575419 600.113128492 756.593575419 644.556564246 703.796787709 c 128,-1,38
 689 651 689 651 689.5 563.5 c 128,-1,39
 690 476 690 476 636 336 c 0,40,41
 616 282 616 282 599 238 c 128,-1,42
 582 194 582 194 582 167 c 128,-1,43
 582 140 582 140 586 126 c 128,-1,44
 590 112 590 112 605 112 c 256,45,46
 632 112 632 112 732 216 c 0,47,48
 750 236 750 236 757.5 236 c 0,0,1
714.5 956.5 m 128,-1,50
 728 963 728 963 755 963 c 128,-1,51
 782 963 782 963 782 945 c 0,52,53
 782 939 782 939 779 937 c 1,54,55
 732 839 732 839 628 839 c 0,56,57
 597 839 597 839 573 855 c 128,-1,58
 549 871 549 871 527 889.5 c 128,-1,59
 505 908 505 908 483 924 c 128,-1,60
 461 940 461 940 434 940 c 0,61,62
 416 940 416 940 397 907 c 1,63,64
 382 886 382 886 326 880 c 0,65,66
 312 878 312 878 301 878 c 0,67,68
 281 878 281 878 281 903 c 0,69,70
 281 917 281 917 300 938 c 1,71,72
 343 991 343 991 389 1011.5 c 128,-1,73
 435 1032 435 1032 467 1032 c 128,-1,74
 499 1032 499 1032 524 1015 c 128,-1,75
 549 998 549 998 571 977.5 c 128,-1,76
 593 957 593 957 614 940 c 128,-1,77
 635 923 635 923 651 923 c 128,-1,78
 667 923 667 923 674 929 c 128,-1,79
 681 935 681 935 691 942.5 c 128,-1,49
 701 950 701 950 714.5 956.5 c 128,-1,50
545 533.5 m 0,80,81
 545 621 545 621 480 621 c 0,82,83
 414.285714286 621 414.285714286 621 366.642857143 565.5 c 128,-1,84
 319 510 319 510 293 417 c 1,85,-1
 520 414 l 1,86,87
 545 494 545 494 545 533.5 c 0,80,81
EndSplineSet
EndChar

StartChar: Adieresis
Encoding: 196 196 133
Width: 695
Flags: HW
LayerCount: 2
Fore
SplineSet
757.5 236 m 0,0,1
 775 236 775 236 775 190 c 0,2,3
 775 165 775 165 754 129.5 c 128,-1,4
 733 94 733 94 699.5 64.5 c 128,-1,5
 666 35 666 35 625 16 c 128,-1,6
 584 -3 584 -3 545 -3 c 0,7,8
 486 -3 486 -3 463.5 26.5 c 128,-1,9
 441 56 441 56 441 113.5 c 128,-1,10
 441 171 441 171 486 311 c 1,11,12
 348 317 348 317 285 317 c 2,13,-1
 271 317 l 1,14,15
 253 206 253 206 253 84 c 0,16,17
 253 30 253 30 212 10 c 0,18,19
 193 1 193 1 175.5 -7 c 128,-1,20
 158 -15 158 -15 138 -15 c 0,21,22
 88 -15 88 -15 88 75 c 128,-1,23
 88 165 88 165 129 306 c 1,24,25
 85 301 85 301 51.5 296 c 128,-1,26
 18 291 18 291 -1 291 c 128,-1,27
 -20 291 -20 291 -20 301 c 0,28,29
 -20 331 -20 331 29 362 c 0,30,31
 79 393 79 393 164 409 c 1,32,33
 258 648 258 648 394 728 c 0,34,35
 444 758 444 758 499.5 757.5 c 0,36,37
 600.113128492 756.593575419 600.113128492 756.593575419 644.556564246 703.796787709 c 128,-1,38
 689 651 689 651 689.5 563.5 c 128,-1,39
 690 476 690 476 636 336 c 0,40,41
 616 282 616 282 599 238 c 128,-1,42
 582 194 582 194 582 167 c 128,-1,43
 582 140 582 140 586 126 c 128,-1,44
 590 112 590 112 605 112 c 256,45,46
 632 112 632 112 732 216 c 0,47,48
 750 236 750 236 757.5 236 c 0,0,1
545 533.5 m 0,49,50
 545 621 545 621 480 621 c 0,51,52
 414.285714286 621 414.285714286 621 366.642857143 565.5 c 128,-1,53
 319 510 319 510 293 417 c 1,54,-1
 520 414 l 1,55,56
 545 494 545 494 545 533.5 c 0,49,50
448 869.5 m 128,-1,58
 415 847 415 847 376 847 c 128,-1,59
 337 847 337 847 336.5 889.5 c 128,-1,60
 336 932 336 932 364 966 c 128,-1,61
 392 1000 392 1000 426 1001 c 1,62,63
 465 1001 465 1001 497 930 c 1,64,57
 481 892 481 892 448 869.5 c 128,-1,58
691 959 m 1,65,66
 648 847 648 847 587 847 c 0,67,68
 564 847 564 847 550.5 861.5 c 128,-1,69
 537 876 537 876 537 894 c 0,70,71
 537 939 537 939 558 965.5 c 128,-1,72
 579 992 579 992 608 992 c 0,73,74
 664 992 664 992 691 959 c 1,65,66
EndSplineSet
EndChar

StartChar: Aring
Encoding: 197 197 134
Width: 695
Flags: HW
LayerCount: 2
Fore
SplineSet
757.5 236 m 0,0,1
 775 236 775 236 775 190 c 0,2,3
 775 165 775 165 754 129.5 c 128,-1,4
 733 94 733 94 699.5 64.5 c 128,-1,5
 666 35 666 35 625 16 c 128,-1,6
 584 -3 584 -3 545 -3 c 0,7,8
 486 -3 486 -3 463.5 26.5 c 128,-1,9
 441 56 441 56 441 113.5 c 128,-1,10
 441 171 441 171 486 311 c 1,11,12
 348 317 348 317 285 317 c 2,13,-1
 271 317 l 1,14,15
 253 206 253 206 253 84 c 0,16,17
 253 30 253 30 212 10 c 0,18,19
 193 1 193 1 175.5 -7 c 128,-1,20
 158 -15 158 -15 138 -15 c 0,21,22
 88 -15 88 -15 88 75 c 128,-1,23
 88 165 88 165 129 306 c 1,24,25
 85 301 85 301 51.5 296 c 128,-1,26
 18 291 18 291 -1 291 c 128,-1,27
 -20 291 -20 291 -20 301 c 0,28,29
 -20 331 -20 331 29 362 c 0,30,31
 79 393 79 393 164 409 c 1,32,33
 238 593 238 593 336 685 c 0,34,35
 372 719 372 719 414 737 c 1,36,37
 369 775 369 775 369 834 c 0,38,39
 369 910 369 910 447 937 c 0,40,41
 470 945 470 945 496 945 c 2,42,-1
 507 945 l 1,43,44
 516 948 516 948 532 948 c 128,-1,45
 548 948 548 948 575 936 c 128,-1,46
 602 924 602 924 624 906 c 0,47,48
 676 863 676 863 676.5 814.5 c 128,-1,49
 677 766 677 766 612 731 c 1,50,51
 689 683 689 683 689 566 c 1,52,53
 690 476 690 476 636 336 c 0,54,55
 616 282 616 282 599 238 c 128,-1,56
 582 194 582 194 582 167 c 128,-1,57
 582 140 582 140 586 126 c 128,-1,58
 590 112 590 112 605 112 c 256,59,60
 632 112 632 112 732 216 c 0,61,62
 750 236 750 236 757.5 236 c 0,0,1
545 533.5 m 0,63,64
 545 621 545 621 480 621 c 0,65,66
 414.285714286 621 414.285714286 621 366.642857143 565.5 c 128,-1,67
 319 510 319 510 293 417 c 1,68,-1
 520 414 l 1,69,70
 545 494 545 494 545 533.5 c 0,63,64
537 772 m 0,71,72
 579 772 579 772 579 808 c 0,73,74
 579 828 579 828 559 846.5 c 128,-1,75
 539 865 539 865 518 874 c 1,76,77
 514 873 514 873 500.5 873 c 128,-1,78
 487 873 487 873 474 877 c 1,79,80
 467 866 467 866 467 843 c 128,-1,81
 467 820 467 820 485.5 796 c 128,-1,82
 504 772 504 772 537 772 c 0,71,72
EndSplineSet
EndChar

StartChar: AE
Encoding: 198 198 135
Width: 1010
Flags: HW
LayerCount: 2
Fore
SplineSet
1004 128.5 m 0,0,1
 1004 -11 1004 -11 724 -11 c 1,2,-1
 550 -2 l 1,3,4
 522 -15 522 -15 467 -15 c 0,5,6
 442 -15 442 -15 437.5 10.5 c 128,-1,7
 433 36 433 36 433 81 c 0,8,9
 433 165 433 165 485 305 c 1,10,-1
 488 314 l 1,11,12
 374 317 374 317 333 317 c 2,13,-1
 271 317 l 1,14,15
 253 206 253 206 253 84 c 0,16,17
 253 30 253 30 212 10 c 0,18,19
 193 1 193 1 175.5 -7 c 128,-1,20
 158 -15 158 -15 138 -15 c 0,21,22
 88 -15 88 -15 88 75 c 128,-1,23
 88 165 88 165 129 306 c 1,24,25
 85 301 85 301 51.5 296 c 128,-1,26
 18 291 18 291 -1 291 c 128,-1,27
 -20 291 -20 291 -20 301 c 0,28,29
 -20 331 -20 331 29 362 c 0,30,31
 79 393 79 393 164 409 c 1,32,33
 258 648 258 648 394 728 c 0,34,35
 444 758 444 758 491.5 757.5 c 128,-1,36
 539 757 539 757 569 749 c 1,37,-1
 1003 744 l 2,38,39
 1030 744 1030 744 1030 723 c 0,40,41
 1030 717 1030 717 1022 701.5 c 128,-1,42
 1014 686 1014 686 1008 668 c 0,43,44
 995 632 995 632 952 632 c 0,45,46
 899.5 632 899.5 632 814.75 633 c 128,-1,47
 730 634 730 634 681 634 c 1,48,49
 689 600 689 600 689 551 c 128,-1,50
 689 502 689 502 663 415 c 1,51,52
 699 415 699 415 729 414.5 c 128,-1,53
 759 414 759 414 782.5 415 c 128,-1,54
 806 416 806 416 824 416 c 128,-1,55
 842 416 842 416 861.5 415 c 128,-1,56
 881 414 881 414 890.5 410 c 128,-1,57
 900 406 900 406 900 397.5 c 128,-1,58
 900 389 900 389 892 374 c 128,-1,59
 884 359 884 359 878 343 c 0,60,61
 865 310 865 310 825 310 c 2,62,-1
 803 310 l 1,63,-1
 626 312 l 1,64,-1
 616 285 l 1,65,66
 589 183 589 183 584 98 c 1,67,68
 722 104 722 104 781.5 104 c 128,-1,69
 841 104 841 104 873 114 c 128,-1,70
 905 124 905 124 924 136 c 128,-1,71
 943 148 943 148 955.5 158 c 128,-1,72
 968 168 968 168 981 168 c 0,73,74
 1004 168 1004 168 1004 128.5 c 0,0,1
520 416 m 1,75,76
 545 496 545 496 545 534.5 c 128,-1,77
 545 573 545 573 529.5 597 c 128,-1,78
 514 621 514 621 480 621 c 0,79,80
 414.285714286 621 414.285714286 621 366.642857143 565.5 c 128,-1,81
 319 510 319 510 293 417 c 1,82,-1
 520 416 l 1,75,76
EndSplineSet
EndChar

StartChar: Ccedilla
Encoding: 199 199 136
Width: 549
Flags: HW
LayerCount: 2
Fore
SplineSet
351 -99 m 1,0,1
 327 -105 327 -105 304.5 -105 c 128,-1,2
 282 -105 282 -105 282 -93 c 0,3,4
 282 -88 282 -88 289 -72.5 c 128,-1,5
 296 -57 296 -57 298 -5 c 1,6,7
 184 6 184 6 122 72.5 c 128,-1,8
 60 139 60 139 60 249 c 0,9,10
 60 398 60 398 132 532 c 0,11,12
 156 576 156 576 186 613 c 1,13,14
 163 640 163 640 149.5 669.5 c 128,-1,15
 136 699 136 699 136 714 c 0,16,17
 136 741 136 741 156 741 c 1,18,19
 170 740 170 740 188 722 c 2,20,-1
 219 692 l 2,21,22
 231 680 231 680 244 672 c 1,23,24
 343 756 343 756 457.5 756 c 128,-1,25
 572 756 572 756 606 692 c 0,26,27
 618 668 618 668 618 633 c 0,28,29
 618 580 618 580 572 544 c 128,-1,30
 526 508 526 508 448.5 508 c 128,-1,31
 371 508 371 508 288 540 c 1,32,33
 217 419 217 419 217 287 c 0,34,35
 217 104 217 104 363 104 c 0,36,37
 453 104 453 104 532 162 c 0,38,39
 558 181 558 181 579 208.5 c 128,-1,40
 600 236 600 236 614.5 236 c 128,-1,41
 629 236 629 236 629 195 c 0,42,43
 629 115.515151515 629 115.515151515 559 60.7575757576 c 128,-1,44
 489 6 489 6 390 -5 c 1,45,46
 388 -28 388 -28 384 -50 c 1,47,48
 416 -50 416 -50 433.5 -67.5 c 128,-1,49
 451 -85 451 -85 451 -112 c 0,50,51
 451 -168.857142857 451 -168.857142857 404 -218.428571429 c 128,-1,52
 357 -268 357 -268 298 -269 c 0,53,54
 262 -269 262 -269 232 -242.5 c 128,-1,55
 202 -216 202 -216 203 -181 c 0,56,57
 204 -162 204 -162 244 -152 c 0,58,59
 254 -150 254 -150 266.5 -150 c 128,-1,60
 279 -150 279 -150 287 -156.5 c 128,-1,61
 295 -163 295 -163 299.5 -172.5 c 128,-1,62
 304 -182 304 -182 307.5 -192.5 c 128,-1,63
 311 -203 311 -203 319 -212 c 1,64,65
 336 -195 336 -195 347.5 -172 c 128,-1,66
 359 -149 359 -149 359 -131 c 128,-1,67
 359 -113 359 -113 351 -99 c 1,0,1
336 602 m 1,68,69
 387 585 387 585 447 585 c 128,-1,70
 507 585 507 585 507 618 c 0,71,72
 507 657 507 657 458 657 c 0,73,74
 391 657 391 657 336 602 c 1,68,69
EndSplineSet
EndChar

StartChar: Egrave
Encoding: 200 200 137
Width: 529
Flags: HW
LayerCount: 2
Fore
SplineSet
517 544 m 128,-1,1
 471 508 471 508 396 508 c 128,-1,2
 321 508 321 508 256 556 c 1,3,4
 255 552 255 552 255 548 c 2,5,-1
 255 526 l 2,6,7
 255 508 255 508 266.5 483.5 c 128,-1,8
 278 459 278 459 295 443 c 1,9,10
 310 446 310 446 336 446 c 0,11,12
 412 446 412 446 415 404 c 1,13,-1
 415 402 l 2,14,15
 415 351 415 351 315 351 c 0,16,17
 293 351 293 351 267 359 c 1,18,19
 238 339 238 339 222.5 309 c 128,-1,20
 207 279 207 279 207 222.5 c 128,-1,21
 207 166 207 166 251.5 139 c 128,-1,22
 296 112 296 112 356.5 112 c 128,-1,23
 417 112 417 112 454.5 131.5 c 128,-1,24
 492 151 492 151 520 174 c 128,-1,25
 548 197 548 197 565.5 216.5 c 128,-1,26
 583 236 583 236 591 236 c 256,27,28
 599 236 599 236 604 225.5 c 128,-1,29
 609 215 609 215 609 198 c 0,30,31
 609 118 609 118 520.5 57.5 c 128,-1,32
 432 -3 432 -3 309 -3 c 0,33,34
 117 -3 117 -3 60 108 c 0,35,36
 40 147 40 147 40 202 c 0,37,38
 40 345 40 345 183 402 c 1,39,40
 110 453 110 453 110 556 c 0,41,42
 110 605 110 605 137 647 c 1,43,44
 112 675 112 675 96.5 706 c 128,-1,45
 81 737 81 737 81 753 c 0,46,47
 81 781 81 781 101 781 c 0,48,49
 115 781 115 781 135.5 759.5 c 128,-1,50
 156 738 156 738 169 725 c 128,-1,51
 182 712 182 712 196 704 c 1,52,53
 281 756 281 756 396 756 c 128,-1,54
 511 756 511 756 549 692 c 0,55,56
 563 668 563 668 563 633 c 0,57,0
 563 580 563 580 517 544 c 128,-1,1
425 856 m 0,58,59
 425 840.068965517 425 840.068965517 366.5 832 c 0,60,61
 352 830 352 830 332 830 c 128,-1,62
 312 830 312 830 267.5 839 c 128,-1,63
 223 848 223 848 180.5 866 c 128,-1,64
 138 884 138 884 107.5 911 c 128,-1,65
 77 938 77 938 77 975 c 1,66,67
 76 990 76 990 105.5 1001 c 128,-1,68
 135 1012 135 1012 162 1012 c 128,-1,69
 189 1012 189 1012 201 997 c 0,70,71
 239 945 239 945 289 916.5 c 128,-1,72
 339 888 339 888 405 869 c 0,73,74
 425 863 425 863 425 856 c 0,58,59
452 618 m 0,75,76
 452 657 452 657 388 657 c 128,-1,77
 324 657 324 657 285 618 c 1,78,79
 339 585 339 585 395.5 585 c 128,-1,80
 452 585 452 585 452 618 c 0,75,76
EndSplineSet
EndChar

StartChar: Eacute
Encoding: 201 201 138
Width: 529
Flags: HW
LayerCount: 2
Fore
SplineSet
328 446 m 0,0,1
 415 446 415 446 415 402 c 0,2,3
 415 351 415 351 315 351 c 0,4,5
 293 351 293 351 267 359 c 1,6,7
 238 339 238 339 222.5 309 c 128,-1,8
 207 279 207 279 207 222.5 c 128,-1,9
 207 166 207 166 251.5 139 c 128,-1,10
 296 112 296 112 356.5 112 c 128,-1,11
 417 112 417 112 454.5 131.5 c 128,-1,12
 492 151 492 151 520 174 c 128,-1,13
 548 197 548 197 565.5 216.5 c 128,-1,14
 583 236 583 236 591 236 c 256,15,16
 599 236 599 236 604 225.5 c 128,-1,17
 609 215 609 215 609 198 c 0,18,19
 609 118 609 118 520.5 57.5 c 128,-1,20
 432 -3 432 -3 309 -3 c 0,21,22
 117 -3 117 -3 60 108 c 0,23,24
 40 147 40 147 40 202 c 0,25,26
 40 345 40 345 183 402 c 1,27,28
 110 453 110 453 110 556 c 0,29,30
 110 605 110 605 137 647 c 1,31,32
 112 675 112 675 96.5 706 c 128,-1,33
 81 737 81 737 81 753 c 0,34,35
 81 781 81 781 101 781 c 0,36,37
 115 781 115 781 135.5 759.5 c 128,-1,38
 156 738 156 738 169 725 c 128,-1,39
 182 712 182 712 196 704 c 1,40,41
 281 756 281 756 396 756 c 128,-1,42
 511 756 511 756 549 692 c 0,43,44
 563 668 563 668 563 633 c 0,45,46
 563 580 563 580 517 544 c 128,-1,47
 471 508 471 508 396 508 c 128,-1,48
 321 508 321 508 256 556 c 1,49,50
 255 552 255 552 255 548 c 2,51,-1
 255 526 l 2,52,53
 255 508 255 508 266.5 483.5 c 128,-1,54
 278 459 278 459 295 443 c 1,55,56
 310 446 310 446 328 446 c 0,0,1
639 1012 m 0,57,58
 687 1012 687 1012 687 996 c 0,59,60
 687 983 687 983 665 954.5 c 0,61,62
 611.858846918 885.65805169 611.858846918 885.65805169 555.929423459 855.829025845 c 128,-1,63
 500 826 500 826 404 825 c 0,64,65
 364 825 364 825 364 844 c 256,66,67
 364 860 364 860 394 869 c 0,68,69
 464 891 464 891 493.5 910.5 c 128,-1,70
 523 930 523 930 539.5 947.5 c 128,-1,71
 556 965 556 965 572 989 c 0,72,73
 580 1000 580 1000 599.5 1006 c 128,-1,74
 619 1012 619 1012 639 1012 c 0,57,58
452 618 m 0,75,76
 452 657 452 657 388 657 c 128,-1,77
 324 657 324 657 285 618 c 1,78,79
 339 585 339 585 395.5 585 c 128,-1,80
 452 585 452 585 452 618 c 0,75,76
EndSplineSet
EndChar

StartChar: Ecircumflex
Encoding: 202 202 139
Width: 529
Flags: HW
LayerCount: 2
Fore
SplineSet
328 446 m 0,0,1
 415 446 415 446 415 402 c 0,2,3
 415 351 415 351 315 351 c 0,4,5
 293 351 293 351 267 359 c 1,6,7
 238 339 238 339 222.5 309 c 128,-1,8
 207 279 207 279 207 222.5 c 128,-1,9
 207 166 207 166 251.5 139 c 128,-1,10
 296 112 296 112 356.5 112 c 128,-1,11
 417 112 417 112 454.5 131.5 c 128,-1,12
 492 151 492 151 520 174 c 128,-1,13
 548 197 548 197 565.5 216.5 c 128,-1,14
 583 236 583 236 591 236 c 256,15,16
 599 236 599 236 604 225.5 c 128,-1,17
 609 215 609 215 609 198 c 0,18,19
 609 118 609 118 520.5 57.5 c 128,-1,20
 432 -3 432 -3 309 -3 c 0,21,22
 117 -3 117 -3 60 108 c 0,23,24
 40 147 40 147 40 202 c 0,25,26
 40 345 40 345 183 402 c 1,27,28
 110 453 110 453 110 556 c 0,29,30
 110 605 110 605 137 647 c 1,31,32
 112 675 112 675 96.5 706 c 128,-1,33
 81 737 81 737 81 753 c 0,34,35
 81 781 81 781 101 781 c 0,36,37
 115 781 115 781 135.5 759.5 c 128,-1,38
 156 738 156 738 169 725 c 128,-1,39
 182 712 182 712 196 704 c 1,40,41
 281 756 281 756 396 756 c 128,-1,42
 511 756 511 756 549 692 c 0,43,44
 563 668 563 668 563 633 c 0,45,46
 563 580 563 580 517 544 c 128,-1,47
 471 508 471 508 396 508 c 128,-1,48
 321 508 321 508 256 556 c 1,49,50
 255 552 255 552 255 548 c 2,51,-1
 255 526 l 2,52,53
 255 508 255 508 266.5 483.5 c 128,-1,54
 278 459 278 459 295 443 c 1,55,56
 310 446 310 446 328 446 c 0,0,1
191 860 m 0,57,58
 191 872 191 872 206.5 885.5 c 128,-1,59
 222 899 222 899 238.5 912 c 128,-1,60
 255 925 255 925 271.5 937 c 0,61,62
 316.6 969.8 316.6 969.8 340 988 c 0,63,64
 385 1022 385 1022 428 1022 c 0,65,66
 445 1022 445 1022 466 1009.5 c 0,67,68
 532.906976744 969.674418605 532.906976744 969.674418605 565.453488372 944.337209302 c 128,-1,69
 598 919 598 919 639 873 c 0,70,71
 645 867 645 867 645 859.5 c 0,72,73
 645 843.5 645 843.5 612 827 c 1,74,75
 565 811 565 811 554 811 c 2,76,-1
 553 811 l 2,77,78
 527 811 527 811 512 825.5 c 128,-1,79
 497 840 497 840 481.5 855 c 0,80,81
 437.035353535 898.03030303 437.035353535 898.03030303 388 929 c 1,82,83
 342 893 342 893 318 872 c 0,84,85
 280 838 280 838 235.5 838 c 128,-1,86
 191 838 191 838 191 860 c 0,57,58
452 618 m 0,87,88
 452 657 452 657 388 657 c 128,-1,89
 324 657 324 657 285 618 c 1,90,91
 339 585 339 585 395.5 585 c 128,-1,92
 452 585 452 585 452 618 c 0,87,88
EndSplineSet
EndChar

StartChar: Edieresis
Encoding: 203 203 140
Width: 529
Flags: HW
LayerCount: 2
Fore
SplineSet
328 446 m 0,0,1
 415 446 415 446 415 402 c 0,2,3
 415 351 415 351 315 351 c 0,4,5
 293 351 293 351 267 359 c 1,6,7
 238 339 238 339 222.5 309 c 128,-1,8
 207 279 207 279 207 222.5 c 128,-1,9
 207 166 207 166 251.5 139 c 128,-1,10
 296 112 296 112 356.5 112 c 128,-1,11
 417 112 417 112 454.5 131.5 c 128,-1,12
 492 151 492 151 520 174 c 128,-1,13
 548 197 548 197 565.5 216.5 c 128,-1,14
 583 236 583 236 591 236 c 256,15,16
 599 236 599 236 604 225.5 c 128,-1,17
 609 215 609 215 609 198 c 0,18,19
 609 118 609 118 520.5 57.5 c 128,-1,20
 432 -3 432 -3 309 -3 c 0,21,22
 117 -3 117 -3 60 108 c 0,23,24
 40 147 40 147 40 202 c 0,25,26
 40 345 40 345 183 402 c 1,27,28
 110 453 110 453 110 556 c 0,29,30
 110 605 110 605 137 647 c 1,31,32
 112 675 112 675 96.5 706 c 128,-1,33
 81 737 81 737 81 753 c 0,34,35
 81 781 81 781 101 781 c 0,36,37
 115 781 115 781 135.5 759.5 c 128,-1,38
 156 738 156 738 169 725 c 128,-1,39
 182 712 182 712 196 704 c 1,40,41
 281 756 281 756 396 756 c 128,-1,42
 511 756 511 756 549 692 c 0,43,44
 563 668 563 668 563 633 c 0,45,46
 563 580 563 580 517 544 c 128,-1,47
 471 508 471 508 396 508 c 128,-1,48
 321 508 321 508 256 556 c 1,49,50
 255 552 255 552 255 548 c 2,51,-1
 255 526 l 2,52,53
 255 508 255 508 266.5 483.5 c 128,-1,54
 278 459 278 459 295 443 c 1,55,56
 310 446 310 446 328 446 c 0,0,1
330 869.5 m 128,-1,58
 297 847 297 847 258 847 c 128,-1,59
 219 847 219 847 218.5 889.5 c 128,-1,60
 218 932 218 932 246 966 c 128,-1,61
 274 1000 274 1000 308 1001 c 1,62,63
 347 1001 347 1001 379 930 c 1,64,57
 363 892 363 892 330 869.5 c 128,-1,58
573 959 m 1,65,66
 530 847 530 847 469 847 c 0,67,68
 446 847 446 847 432.5 861.5 c 128,-1,69
 419 876 419 876 419 894 c 0,70,71
 419 939 419 939 440 965.5 c 128,-1,72
 461 992 461 992 490 992 c 0,73,74
 546 992 546 992 573 959 c 1,65,66
452 618 m 0,75,76
 452 657 452 657 388 657 c 128,-1,77
 324 657 324 657 285 618 c 1,78,79
 339 585 339 585 395.5 585 c 128,-1,80
 452 585 452 585 452 618 c 0,75,76
EndSplineSet
EndChar

StartChar: Igrave
Encoding: 204 204 141
Width: 328
Flags: HW
LayerCount: 2
Fore
SplineSet
214 23 m 0,0,1
 214 -5 214 -5 174 -5 c 0,2,3
 111 -5 111 -5 88 19.5 c 128,-1,4
 65 44 65 44 65 102 c 0,5,6
 66 192 66 192 114.5 390 c 128,-1,7
 163 588 163 588 206 684 c 0,8,9
 217 709 217 709 237 731.5 c 128,-1,10
 257 754 257 754 290 754 c 0,11,12
 304 754 304 754 313.5 737 c 128,-1,13
 323 720 323 720 323 698 c 128,-1,14
 323 676 323 676 315 632.5 c 128,-1,15
 307 589 307 589 295 533 c 128,-1,16
 283 477 283 477 268.5 411.5 c 0,17,18
 214 165.310344828 214 165.310344828 214 23 c 0,0,1
331 856 m 0,19,20
 331 840.068965517 331 840.068965517 272.5 832 c 0,21,22
 258 830 258 830 238 830 c 128,-1,23
 218 830 218 830 173.5 839 c 128,-1,24
 129 848 129 848 86.5 866 c 128,-1,25
 44 884 44 884 13.5 911 c 128,-1,26
 -17 938 -17 938 -17 975 c 1,27,28
 -18 990 -18 990 11.5 1001 c 128,-1,29
 41 1012 41 1012 68 1012 c 128,-1,30
 95 1012 95 1012 107 997 c 0,31,32
 145 945 145 945 195 916.5 c 128,-1,33
 245 888 245 888 311 869 c 0,34,35
 331 863 331 863 331 856 c 0,19,20
EndSplineSet
EndChar

StartChar: Iacute
Encoding: 205 205 142
Width: 328
Flags: HW
LayerCount: 2
Fore
SplineSet
214 23 m 0,0,1
 214 -5 214 -5 174 -5 c 0,2,3
 111 -5 111 -5 88 19.5 c 128,-1,4
 65 44 65 44 65 102 c 0,5,6
 66 192 66 192 114.5 390 c 128,-1,7
 163 588 163 588 206 684 c 0,8,9
 217 709 217 709 237 731.5 c 128,-1,10
 257 754 257 754 290 754 c 0,11,12
 304 754 304 754 313.5 737 c 128,-1,13
 323 720 323 720 323 698 c 128,-1,14
 323 676 323 676 315 632.5 c 128,-1,15
 307 589 307 589 295 533 c 128,-1,16
 283 477 283 477 268.5 411.5 c 0,17,18
 214 165.310344828 214 165.310344828 214 23 c 0,0,1
545 1012 m 0,19,20
 593 1012 593 1012 593 996 c 0,21,22
 593 983 593 983 571 954.5 c 0,23,24
 517.858846918 885.65805169 517.858846918 885.65805169 461.929423459 855.829025845 c 128,-1,25
 406 826 406 826 310 825 c 0,26,27
 270 825 270 825 270 844 c 256,28,29
 270 860 270 860 300 869 c 0,30,31
 370 891 370 891 399.5 910.5 c 128,-1,32
 429 930 429 930 445.5 947.5 c 128,-1,33
 462 965 462 965 478 989 c 0,34,35
 486 1000 486 1000 505.5 1006 c 128,-1,36
 525 1012 525 1012 545 1012 c 0,19,20
EndSplineSet
EndChar

StartChar: Icircumflex
Encoding: 206 206 143
Width: 328
Flags: HW
LayerCount: 2
Fore
SplineSet
214 23 m 0,0,1
 214 -5 214 -5 174 -5 c 0,2,3
 111 -5 111 -5 88 19.5 c 128,-1,4
 65 44 65 44 65 102 c 0,5,6
 66 192 66 192 114.5 390 c 128,-1,7
 163 588 163 588 206 684 c 0,8,9
 217 709 217 709 237 731.5 c 128,-1,10
 257 754 257 754 290 754 c 0,11,12
 304 754 304 754 313.5 737 c 128,-1,13
 323 720 323 720 323 698 c 128,-1,14
 323 676 323 676 315 632.5 c 128,-1,15
 307 589 307 589 295 533 c 128,-1,16
 283 477 283 477 268.5 411.5 c 0,17,18
 214 165.310344828 214 165.310344828 214 23 c 0,0,1
97 860 m 0,19,20
 97 872 97 872 112.5 885.5 c 128,-1,21
 128 899 128 899 144.5 912 c 128,-1,22
 161 925 161 925 177.5 937 c 0,23,24
 222.6 969.8 222.6 969.8 246 988 c 0,25,26
 291 1022 291 1022 334 1022 c 0,27,28
 351 1022 351 1022 372 1009.5 c 0,29,30
 438.906976744 969.674418605 438.906976744 969.674418605 471.453488372 944.337209302 c 128,-1,31
 504 919 504 919 545 873 c 0,32,33
 551 867 551 867 551 859.5 c 0,34,35
 551 843.5 551 843.5 518 827.25 c 128,-1,36
 485 811 485 811 459 811 c 128,-1,37
 433 811 433 811 418 825.5 c 128,-1,38
 403 840 403 840 387.5 855 c 0,39,40
 343.035353535 898.03030303 343.035353535 898.03030303 294 929 c 1,41,42
 248 893 248 893 224 872 c 0,43,44
 186 838 186 838 141.5 838 c 128,-1,45
 97 838 97 838 97 860 c 0,19,20
EndSplineSet
EndChar

StartChar: Idieresis
Encoding: 207 207 144
Width: 328
Flags: HW
LayerCount: 2
Fore
SplineSet
214 23 m 0,0,1
 214 -5 214 -5 174 -5 c 0,2,3
 111 -5 111 -5 88 19.5 c 128,-1,4
 65 44 65 44 65 102 c 0,5,6
 66 192 66 192 114.5 390 c 128,-1,7
 163 588 163 588 206 684 c 0,8,9
 217 709 217 709 237 731.5 c 128,-1,10
 257 754 257 754 290 754 c 0,11,12
 304 754 304 754 313.5 737 c 128,-1,13
 323 720 323 720 323 698 c 128,-1,14
 323 676 323 676 315 632.5 c 128,-1,15
 307 589 307 589 295 533 c 128,-1,16
 283 477 283 477 268.5 411.5 c 0,17,18
 214 165.310344828 214 165.310344828 214 23 c 0,0,1
236 869.5 m 128,-1,20
 203 847 203 847 164 847 c 128,-1,21
 125 847 125 847 124.5 889.5 c 128,-1,22
 124 932 124 932 152 966 c 128,-1,23
 180 1000 180 1000 214 1001 c 1,24,25
 253 1001 253 1001 285 930 c 1,26,19
 269 892 269 892 236 869.5 c 128,-1,20
479 959 m 1,27,28
 436 847 436 847 375 847 c 0,29,30
 352 847 352 847 338.5 861.5 c 128,-1,31
 325 876 325 876 325 894 c 0,32,33
 325 939 325 939 346 965.5 c 128,-1,34
 367 992 367 992 396 992 c 0,35,36
 452 992 452 992 479 959 c 1,27,28
EndSplineSet
EndChar

StartChar: Eth
Encoding: 208 208 145
Width: 745
Flags: HW
LayerCount: 2
Fore
SplineSet
11 325 m 0,0,1
 11 406 11 406 148 406 c 2,2,-1
 166 406 l 1,3,4
 211 528 211 528 241 566 c 0,5,6
 259 588 259 588 286 589 c 0,7,8
 294 589 294 589 301.5 572 c 128,-1,9
 309 555 309 555 309 529 c 128,-1,10
 309 503 309 503 287 405 c 1,11,-1
 426 403 l 1,12,13
 447 403 l 2,14,15
 459 403 459 403 459 390.5 c 0,16,17
 459 370 459 370 434 340.5 c 128,-1,18
 409 311 409 311 392 311 c 0,19,20
 357 311 357 311 267 317 c 1,21,22
 244 208 244 208 236 130 c 1,23,24
 302 115 302 115 352.5 115 c 128,-1,25
 403 115 403 115 444.5 141.5 c 128,-1,26
 486 168 486 168 516 210 c 0,27,28
 578 299 578 299 578 424 c 0,29,30
 578 655 578 655 395 655 c 1,31,32
 330.305410122 653.823734729 330.305410122 653.823734729 165 597 c 0,33,34
 133 586 133 586 109 586 c 128,-1,35
 85 586 85 586 85 600 c 0,36,37
 85 619 85 619 113 645 c 0,38,39
 142 671 142 671 186 695 c 0,40,41
 294 753 294 753 395 753 c 0,42,43
 534 753 534 753 624 678 c 0,44,45
 730 589 730 589 730 408 c 0,46,47
 730 331 730 331 706 256 c 128,-1,48
 682 181 682 181 633 122.5 c 128,-1,49
 584 64 584 64 509 28 c 128,-1,50
 434 -8 434 -8 332 -8 c 0,51,52
 291 -8 291 -8 228 10 c 1,53,54
 221 -9 221 -9 192.5 -9 c 0,55,56
 140 -9 140 -9 121.5 8.5 c 128,-1,57
 103 26 103 26 101 66 c 1,58,59
 53 93 53 93 21.5 122 c 128,-1,60
 -10 151 -10 151 -10 173 c 0,61,62
 -10 185 -10 185 6 185 c 128,-1,63
 22 185 22 185 105 163 c 1,64,65
 114 238 114 238 137 317 c 1,66,-1
 17 316 l 2,67,68
 11 316 11 316 11 325 c 0,0,1
EndSplineSet
EndChar

StartChar: Ntilde
Encoding: 209 209 146
Width: 691
Flags: HW
LayerCount: 2
Fore
SplineSet
295 878 m 0,0,1
 276.777777778 878 276.777777778 878 274 903 c 1,2,3
 274 917 274 917 293 938 c 1,4,5
 336 991 336 991 382 1011.5 c 128,-1,6
 428 1032 428 1032 460 1032 c 128,-1,7
 492 1032 492 1032 517 1015 c 128,-1,8
 542 998 542 998 564 977.5 c 128,-1,9
 586 957 586 957 607 940 c 128,-1,10
 628 923 628 923 644 923 c 128,-1,11
 660 923 660 923 667 929 c 128,-1,12
 674 935 674 935 684 942.5 c 128,-1,13
 694 950 694 950 707.5 956.5 c 128,-1,14
 721 963 721 963 748 963 c 128,-1,15
 775 963 775 963 775 945 c 0,16,17
 775 939 775 939 772 937 c 1,18,19
 725 839 725 839 621 839 c 0,20,21
 590 839 590 839 566 855 c 128,-1,22
 542 871 542 871 520 889.5 c 128,-1,23
 498 908 498 908 476 924 c 128,-1,24
 454 940 454 940 427 940 c 0,25,26
 409 940 409 940 390 907 c 1,27,28
 376 886 376 886 320 880 c 0,29,30
 306 878 306 878 295 878 c 0,0,1
578 164 m 0,31,32
 578 112 578 112 601 112 c 0,33,34
 626 112 626 112 688 174 c 0,35,36
 704 190 704 190 722 213 c 128,-1,37
 740 236 740 236 750 236 c 0,38,39
 770 236 770 236 770.5 200.5 c 128,-1,40
 771 165 771 165 750 129.5 c 128,-1,41
 729 94 729 94 695.5 64.5 c 128,-1,42
 662 35 662 35 621 16 c 128,-1,43
 580 -3 580 -3 541 -3 c 0,44,45
 482 -3 482 -3 459.5 26.5 c 128,-1,46
 437 56 437 56 437 95 c 128,-1,47
 437 134 437 134 444.5 171.5 c 0,48,49
 456.5 231.5 456.5 231.5 514 404 c 0,50,51
 541 486 541 486 541 527 c 128,-1,52
 541 568 541 568 525.5 592 c 128,-1,53
 510 616 510 616 478.5 616 c 128,-1,54
 447 616 447 616 417 594.5 c 128,-1,55
 387 573 387 573 361 538.5 c 0,56,57
 314.438884331 476.716981132 314.438884331 476.716981132 277.719442166 378.358490566 c 128,-1,58
 241 280 241 280 230 208 c 1,59,60
 249 116 249 116 249 88 c 0,61,62
 249 30 249 30 208 10 c 0,63,64
 189 1 189 1 171.5 -7 c 128,-1,65
 154 -15 154 -15 134 -15 c 0,66,67
 84 -15 84 -15 84 80.5 c 128,-1,68
 84 176 84 176 137 454 c 0,69,70
 156 554 156 554 156 566 c 0,71,72
 156 647 156 647 115 647 c 0,73,74
 101 647 101 647 89.5 639 c 128,-1,75
 78 631 78 631 66.5 622 c 128,-1,76
 55 613 55 613 43 605 c 128,-1,77
 31 597 31 597 15.5 597 c 128,-1,78
 0 597 0 597 0 624.5 c 0,79,80
 0 678.52173913 0 678.52173913 51 714 c 1,81,82
 100 750 100 750 170 750 c 0,83,84
 268 750 268 750 280 654 c 0,85,86
 284 626 284 626 283 593 c 1,87,-1
 283 586 l 1,88,89
 321 659 321 659 374.5 705.5 c 128,-1,90
 428 752 428 752 499 752 c 0,91,92
 597 752 597 752 641 699.5 c 0,93,94
 733.365574328 589.291076086 733.365574328 589.291076086 632 334 c 0,95,96
 612 282 612 282 595 238 c 128,-1,97
 578 194 578 194 578 164 c 0,31,32
EndSplineSet
EndChar

StartChar: Ograve
Encoding: 210 210 147
Width: 849
Flags: HW
LayerCount: 2
Fore
SplineSet
697 650 m 0,0,1
 697 639 697 639 667 639 c 0,2,3
 656 639 656 639 638 642 c 128,-1,4
 620 645 620 645 571 651 c 128,-1,5
 522 657 522 657 466.5 657 c 128,-1,6
 411 657 411 657 366 627.5 c 128,-1,7
 321 598 321 598 290.5 552 c 128,-1,8
 260 506 260 506 243.5 449 c 128,-1,9
 227 392 227 392 227 337 c 0,10,11
 227 237 227 237 273 181 c 128,-1,12
 319 125 319 125 401 125 c 0,13,14
 549 125 549 125 628 230 c 0,15,16
 652 262 652 262 667 301 c 1,17,18
 594 310 594 310 555 355.5 c 128,-1,19
 516 401 516 401 516 467.5 c 128,-1,20
 516 534 516 534 553 573 c 128,-1,21
 590 612 590 612 652.5 612 c 128,-1,22
 715 612 715 612 748.5 564.5 c 128,-1,23
 782 517 782 517 782 445 c 0,24,25
 782 420 782 420 780 398 c 1,26,27
 798 406 798 406 810 415 c 128,-1,28
 822 424 822 424 834 424 c 0,29,30
 854 424 854 424 854 407 c 0,31,32
 854 372 854 372 830.5 346.5 c 128,-1,33
 807 321 807 321 768 308 c 1,34,35
 738 162 738 162 640.5 77 c 128,-1,36
 543 -8 543 -8 388 -8 c 128,-1,37
 233 -8 233 -8 146 86 c 0,38,39
 70 169 70 169 70 299 c 0,40,41
 70 387 70 387 98.5 469 c 128,-1,42
 127 551 127 551 179.5 614 c 128,-1,43
 232 677 232 677 307 715 c 128,-1,44
 382 753 382 753 475.5 753 c 128,-1,45
 569 753 569 753 633 720 c 128,-1,46
 697 687 697 687 697 650 c 0,0,1
541 856 m 0,47,48
 541 840.068965517 541 840.068965517 482.5 832 c 0,49,50
 468 830 468 830 448 830 c 128,-1,51
 428 830 428 830 383.5 839 c 128,-1,52
 339 848 339 848 296.5 866 c 128,-1,53
 254 884 254 884 223.5 911 c 128,-1,54
 193 938 193 938 193 975 c 1,55,56
 192 990 192 990 221.5 1001 c 128,-1,57
 251 1012 251 1012 278 1012 c 128,-1,58
 305 1012 305 1012 317 997 c 0,59,60
 355 945 355 945 405 916.5 c 128,-1,61
 455 888 455 888 521 869 c 0,62,63
 541 863 541 863 541 856 c 0,47,48
665 524 m 0,64,65
 644 524 644 524 644 490 c 0,66,67
 644 430 644 430 692 403 c 1,68,69
 695 430 695 430 695 459 c 0,70,71
 695 524 695 524 665 524 c 0,64,65
EndSplineSet
EndChar

StartChar: Oacute
Encoding: 211 211 148
Width: 849
Flags: HW
LayerCount: 2
Fore
SplineSet
697 650 m 0,0,1
 697 639 697 639 667 639 c 0,2,3
 656 639 656 639 638 642 c 128,-1,4
 620 645 620 645 571 651 c 128,-1,5
 522 657 522 657 466.5 657 c 128,-1,6
 411 657 411 657 366 627.5 c 128,-1,7
 321 598 321 598 290.5 552 c 128,-1,8
 260 506 260 506 243.5 449 c 128,-1,9
 227 392 227 392 227 337 c 0,10,11
 227 237 227 237 273 181 c 128,-1,12
 319 125 319 125 401 125 c 0,13,14
 549 125 549 125 628 230 c 0,15,16
 652 262 652 262 667 301 c 1,17,18
 594 310 594 310 555 355.5 c 128,-1,19
 516 401 516 401 516 467.5 c 128,-1,20
 516 534 516 534 553 573 c 128,-1,21
 590 612 590 612 652.5 612 c 128,-1,22
 715 612 715 612 748.5 564.5 c 128,-1,23
 782 517 782 517 782 445 c 0,24,25
 782 420 782 420 780 398 c 1,26,27
 798 406 798 406 810 415 c 128,-1,28
 822 424 822 424 834 424 c 0,29,30
 854 424 854 424 854 407 c 0,31,32
 854 372 854 372 830.5 346.5 c 128,-1,33
 807 321 807 321 768 308 c 1,34,35
 738 162 738 162 640.5 77 c 128,-1,36
 543 -8 543 -8 388 -8 c 128,-1,37
 233 -8 233 -8 146 86 c 0,38,39
 70 169 70 169 70 299 c 0,40,41
 70 387 70 387 98.5 469 c 128,-1,42
 127 551 127 551 179.5 614 c 128,-1,43
 232 677 232 677 307 715 c 128,-1,44
 382 753 382 753 475.5 753 c 128,-1,45
 569 753 569 753 633 720 c 128,-1,46
 697 687 697 687 697 650 c 0,0,1
755 1012 m 0,47,48
 803 1012 803 1012 803 996 c 0,49,50
 803 983 803 983 781 954.5 c 0,51,52
 727.858846918 885.65805169 727.858846918 885.65805169 671.929423459 855.829025845 c 128,-1,53
 616 826 616 826 520 825 c 0,54,55
 480 825 480 825 480 844 c 256,56,57
 480 860 480 860 510 869 c 0,58,59
 580 891 580 891 609.5 910.5 c 128,-1,60
 639 930 639 930 655.5 947.5 c 128,-1,61
 672 965 672 965 688 989 c 0,62,63
 696 1000 696 1000 715.5 1006 c 128,-1,64
 735 1012 735 1012 755 1012 c 0,47,48
665 524 m 0,65,66
 644 524 644 524 644 490 c 0,67,68
 644 430 644 430 692 403 c 1,69,70
 695 430 695 430 695 459 c 0,71,72
 695 524 695 524 665 524 c 0,65,66
EndSplineSet
EndChar

StartChar: Ocircumflex
Encoding: 212 212 149
Width: 849
Flags: HW
LayerCount: 2
Fore
SplineSet
697 650 m 0,0,1
 697 639 697 639 667 639 c 0,2,3
 656 639 656 639 638 642 c 128,-1,4
 620 645 620 645 571 651 c 128,-1,5
 522 657 522 657 466.5 657 c 128,-1,6
 411 657 411 657 366 627.5 c 128,-1,7
 321 598 321 598 290.5 552 c 128,-1,8
 260 506 260 506 243.5 449 c 128,-1,9
 227 392 227 392 227 337 c 0,10,11
 227 237 227 237 273 181 c 128,-1,12
 319 125 319 125 401 125 c 0,13,14
 549 125 549 125 628 230 c 0,15,16
 652 262 652 262 667 301 c 1,17,18
 594 310 594 310 555 355.5 c 128,-1,19
 516 401 516 401 516 467.5 c 128,-1,20
 516 534 516 534 553 573 c 128,-1,21
 590 612 590 612 652.5 612 c 128,-1,22
 715 612 715 612 748.5 564.5 c 128,-1,23
 782 517 782 517 782 445 c 0,24,25
 782 420 782 420 780 398 c 1,26,27
 798 406 798 406 810 415 c 128,-1,28
 822 424 822 424 834 424 c 0,29,30
 854 424 854 424 854 407 c 0,31,32
 854 372 854 372 830.5 346.5 c 128,-1,33
 807 321 807 321 768 308 c 1,34,35
 738 162 738 162 640.5 77 c 128,-1,36
 543 -8 543 -8 388 -8 c 128,-1,37
 233 -8 233 -8 146 86 c 0,38,39
 70 169 70 169 70 299 c 0,40,41
 70 387 70 387 98.5 469 c 128,-1,42
 127 551 127 551 179.5 614 c 128,-1,43
 232 677 232 677 307 715 c 128,-1,44
 382 753 382 753 475.5 753 c 128,-1,45
 569 753 569 753 633 720 c 128,-1,46
 697 687 697 687 697 650 c 0,0,1
307 860 m 0,47,48
 307 872 307 872 322.5 885.5 c 128,-1,49
 338 899 338 899 354.5 912 c 128,-1,50
 371 925 371 925 387.5 937 c 0,51,52
 432.6 969.8 432.6 969.8 456 988 c 0,53,54
 501 1022 501 1022 544 1022 c 0,55,56
 561 1022 561 1022 582 1009.5 c 0,57,58
 648.906976744 969.674418605 648.906976744 969.674418605 681.453488372 944.337209302 c 128,-1,59
 714 919 714 919 755 873 c 0,60,61
 761 867 761 867 761 859.5 c 0,62,63
 761 843.5 761 843.5 728 827.25 c 128,-1,64
 695 811 695 811 669 811 c 128,-1,65
 643 811 643 811 628 825.5 c 128,-1,66
 613 840 613 840 597.5 855 c 0,67,68
 553.035353535 898.03030303 553.035353535 898.03030303 504 929 c 1,69,70
 458 893 458 893 434 872 c 0,71,72
 396 838 396 838 351.5 838 c 128,-1,73
 307 838 307 838 307 860 c 0,47,48
665 524 m 0,74,75
 644 524 644 524 644 490 c 0,76,77
 644 430 644 430 692 403 c 1,78,79
 695 430 695 430 695 459 c 0,80,81
 695 524 695 524 665 524 c 0,74,75
EndSplineSet
EndChar

